<?xml version="1.0" encoding="UTF-8" standalone="no"?>
<svg id="svg12691" xmlns:rdf="http://www.w3.org/1999/02/22-rdf-syntax-ns#" xmlns="http://www.w3.org/2000/svg" viewBox="0 0 423.93029 423.93028" height="119.64mm" width="119.64mm" version="1.1" xmlns:cc="http://creativecommons.org/ns#" xmlns:dc="http://purl.org/dc/elements/1.1/">
 <metadata id="metadata12696">
  <rdf:RDF>
   <cc:Work rdf:about="">
    <dc:format>image/svg+xml</dc:format>
    <dc:type rdf:resource="http://purl.org/dc/dcmitype/StillImage"/>
    <dc:title/>
   </cc:Work>
  </rdf:RDF>
 </metadata>
 <g id="layer1" transform="translate(324.11 -320.4)">
  <g id="g16258" transform="translate(2393.5 -1165.3)">
   <g id="g4693" transform="translate(53 678.82)">
    <circle id="circle4994" stroke-width="7.6711" stroke-linecap="round" stroke="#4096c3" cy="1018.8" cx="-2558.6" r="208.13" fill="none"/>
    <path id="path5643" d="m-2499.9 886.21c-21.666-12.789-47.159-17.29-72.036-17.739-30.921 0.3646-63.384 7.1657-87.672 27.415-38.816 31.299-49.767 90.28-28.088 134.56 5.7915 12.214 13.827 23.222 22.675 33.403 4.1088 4.7398 8.8065 9.171 11.513 14.948 6.4506 13.013 7.362 27.822 7.923 42.069 0.5329 20.095-5.1604 39.966-14.906 57.438 49.697-0.2665 99.409-0.2244 149.11-0.014 2.7907-10.531 2.8748-21.469 4.5856-32.169 0.603-4.4313 4.249-8.4699 8.9747-8.2455 13.448-0.1683 26.63 5.6933 40.148 3.0429 7.1377-1.0096 14.247-5.7213 16.028-13.027 2.2017-9.3392-2.0053-18.37-5.3146-26.882 2.482-4.0806 7.8808-5.3988 9.816-9.8301 0.4768-5.553-6.9133-6.6889-11.078-7.6565 4.2911-0.9114 9.3252-0.9395 12.761-4.0386 1.8792-5.4409-2.1455-10.742-2.7204-16.126 4.3332-6.3383 13.799-4.9361 18.917-10.251 2.5662-3.029 1.1498-6.8712-0.4908-9.9564-8.1193-15.355-18.468-29.406-27.583-44.13 2.0754-2.6223 5.2166-4.922 5.4831-8.5119-2.2017-24.456-9.8442-48.547-23.18-69.245-8.9887-13.925-20.431-26.63-34.861-35.057m-64.436 12.158c3.8703-1.5145 7.8809-3.085 12.102-2.8326 6.703 0.37862 12.789 4.4733 16.365 10.04 11.19-3.8002 24.821 1.4724 30.065 12.172 6.9554 0.0704 16.112 5.3567 13.869 13.392 12.214 5.9738 20.011 20.768 16.351 34.118-1.4444 5.2026-6.1421 9.143-11.541 9.6197 0.3645 2.8186 0.9956 5.9177-0.575 8.5119-2.9869 5.483-9.3954 7.5864-15.131 8.7643-9.4936 1.9632-19.141 3.632-28.873 3.632 1.6267 3.1412 3.3655 6.5346 2.8747 10.209-0.5749 5.1605-4.7818 8.9186-9.0308 11.387-9.5917 6.128-23.096 3.5198-31.019 12.677-6.5908 10.952-9.6759 23.573-13.392 35.702-3.1551-0.028-6.3102-0.028-9.4654 0-1.5145-6.9413-3.071-13.883-4.3051-20.88-5.7774 7.6566-16.098 13.518-25.718 9.6338-9.1149-3.7723-12.985-13.883-14.5-22.942-5.5812 1.7249-12.018 3.0009-17.346-0.2664-6.9134-4.1929-9.3814-13.182-7.5304-20.754-7.2919-3.4778-12.13-10.882-13.112-18.805-1.8931-13.462 1.3743-28.228 10.98-38.227-1.1919-3.043-3.1271-6.114-2.2296-9.5356 1.3321-5.7634 5.8616-10.125 10.854-12.957-1.4444-7.7266 5.7774-13.168 12.831-13.406 2.0474-3.3515 4.1228-6.8993 7.5444-9.0308 4.5294-3.2814 10.7-3.1692 15.65-0.91149 2.9868-9.5777 14.752-12.593 23.39-9.1289 8.4979-7.5584 21.96-6.2823 30.892-0.1823z" stroke="#000" stroke-width="2.5" fill="#ccc"/>
    <path id="path4564" opacity="0.704" d="m-2591.4 1055.7c-0.024-3.5001-1.1811-8.1613-2.5717-10.358-2.1466-3.391-3.2104-3.3123-7.0445 0.5219-11.455 11.455-24.56 8.0979-30.295-7.7619-3.0075-8.317-4.5647-9.5615-10.196-8.1481-8.0179 2.0123-17.732-5.7163-17.732-14.108 0-3.1588-2.7577-8.6788-6.1283-12.266-7.5591-8.0463-8.2117-26.542-1.3996-39.663 2.5847-4.9786 4.6995-12.141 4.6995-15.917 0-3.7759 2.0417-8.5597 4.5373-10.631 2.4955-2.0711 5.6459-6.6817 7.001-10.246 1.3551-3.5641 4.3597-6.4802 6.6769-6.4802s5.5755-2.5456 7.2406-5.6569c1.9374-3.62 5.9222-5.6568 11.067-5.6568 4.4217 0 9.5168-1.7802 11.322-3.9559 3.386-4.0799 20.681-7.6947 35.593-7.4395 4.6669 0.0799 13.489 0.14288 19.606 0.14004 6.5569-0.003 13.328 1.9926 16.5 4.863 3.1598 2.8596 8.7512 4.5144 13.552 4.0109 5.7144-0.5994 10.295 1.2653 15.229 6.1995 3.8813 3.8812 9.6433 7.8777 12.804 8.881 3.1613 1.0034 5.7478 3.1615 5.7478 4.7958 0 1.6344 3.8183 7.3204 8.4852 12.636 10.453 11.906 11.988 28.88 2.8285 31.275-3.1113 0.81361-5.6569 3.7206-5.6569 6.4599 0 7.6008-6.2981 11.269-24.452 14.242-9.1081 1.4916-17.483 2.7194-18.611 2.7285-1.1278 0.009-1.3078 3.7306-0.3998 8.2701 1.4045 7.0227 0.4447 8.8703-6.4347 12.387-4.447 2.2734-12.206 5.0209-17.243 6.1055-11.226 2.4173-18.591 11.343-23.332 28.274-3.7501 13.394-11.318 17.709-11.394 6.4973z" fill-opacity=".46222" fill="#ff0"/>
   </g>
  </g>
 </g>
</svg>
