<?xml version="1.0" encoding="UTF-8" standalone="no"?>
<svg id="svg5048" xmlns:rdf="http://www.w3.org/1999/02/22-rdf-syntax-ns#" xmlns="http://www.w3.org/2000/svg" viewBox="0 0 423.93029 423.93028" height="119.64mm" width="119.64mm" version="1.1" xmlns:cc="http://creativecommons.org/ns#" xmlns:dc="http://purl.org/dc/elements/1.1/">
 <metadata id="metadata5053">
  <rdf:RDF>
   <cc:Work rdf:about="">
    <dc:format>image/svg+xml</dc:format>
    <dc:type rdf:resource="http://purl.org/dc/dcmitype/StillImage"/>
    <dc:title/>
   </cc:Work>
  </rdf:RDF>
 </metadata>
 <g id="layer1" transform="translate(324.11 -320.4)">
  <g id="g4578" transform="translate(2438.8 153.61)">
   <g id="g4593" transform="matrix(.72036 0 0 .72036 -2735.9 196.2)" stroke-width="0" fill="none">
    <path id="path4595" d="m163.34 32.52c8.98-1.11 18.14-0.75 27.01 0.98 15.87 2.53 29.61 11.34 44.67 16.41 13.24 4.08 27.75 4.63 40.91-0.02 16.32-6.59 32.18-15.49 50.08-16.98 34.55-5.83 72.65 12.61 87 45.08 11.09 21.55 10.45 46.48 9.89 70.01-1.7 19.79-6.77 39.32-15.86 57.02-7.78 14.72-18.68 28.54-21.64 45.3-1.2 26.66 0.74 53.44-1.79 80.02-2.45 31.93-7.01 63.93-17 94.44-7.02 18.48-15.4 37.98-31.96 49.83-6.27 4.64-15.41 7.57-22.65 3.36-10.2-4.46-13.62-16.48-14.48-26.62-2.06-28.3-6.55-56.41-12.89-84.06-3.92-17.88-8.78-35.7-16.6-52.31-2.62-4.69-5.09-10.38-10.3-12.69-2.38-1.15-4.69 0.63-6.55 1.9-5.23 5.27-8.07 12.35-10.84 19.12-15.88 42.78-21.88 88.46-26.45 133.63-1.62 8.8-6.31 18.38-15.2 21.68-3.96 1.74-8.43 1.36-12.63 1.37-16.46-7.32-26.46-23.39-33.98-39.01-18.09-41.5-21.93-87.34-24.99-131.97-0.3-19.01 0.1-38.02-0.14-57.02-3.36-21.57-19.45-38.01-26.95-57.99-9.34-21.62-11.56-45.69-11.02-69-0.67-13.94 2.24-27.9 7.27-40.84 10.07-28.14 37.33-48.96 67.09-51.64m4 21.03c-15.6 0.84-30.53 8.31-41.13 19.65-11.38 13.12-16.47 30.7-17.19 47.79-0.41 20.5 0.88 41.57 7.95 61.02 8.38 23.39 27.39 42.5 30.03 67.98-0.71 54.86 1.37 110.57 16.44 163.69 5.39 14.67 10.54 30.6 22.78 41.1 1.59 1.54 2.98 3.95 5.58 3.16 1.92-6.57 1.9-13.5 2.87-20.23 2.95-23.71 6.12-47.43 11.22-70.78 4.78-21.12 10.38-42.33 20.48-61.6 5.68-9.61 12.73-19.57 23.91-23 8.73-2.09 17.83 1.09 23.81 7.58 9.12 9.66 14.8 21.98 19.76 34.18 15.24 42.39 21.56 87.34 25.93 132-0.3 4.21 5.52 0.52 6.27-1.03 12.16-10.89 17.74-26.98 22.92-42.02 14.33-50.64 17-103.72 16.01-156.05-0.73-16.67 6.89-31.92 15.26-45.76 12.97-22.58 21.6-48.01 21.79-74.23 0.43-19.4-1.43-40.07-12.26-56.78-10.38-16.51-29.74-25.6-48.77-27.16-8.72 0.57-17.56 1.51-25.98 4.03-9.61 3.46-18.61 8.41-28.3 11.63-20.62 8.28-44.11 7.56-64.57-0.92-17.36-7.25-35.46-16.46-54.81-14.25z"/>
    <path id="path4597" d="m162.29 81.27c5.79-1.94 11.8 0.73 14.38 6.07 0.19 3.54 1.32 7.97-1.42 10.93-3.17 3.15-7.81 5.1-9.28 9.7-4.15 10.73-4.89 22.7-3.02 34.03 1.07 16.64 7.39 32.59 16.63 46.34 4.86 7.86-5.22 19.25-13.52 14.58-7.51-2.3-8.51-10.71-12.63-16.29-6.29-12.36-10.58-25.73-11.53-39.62-2.61-20.25-2.12-43.7 12.22-59.89 2.7-1.96 5.14-4.38 8.17-5.85z"/>
   </g>
   <circle id="circle4659" stroke-width="7.6711" stroke-linecap="round" stroke="#4096c3" cy="378.75" cx="-2551" r="208.13" fill="none"/>
   <path id="path4494" opacity="0.704" d="m-2605.8 517.8c-12.952-16.982-20.765-55.26-22.911-112.26l-1.4307-38-11.315-22c-8.6996-16.915-11.842-25.467-13.597-37-6.0023-39.451 6.4323-65.64 34.08-71.776 10.909-2.4214 22.567-0.36533 40.112 7.0743 18.869 8.001 39.653 7.9429 59-0.16479 17.078-7.1567 28.923-9.1683 39.778-6.7557 12.837 2.8532 22.477 10.706 28.701 23.38 4.9228 10.024 5.5171 13.411 5.483 31.243-0.043 22.725-2.5989 32.112-16.062 59l-8.5122 17-1.2837 35c-1.5247 41.566-5.5421 71.466-12.361 92-4.7835 14.403-13.554 30-16.87 30-0.8713 0-2.1628-5.175-2.87-11.5-2.7938-24.986-9.4957-58.361-15.052-74.956-11.814-35.287-24.256-46.05-41.251-35.687-13.01 7.933-25.453 44.387-32.02 93.81-1.8515 13.933-4.0079 26.084-4.7919 27.002-0.7841 0.91804-3.8557-1.5169-6.8259-5.4109zm-2.2042-176.4c4.2623-4.2624 4.0749-5.4729-3.1049-20.057-5.2767-10.718-6.2838-15.13-6.4799-28.386-0.2133-14.426 0.219-16.232 5.3431-22.321 6.0324-7.1691 6.3185-11.446 0.9901-14.801-5.9725-3.761-14.118 0.76953-19.257 10.711-4.1422 8.0127-4.5613 11.08-3.8274 28.018 0.6678 15.414 1.8955 21.408 6.4755 31.614 4.9929 11.126 11.027 18.366 15.306 18.366 0.7767 0 2.8264-1.4143 4.555-3.1429z" stroke="#000" stroke-linecap="round" stroke-width="2.5" fill="#e6e6e6"/>
  </g>
 </g>
</svg>
