<?xml version="1.0" encoding="UTF-8" standalone="no"?>
<svg id="svg6839" xmlns:rdf="http://www.w3.org/1999/02/22-rdf-syntax-ns#" xmlns="http://www.w3.org/2000/svg" height="119.64mm" width="119.64mm" version="1.1" xmlns:cc="http://creativecommons.org/ns#" xmlns:dc="http://purl.org/dc/elements/1.1/" viewBox="0 0 423.93029 423.93028">
 <metadata id="metadata6844">
  <rdf:RDF>
   <cc:Work rdf:about="">
    <dc:format>image/svg+xml</dc:format>
    <dc:type rdf:resource="http://purl.org/dc/dcmitype/StillImage"/>
    <dc:title/>
   </cc:Work>
  </rdf:RDF>
 </metadata>
 <g id="layer1" transform="translate(324.11 -320.4)">
  <g id="g6805" transform="translate(702.94 153.61)">
   <g id="g4602">
    <path id="path4637" d="m-817.93 230.57h4.1313c26.082 0.62596 52.467 9.0734 72.355 26.308 19.28 16.496 31.674 39.537 39.877 63.222 4.7692 13.556 8.4475 27.471 11.542 41.504 2.7781 13.223 4.9719 26.588 6.0152 40.073 0.78692 6.6352 0.65576 13.324 1.085 19.983v4.1611c-0.3696 7.0882-0.19673 14.206-1.0731 21.265-0.73923 9.7411-2.015 19.446-3.9644 29.027-1.6036 8.1434-4.2625 16.191-8.829 23.178-3.565 5.2998-8.3879 9.9617-14.337 12.46-4.4711 1.8958-9.3059 2.6469-14.099 3.1715-11.16 1.0671-22.409 0.84058-33.557-0.25634-9.0377 7.3506-19.274 13.372-30.416 16.889-7.9169 2.6529-16.233 3.9465-24.567 4.2446h-3.4577c-19.959-0.54846-39.406-8.3819-54.655-21.163-8.5488 0.73327-17.145 1.2877-25.73 0.81673-7.285-0.2623-14.689-0.86442-21.599-3.3444-8.9661-3.5054-15.357-11.53-19.119-20.15-3.1358-7.0584-4.7871-14.659-6.0271-22.248-1.7706-9.4848-2.474-19.113-3.3086-28.711-0.29211-5.0494-0.25038-10.117-0.54846-15.166v-4.1134c0.42923-6.4921 0.29211-13.02 1.0313-19.488 1.9077-24.043 7.0167-47.734 13.884-70.817 2.5396-7.7023 4.9183-15.47 8.1434-22.922 6.7067-16.341 15.852-31.846 28.049-44.705 8.1375-8.4058 17.694-15.452 28.15-20.704 15.75-8.06 33.414-11.875 51.025-12.513m16.448 75.836c-13.175 4.7513-26.785 8.1852-39.877 13.175-10.731 3.9346-21.461 8.6621-30.135 16.281-16.102 13.455-25.527 34.189-26.028 55.078-0.006 8.1732 0.83461 16.871 5.5323 23.822-3.6663-3.1238-7.3923-6.355-9.8604-10.552-1.9733-3.0583-3.1775-6.5159-4.2625-9.9617-2.5217-9.3238-3.1715-19.005-3.7379-28.603-0.81673 2.0806-1.7944 4.1134-2.3727 6.2715-0.69153 5.4548-0.006 10.957-0.11923 16.43-1.544 0.16693-3.0821 0.32193-4.6261 0.50077-3.1715 15.548-2.6886 31.829 1.2936 47.185 0.29212 1.9912 2.1879 3.094 3.9048 3.7379 2.17 0.77499 4.4711 0.1371 6.6352-0.2802 1.6096 6.2059 3.2311 12.43 5.4727 18.451 4.6082 12.543 11.059 24.466 19.458 34.887 9.0317 11.178 20.371 20.675 33.498 26.654 12.722 5.8184 27.065 8.1017 40.95 6.2656 11.196-1.4367 21.962-5.5442 31.53-11.5 10.999-6.9869 20.472-16.281 27.936-26.946 10.182-14.2 16.698-30.708 20.734-47.633 3.3981 0.94192 8.0838 0.65576 9.8782-2.8377 4.185-15.595 4.7454-32.192 1.4904-48.02-1.3831-0.16095-2.7662-0.32788-4.1492-0.48884-0.0477-4.8706 0.465-9.765 0.0716-14.624-0.87635-2.7304-1.9792-5.3832-3.0106-8.054-0.87038 11.947-1.2936 24.335-6.2954 35.429-2.4621 5.6038-6.9154 9.9856-11.643 13.729 1.705-2.5575 3.1-5.3356 3.8452-8.3282 2.8198-10.749 2.0269-22.165-0.70942-32.842-3.0165-11.577-8.7992-22.439-16.841-31.304-8.4057-9.3238-19.983-15.387-27.274-25.778-3.8869-5.1865-5.1508-11.774-8.8707-17.068-3.3563 3.4994-7.9765 5.258-12.418 6.9213z" fill="#4d4d4d"/>
    <g fill-opacity="0.56" fill="#f00">
     <circle id="circle4639" cx="-866.37" cy="440.61" r="5.2461"/>
     <circle id="circle4641" cy="427.26" cx="-861.6" r="7.1538"/>
     <circle id="circle4643" cy="426.78" cx="-876.39" r="4.7692"/>
     <circle id="circle4645" cx="-781" cy="439.18" r="10.492"/>
     <circle id="circle4647" cy="458.74" cx="-786.25" r="5.2461"/>
     <circle id="circle4649" cx="-756.68" cy="429.17" r="7.1538"/>
     <circle id="circle4651" cy="451.58" cx="-747.62" r="10.492"/>
     <circle id="circle4653" cx="-759.06" cy="467.8" r="4.7692"/>
    </g>
    <circle id="circle4665" cx="-815.09" stroke-linecap="round" stroke="#4096c3" cy="378.75" r="208.13" stroke-width="7.6711" fill="none"/>
    <g fill="#ffc172" fill-opacity=".31556">
     <path id="path4365" d="m-846.27 517.36c-7.7782-3.6611-19.604-12.226-26.28-19.034-12.473-12.719-28.874-41.769-28.874-51.144 0-2.9785-2.9815-6.4087-6.8482-7.8788-5.747-2.185-7.1731-5.2044-8.8689-18.777-2.1103-16.891 0.50382-29.518 6.5247-31.517 2.0519-0.68132 3.5355 1.2326 3.5355 4.5609 0 3.1542 2.8638 9.0642 6.364 13.133l6.364 7.3986v-22.312c0-19.889 0.93022-23.823 8.5677-36.232 11.221-18.232 28.851-29.72 62.791-40.916 15.2-5.014 29.064-10.24 30.81-11.612 2.105-1.6557 4.3436 0.32903 6.6491 5.8951 1.9116 4.6151 10.815 15.174 19.785 23.463 24.915 23.024 36.243 51.533 28.876 72.667-1.8697 5.3634-1.9897 8.7072-0.31246 8.7072 3.7806 0 13.93-17.238 13.943-23.681 0.009-4.3867 0.7391-4.6914 4.2532-1.775 3.0538 2.5344 4.2305 9.1703 4.1993 23.681-0.0453 21.074-1.3117 25.169-8.6132 27.85-2.4276 0.89133-6.0506 7.1624-8.0511 13.936-7.736 26.193-29.62 52.63-52.589 63.531-19.196 9.1102-42.943 9.1313-62.225 0.0551zm91.924-49.857c0-3.1113-1.8341-5.6569-4.0757-5.6569-4.9967 0-8.1913 4.6546-5.8238 8.4853 3.0759 4.9769 9.8995 3.0273 9.8995-2.8284zm-25.988-9.2249c0.65364-3.3941-0.86951-4.9173-4.9173-4.9173s-5.8642 1.8165-5.8642 5.8642c0 7.2482 9.3616 6.426 10.782-0.94698zm42.394-5.1594c1.6185-13.923-16.523-18.415-20.738-5.1343-2.4603 7.7517 3.7538 14.323 12.575 13.298 5.4836-0.63744 7.5258-2.6797 8.1633-8.1633zm-33.377-8.2432c4.2311-7.9058-1.0567-16.971-9.8995-16.971s-14.131 9.0647-9.8995 16.971c1.7522 3.274 5.9222 5.6569 9.8995 5.6569s8.1473-2.3829 9.8995-5.6569zm-90.51-1.4142c1.9366-2.3334 2.5316-4.2426 1.3222-4.2426s0.0619-2.4982 2.8251-5.5515c2.8355-3.1332 4.2558-7.5534 3.2606-10.147-1.4231-3.7086-4.0822-4.2125-13.778-2.6106-14.262 2.3561-14.632 2.6096-12.378 8.4828 1.2523 3.2635 3.5564 3.9862 8.1054 2.5424 5.6322-1.7876 5.9197-1.4919 2.5259 2.5974-3.9119 4.7135-2.6116 13.172 2.0248 13.172 1.414 0 4.1554-1.9092 6.092-4.2426zm111.72-14.103c0-6.24-8.7933-9.3474-13.404-4.7368-4.7539 4.7539-0.0648 12.267 7.0273 11.26 4.1724-0.59249 6.3766-2.8475 6.3766-6.5236z"/>
     <path id="path4367" d="m-877.42 432.5c-0.92987-0.25647-2.3128-1.1818-2.3128-1.5476 0-0.16217 0.55173-0.0643 1.2261 0.21744 1.6008 0.66884 2.8022 0.64716 4.3307-0.0781 1.6778-0.79614 2.572-2.356 2.5736-4.4893 0.001-1.539-0.14918-1.8715-1.4216-3.1439-0.78259-0.78258-1.3792-1.4556-1.3258-1.4956s1.8471-0.3431 3.9861-0.67356 4.3664-0.68437 4.9498-0.78646l1.0607-0.18561-1.092 0.69278c-1.4058 0.89183-2.4731 2.2604-2.9942 3.8395-0.41262 1.2502-0.30701 4.3303 0.18881 5.5068 0.1981 0.47003 0.0907 0.61872-0.44693 0.61872-0.38923 0-1.7188 0.31109-2.9546 0.69132-2.5778 0.79311-4.7673 1.1096-5.7678 0.83364z"/>
     <path id="path4369" d="m-869.97 446.85c-1.5801-1.2429-2.1278-2.6958-2.1205-5.6256 0.008-3.0804 0.54016-4.543 2.6966-7.4068 0.81274-1.0793 1.5252-2.0303 1.5832-2.1134s0.5414 0.26648 1.0741 0.77674c2.0053 1.9207 5.2134 2.5516 7.6975 1.5136 0.67434-0.28176 1.2261-0.42208 1.2261-0.31184 0 0.11025-0.49823 0.7679-1.1072 1.4614-0.60895 0.69355-1.3741 1.8572-1.7003 2.5859l-0.59317 1.3249-0.62732-1.1649c-0.76099-1.4131-2.8881-2.6763-4.5054-2.6755-2.8406 0.001-5.2552 2.3966-5.2552 5.2132 0 3.2846 1.7355 5.1102 5.1265 5.3928l2.1213 0.17678-1.2792 0.79549c-1.5982 0.99389-3.1207 1.014-4.3371 0.0572z"/>
     <path id="path4371" d="m-720.08 387.46c-1.4751-1.1015-2.5038-1.3204-2.7965-0.59511-0.32981 0.81736-0.21524-0.94772 0.29183-4.4958 0.27696-1.9379 0.70168-6.3644 0.94382-9.8366l0.44026-6.313 1.1972 3.119c1.7057 4.4439 1.9442 6.4144 1.6047 13.26l-0.29252 5.8984-1.3888-1.037z"/>
     <path id="path4373" d="m-721.34 438.9c4.7711-2.7167 5.877-6.0665 6.3508-19.238 0.33642-9.3511-0.0667-20.615-0.88002-24.587-0.31688-1.5475-1.0372-3.67-1.6006-4.7167l-1.0245-1.903 1.6317 0.22365c0.89744 0.12301 1.8316 0.22366 2.076 0.22366 0.79292 0 2.0361 8.582 2.4839 17.147 0.54367 10.398-2.0599 29.249-4.3884 31.775-1.2078 1.31-2.8277 1.9905-4.7259 1.9851l-1.514-0.004 1.591-0.90591z"/>
     <path id="path4375" d="m-819.8 526.17c-16.073-0.99584-31.434-7.1364-44.966-17.976l-1.3414-1.0745-0.002-1.477-0.002-1.477 0.75669 0.60205c7.251 5.769 13.82 10.088 19.16 12.598 7.785 3.6588 15.891 5.76 25.395 6.5827 2.2709 0.1966 9.0077 0.19748 11.25 0.001 11.973-1.0466 22.113-4.231 31.612-9.9275 14.362-8.6126 28.132-23.109 37.449-39.422 0.62211-1.0893 1.8266-3.3587 2.6766-5.043 2.6693-5.2896 4.1213-8.8505 6.1252-15.021 1.2979-3.9968 2.0442-5.9256 3.1329-8.0964 0.68745-1.3708 0.69682-1.3821 1.138-1.3821 0.36652 0 0.43279 0.0385 0.37622 0.21875-0.0377 0.12031-0.35343 1.2031-0.70151 2.4062-3.9267 13.573-9.3703 25.705-16.168 36.034-4.4272 6.727-8.6344 11.918-14.008 17.282-7.4205 7.4083-14.701 12.746-23.196 17.005-12.407 6.2204-25.5 8.9845-38.688 8.1674z"/>
     <path id="path4377" d="m-867.9 505.53c-3.7454-3.2804-8.9457-8.7093-12.167-12.702-8.9055-11.037-16.204-24.661-20.908-39.03-1.3106-4.0028-3.4358-11.541-3.3372-11.837 0.10018-0.30054 1.6791 1.5966 2.1788 2.6178 0.28731 0.58724 0.53626 1.4968 0.6383 2.3321 0.4478 3.6656 1.0334 5.8667 2.6239 9.8622 4.5045 11.316 14.156 27.29 22.64 37.469 1.8358 2.2028 6.4563 6.85 8.5122 8.5615l1.5468 1.2876v1.3952c0 0.76734-0.0413 1.3952-0.0918 1.3952s-0.7863-0.60833-1.6352-1.3518z"/>
     <path id="path4379" d="m-911.12 439.87c-1.5886-0.3745-3.5315-1.684-4.0695-2.7426-0.45824-0.90176-1.5954-5.9174-2.3252-10.256-1.8337-10.901-1.8732-23.126-0.10961-33.925 0.58127-3.5591 0.69373-3.9637 1.1266-4.0533 0.40075-0.083 3.6602-0.45039 3.9954-0.45039 0.1376 0 0.18114-2.1792 0.15099-7.5572-0.0488-8.7125-0.0556-8.6538 1.4223-12.382l1.0016-2.5265 0.12879 1.9078c0.83095 12.308 1.6076 18.267 3.2343 24.813 1.9653 7.9086 5.2265 13.676 10.483 18.538 1.4872 1.3756 1.799 1.7532 1.799 2.1783 0 0.28283-0.0701 0.48772-0.15577 0.45531-0.406-0.15358-7.4466-8.5848-8.5223-10.206-2.4094-3.6302-3.7961-7.0348-4.0733-10-0.25138-2.6892-0.6612-3.7898-1.6532-4.4398-1.4891-0.97571-4.1491 0.50494-5.8018 3.2295-2.1272 3.507-3.1043 8.2772-3.2518 15.877-0.10226 5.2672 0.12997 8.9173 0.93351 14.672 1.5456 11.07 3.1002 14.112 8.2821 16.208l1.4263 0.5768-0.7071 0.12704c-0.94207 0.16925-2.4963 0.14852-3.3138-0.0442z"/>
     <path id="path4381" d="m-894.94 408.66c-1.0467-2.8754-1.6242-5.4707-2.1031-9.451-0.4231-3.5168-0.42699-10.772-0.008-14.337 2.0176-17.153 9.1382-32.499 20.438-44.048 8.3021-8.4852 16.571-13.781 29.708-19.026l2.6563-1.0606 2.1631 0.012c1.4306 0.008 2.0434 0.0657 1.8095 0.17056-0.19446 0.0872-1.9446 0.84503-3.8891 1.684-10.943 4.7213-20.062 10.129-27.224 16.144-2.077 1.7445-6.3848 6.0492-8.0695 8.0638-1.9401 2.32-4.2002 5.4121-5.8136 7.9538-5.2461 8.2642-7.3799 13.291-8.2913 19.535-0.53186 3.6432-0.59549 5.5002-0.6988 20.394l-0.10774 15.533-0.57056-1.5674z"/>
     <path id="path4383" d="m-853.25 324.46c0-0.0489 2.2897-1.068 4.1094-1.829 2.282-0.95435 3.8942-1.586 7.2825-2.8532 6.6644-2.4924 10.585-3.8091 20.702-6.9533 1.2805-0.39794 3.0734-0.95519 3.9844-1.2383 1.5045-0.46762 5.9762-1.8742 6.0703-1.9095 0.0301-0.0113 0.0391 0.0887 0.0391 0.43683v0.45146l-0.49219 0.17421c-2.5729 0.9107-6.2502 2.1666-10.227 3.4926-1.8477 0.61614-3.943 1.3194-4.6562 1.5628-4.3403 1.4809-8.6486 3.0706-12.524 4.621-0.69189 0.27682-1.2658 0.50331-1.2753 0.50331-0.01 0-0.009-0.0134 0.001-0.0298 0.0618-0.10005-0.92246-0.15533-2.7916-0.15676l-1.23-0.00094-1.4418 0.57439c-2.8225 1.1244-4.8236 1.9633-6.5668 2.753-0.9455 0.42831-0.98437 0.44415-0.98437 0.40136z"/>
     <path id="path4385" d="m-776.19 321.69c-1.8366-2.042-4.414-5.1927-5.918-7.2344-1.7941-2.4354-2.8542-4.195-3.6337-6.0312-0.63288-1.4908-1.5264-3.1347-2.1909-4.031-1.0044-1.3547-2.0476-2.0211-2.9915-1.9112-0.42563 0.0496-0.73197 0.18461-1.2862 0.56697-1.4946 1.0311-8.2632 3.7539-17.453 7.0208l-1.3906 0.49435 0.001-0.44499 0.001-0.445 2.6396-0.8657c11.374-3.7302 15.372-5.5893 18.823-8.7527 0.29604-0.27134 0.54856-0.48228 0.56115-0.46875 0.11273 0.12118 1.0431 1.6182 1.3747 2.2121 0.83748 1.4996 1.4258 2.7706 3.4571 7.4688 0.67158 1.5533 1.7176 3.6904 2.3249 4.75 1.2981 2.2649 3.3442 4.9494 5.8087 7.6212 0.28731 0.31148 0.48061 0.56633 0.42955 0.56633-0.0511 0-0.30152-0.23203-0.55658-0.51563z"/>
     <path id="path4387" d="m-749.12 351.28c-4.5941-6.5738-10.059-12.786-16.65-18.925-2.0418-1.9018-5.2427-5.0727-6.9705-6.905-1.9861-2.1062-2.9458-3.1813-2.9026-3.2512 0.0251-0.0406 0.54357 0.42496 1.2703 1.1406 2.4234 2.3864 4.2644 3.9814 9.7591 8.4551 4.4571 3.6288 5.9106 4.877 8.3608 7.1797 3.624 3.4058 7.4722 8.0509 10.35 12.493l0.47576 0.73438h-1.5242-1.5242l-0.64426-0.92188z"/>
     <path id="path4389" d="m-738.23 412.8c-0.34834-1.3274 0.0901-3.9538 1.2182-7.2969 1.2825-3.8009 1.9193-6.8311 2.216-10.544 0.32015-4.0076 0.0886-8.2623-0.68917-12.663-0.11737-0.66404-0.21339-1.2336-0.21339-1.2656 0-0.0321 0.25089-0.0583 0.55753-0.0583h0.55754l0.0357 0.17187c0.23786 1.1468 0.61249 4.45 0.79922 7.0469 0.12476 1.735 0.10471 6.6492-0.0343 8.4062-0.39379 4.9778-1.3389 9.6967-2.5531 12.748-0.50789 1.2763-1.6786 3.627-1.8062 3.627-0.0235 0-0.063-0.0774-0.0878-0.17188z"/>
     <path id="path4391" d="m-737.4 413.72c-0.12929-0.022-0.24879-0.0537-0.26557-0.0705-0.0168-0.0168 0.34213-0.35381 0.79757-0.74895 4.5755-3.9698 7.508-7.7056 9.379-11.948 2.4393-5.5308 3.9679-11.547 4.9214-19.37 0.0408-0.33516 0.0941-0.60937 0.11823-0.60937 0.0242 0 0.0344 0.0773 0.0227 0.17187-0.0117 0.0945-0.12039 0.91719-0.24154 1.8281-0.32624 2.4531-0.44627 3.8337-0.34911 4.0152 0.057 0.10645 0.0605 0.19184 0.0132 0.31633-0.10267 0.27006-0.18765 1.1519-0.25411 2.6372-0.0467 1.0442-0.0981 1.543-0.21352 2.0732-0.50581 2.3237-1.5152 4.9804-3.1303 8.2393-2.9147 5.8809-6.6943 11.23-9.1101 12.893-0.71691 0.49351-1.1967 0.65629-1.6879 0.57272z"/>
     <path id="path4393" d="m-735.73 380.94c-0.01-0.0344-0.0932-0.41407-0.18475-0.84375-1.8233-8.5541-5.8956-17.816-11.679-26.562l-0.84721-1.2812 1.5056-0.0168c1.3786-0.0153 1.5125-0.007 1.588 0.0937 0.0453 0.0608 0.46187 0.74332 0.92564 1.5168 4.3375 7.2338 7.4683 15.233 9.1608 23.406 0.23646 1.1419 0.69034 3.5501 0.69034 3.6628 0 0.073-1.1383 0.0972-1.1595 0.0247z"/>
     <path id="path4395" d="m-718.43 383.39c0.00001-0.0451 0.007-0.20859 0.0154-0.36328 0.0185-0.33655 0.071-1.483 0.0934-2.0391 0.15169-3.7617 0.0247-5.8793-0.47786-7.9688-0.24542-1.0203-0.69308-2.3889-1.2334-3.7704-0.01-0.0254-0.003-0.0278 0.0711-0.0234l0.0822 0.005 0.12373 0.32032c0.45707 1.1833 0.91059 2.431 1.2494 3.4375l0.23407 0.69531 0.0218 0.27344c0.14396 1.8031 0.16659 4.1311 0.0701 7.2109-0.0493 1.574-0.0636 2.0003-0.072 2.1445l-0.009 0.16016h-0.0844-0.0844l0.00001-0.082z"/>
     <path id="path4399" d="m-722.83 383.43c0.005-0.0258 0.041-0.28616 0.0796-0.57862 0.34201-2.5872 0.62726-5.4426 0.90604-9.0698 0.0701-0.91179 0.29415-4.0307 0.31459-4.3789l0.0108-0.18359h0.0587c0.0586 0 0.0587 0.0001 0.0521 0.0586-0.004 0.0322-0.0453 0.6211-0.0926 1.3086-0.21711 3.1572-0.34035 4.7223-0.53888 6.8437-0.12049 1.2874-0.28515 2.8976-0.3514 3.4361-0.0219 0.17799-0.0387 0.2481-0.0387 0.16119 0-0.0637-0.0248-0.0632-0.0436 0.0009-0.0336 0.11438-0.0668 0.33378-0.15179 1.0034-0.13958 1.0992-0.18331 1.4131-0.19916 1.4297-0.01 0.01-0.0116-0.001-0.006-0.0312z"/>
     <path id="path4401" d="m-712.91 398.34c0-0.0437-0.15495-1.4117-0.22245-1.964-0.49949-4.0866-1.0924-6.9689-1.5219-7.3984-0.0578-0.0578-0.0864-0.0674-0.23792-0.0804-0.68426-0.0586-1.4139-0.14627-2.7957-0.3358-0.42202-0.0579-0.77255-0.10001-0.77895-0.0936-0.006 0.006 0.0784 0.17843 0.18857 0.38227 0.11012 0.20385 0.19653 0.37432 0.19203 0.37882-0.005 0.005-0.0474-0.0438-0.0952-0.10734-0.0479-0.0635-0.22529-0.25722-0.39426-0.43041-0.29801-0.30544-0.35199-0.37629-0.19612-0.2574 0.0414 0.0316 0.0782 0.054 0.0817 0.0497 0.004-0.004 0.0577-1.0618 0.12036-2.35 0.0627-1.2883 0.11999-2.4144 0.12734-2.5025l0.0134-0.1602h0.0879 0.0879l-0.0141 0.32593c-0.0349 0.80855-0.0581 1.8243-0.0713 3.1242l-0.0143 1.4062 0.0864 0.0138c0.0475 0.008 0.98116 0.11877 2.0748 0.2471s1.9911 0.236 1.9943 0.23927c0.01 0.01 0.17555 0.84255 0.32786 1.6483 0.34518 1.8263 0.64602 3.714 0.90324 5.6679 0.0953 0.72399 0.25501 2.0761 0.25512 2.16 0.00007 0.0573-0.006 0.0608-0.0994 0.0608-0.0573 0-0.0994-0.0103-0.0994-0.0242z"/>
     <path id="path4403" d="m-722.98 387.15c-0.00008-0.0215-0.003-0.0507-0.006-0.0649l-0.006-0.0259 0.0173-0.018c0.0231-0.0241 0.0475-0.0667 0.0763-0.13316 0.0411-0.0946 0.0658-0.14333 0.0954-0.18789 0.0602-0.0906 0.15321-0.17103 0.2458-0.21257 0.0357-0.016 0.0395-0.015 0.0117 0.003-0.17048 0.11068-0.31717 0.33083-0.41557 0.6237l-0.0184 0.0547-0.00016-0.0391z"/>
     <path id="path4405" d="m-722.59 440.12c-0.39494-0.0142-1.16-0.0819-1.1827-0.10457-0.0129-0.0129 0.27749-0.14852 0.45615-0.21307 0.21404-0.0773 0.78868-0.30637 1.0061-0.401 0.10648-0.0464 0.19629-0.0816 0.19958-0.0783 0.003 0.003-0.17775 0.11071-0.40232 0.23871l-0.4083 0.23271 0.90404 0.005c0.90016 0.005 1.1837-0.005 1.548-0.052 1.1088-0.14327 2.113-0.54398 2.9498-1.1769 0.32563-0.24632 0.79249-0.69143 0.96038-0.91563 0.7769-1.0374 1.664-4.0664 2.4244-8.2781l0.098-0.54296h0.0839c0.0725 0 0.0828 0.004 0.0759 0.0273-0.004 0.015-0.0263 0.12578-0.0487 0.24609-0.41233 2.2164-1.0332 4.9703-1.6315 7.2368-0.12958 0.49087-0.14356 0.52746-0.30563 0.80003-0.84979 1.4292-2.3258 2.3938-4.2583 2.7831-0.78246 0.1576-1.6249 0.22348-2.4688 0.19307z"/>
     <path id="path4407" d="m-727.97 445.3c-0.004-0.11397 1.6004-2.7096 1.6464-2.6636 0.0129 0.0129-0.45733 1.828-0.62843 2.4255-0.0552 0.19278-0.0768 0.23807-0.0788 0.16516-0.004-0.13578-0.0708-0.16516-0.37722-0.16516-0.28118 0-0.39293 0.0403-0.49627 0.17881-0.0356 0.0478-0.0652 0.0744-0.0657 0.0593z"/>
    </g>
   </g>
  </g>
 </g>
</svg>
