<?xml version="1.0" encoding="UTF-8" standalone="no"?>
<svg id="svg9403" xmlns:rdf="http://www.w3.org/1999/02/22-rdf-syntax-ns#" xmlns="http://www.w3.org/2000/svg" viewBox="0 0 433.58344 433.70233" height="122.4mm" width="122.37mm" version="1.1" xmlns:cc="http://creativecommons.org/ns#" xmlns:dc="http://purl.org/dc/elements/1.1/">
 <metadata id="metadata9408">
  <rdf:RDF>
   <cc:Work rdf:about="">
    <dc:format>image/svg+xml</dc:format>
    <dc:type rdf:resource="http://purl.org/dc/dcmitype/StillImage"/>
    <dc:title/>
   </cc:Work>
  </rdf:RDF>
 </metadata>
 <g id="layer1" transform="translate(91.077 -446.94)">
  <g id="g4684" transform="matrix(.99988 0 0 1.0231 1146 -1256.3)">
   <circle id="circle4554" cx="-1015.6" stroke-linecap="round" stroke="#4096c3" cy="1876.8" r="208.13" stroke-width="7.6711" fill="none"/>
   <g id="g4590" transform="matrix(.72737 0 0 .72737 -1236.5 1666.7)" stroke="#000" stroke-width="2" fill="#f4d7d7">
    <g id="#fcf2e1ff">
     <path id="path4559" d="m0 0h0.11c-0.03 0.04-0.08 0.12-0.11 0.16v-0.16z"/>
     <path id="path4561" d="m504.88 432.83c1.61-3.52 3.59-6.9 6-9.92-0.83 3.84-3.24 7.22-6 9.92z"/>
     <path id="path4563" d="m503.32 435.46c0.08-1.12 0.6-2 1.56-2.63 0.65 1.51 0.13 2.39-1.56 2.63z"/>
     <path id="path4565" d="m502.39 437.72c0.23-0.56 0.7-1.69 0.93-2.26-0.03 0.52-0.08 1.54-0.11 2.05l-0.82 0.21z"/>
     <path id="path4567" d="m501.24 439.6c0.28-0.47 0.86-1.41 1.15-1.88-0.07 0.46-0.19 1.38-0.25 1.84l-0.9 0.04z"/>
     <path id="path4569" d="m499.32 442.98c0.51-1.2 1.18-2.31 1.92-3.38 1.23 1.34-0.1 3.83-1.92 3.38z"/>
     <path id="path4571" d="m498.7 443.79c0.16-0.21 0.46-0.61 0.62-0.81-0.16 0.2-0.46 0.6-0.62 0.81z"/>
     <path id="path4573" d="m497.97 444.54c0.18-0.19 0.55-0.57 0.73-0.75-0.18 0.18-0.55 0.56-0.73 0.75z"/>
     <path id="path4575" d="m496.22 446.47c0.44-0.49 1.31-1.45 1.75-1.93-0.22 0.48-0.65 1.44-0.86 1.92l-0.89 0.01z"/>
     <path id="path4577" d="m494.87 448.91c0.14-0.58 0.4-1.74 0.54-2.32l0.81-0.12c0.55 1.38 0.1 2.2-1.35 2.44z"/>
     <path id="path4579" d="m490.83 454.83c0.69-2.38 1.59-4.86 4.04-5.92-0.91 2.11-2.43 4.27-4.04 5.92z"/>
    </g>
    <g id="#69321fff">
     <path id="path4582" d="m239.61 31.58c7.52-2.25 15.39-3.19 23.25-2.78 0.69 12.37 2.41 24.72 5.62 36.7 2.43 8.71 5.8 17.41 11.69 24.41 6.78 8.49 13.89 16.72 21.2 24.76 3.56 3.85 7.8 7.09 12.49 9.42 4.74 2.38 10.86 3.49 15.49 0.26 5.27-3.55 6.86-10 9.59-15.36 4.04-8.31 11.41-14.95 20.25-17.76 13.87-4.47 28.82-2.87 42.84 0.01 18.22 4 33.67 16.6 43.23 32.36 13.8 22.53 18.46 49.36 19.33 75.41 0.34 19.47-1.66 38.97-5.81 57.99-5.44 24.87-17.47 48.31-34.81 66.98-28.06 30.43-69.31 49.26-110.94 47.77-29.29-1.85-56.93-12.54-85.03-20.06-11.79-3.09-23.77-6.05-36.03-6.22-6.33-0.22-12.35 2.55-17.48 6.04-9.36 7.05-16.64 17.01-19.86 28.32-3.69 12.72-2.47 26.46 1.64 38.91 5.41 16.04 15.59 30.72 29.67 40.29 8.24 5.62 18.11 8.27 27.88 9.64 17.07 2.12 34.44-1.77 49.92-8.96 19.88-9.17 37.17-23.02 53-37.96 5.74-5.26 10.94-11.1 17.1-15.89 9.74-7.63 20.87-13.34 32.38-17.82 20.61-7.86 42.69-11.84 64.75-11.83 16.73 0.35 33.96 2.76 48.8 10.94 13.07 7.37 25.02 17.33 33.11 30.09 0.03 2.02-1.36 3.79-2 5.67-2.41 3.02-4.39 6.4-6 9.92-0.96 0.63-1.48 1.51-1.56 2.63-0.23 0.57-0.7 1.7-0.93 2.26-0.29 0.47-0.87 1.41-1.15 1.88-0.74 1.07-1.41 2.18-1.92 3.38-0.16 0.2-0.46 0.6-0.62 0.81-0.18 0.18-0.55 0.56-0.73 0.75-0.44 0.48-1.31 1.44-1.75 1.93l-0.81 0.12c-0.14 0.58-0.4 1.74-0.54 2.32-2.45 1.06-3.35 3.54-4.04 5.92-1.33 0.33-2.04 1.18-2.14 2.55-1.02-0.18-2.04-0.36-3.05-0.54-3.11-15.08-14.29-27.8-27.84-34.69-12.11-5.41-25.78-5.21-38.75-4.41-18.31 1.7-36.74 6.22-52.69 15.62-8.34 4.69-14.5 12.15-21.51 18.5-23.56 22.33-50.53 42.19-81.72 52.27-23.9 7.8-50.18 8.64-74.27 1.16-22.83-6.48-42.28-22.17-55.68-41.5-16.8-24.1-25.18-54.57-20.63-83.8 3.32-21.7 14.65-41.92 31.08-56.43 10.55-9.69 23.85-16.16 37.87-18.97 6.26-1.5 12.77-1.4 19.02-2.94 22.22-4.89 44.25-12.85 62.63-26.55 8.95-6.67 16.12-15.34 22.75-24.24 10.72-14.89 19.86-31.76 21.89-50.26 0.62-6.82-0.03-14.05-3.09-20.24-5.61-7.05-11.73-13.68-17.5-20.6-11.79-12.25-23.36-24.72-34.16-37.87-4.51-5.53-9.2-10.97-12.72-17.21-8.96-15.5-13.57-33.1-16.28-50.67-1.06-6.27-1.33-12.64-2.39-18.9 3.41-1 6.97-1.18 10.43-1.9 2.55-0.33 5.17-0.53 7.53-1.63m194.67 115.65c-1.2 23.36-2.71 46.77-6.4 69.89-4.3 20.6-13.07 40.02-23.5 58.19-10.74 17.9-23.66 35.12-41.01 47.09-10.13 7.07-22 11.18-33.93 14-23.73 5.44-48.42 5.37-72.43 2 14.3 4.57 29.09 7.61 43.97 9.66 20.45 2.87 41.59 1.14 61.14-5.6 22.4-7.51 42.15-22.16 56.55-40.81 16.21-21.01 26.68-46.37 30.27-72.65 2.98-23.8-0.6-47.96-7.03-70.92-1.06-3.21-1.67-6.62-3.27-9.63-1.42-0.52-2.9-0.85-4.36-1.22z" stroke="#000" stroke-width="2" fill="#f4d7d7"/>
    </g>
   </g>
  </g>
 </g>
</svg>
