<?xml version="1.0" encoding="UTF-8" standalone="no"?>
<svg id="svg13239" xmlns:rdf="http://www.w3.org/1999/02/22-rdf-syntax-ns#" xmlns="http://www.w3.org/2000/svg" viewBox="0 0 423.93029 423.93028" height="119.64mm" width="119.64mm" version="1.1" xmlns:cc="http://creativecommons.org/ns#" xmlns:dc="http://purl.org/dc/elements/1.1/">
 <metadata id="metadata13244">
  <rdf:RDF>
   <cc:Work rdf:about="">
    <dc:format>image/svg+xml</dc:format>
    <dc:type rdf:resource="http://purl.org/dc/dcmitype/StillImage"/>
    <dc:title/>
   </cc:Work>
  </rdf:RDF>
 </metadata>
 <g id="layer1" transform="translate(-339.46 -968.97)">
  <g id="g4747" transform="translate(2527.9 162.11)">
   <circle id="circle4996" stroke-width="7.6711" stroke-linecap="round" stroke="#4096c3" cy="1018.8" cx="-1976.5" r="208.13" fill="none"/>
   <g id="g5717" transform="matrix(-1.4018 0 0 1.4018 -1817.6 867.55)" stroke="#000" stroke-width="1.7835" fill="#ccc">
    <g id="#000000ff-4" stroke="#000" stroke-width="1.7835" fill="#ccc">
     <path id="path5709" d="m59.74 22.72c16.24-14.81 38.82-20 60.25-20.65 21.24-0.04 43.46 4 60.95 16.76 16.72 11.89 27.57 31.09 30.42 51.28 2.79 17.94-0.36 36.85-9.52 52.6-4.7 8.36-10.8 15.81-17.24 22.88-3.79 3.99-6.04 9.17-7.45 14.43-5.16 21.03-3.06 44.12 7.99 62.99-35.43-0.22-70.87-0.2-106.3-0.01-2.17-7.68-2.03-15.75-3.45-23.55-0.58-2.98-3.2-5.46-6.33-5.29-9.35-0.11-18.48 3.89-27.87 2.27-5.36-0.54-10.82-3.96-12.15-9.44-1.53-6.62 1.45-12.99 3.75-19.02-1.52-3.59-7.87-4.32-6.83-8.99 1.92-2.25 4.89-3.17 7.76-3.4-3.03-0.91-6.71-0.81-9.09-3.12-1.34-3.88 1.6-7.61 1.94-11.44-2.91-4.28-9.09-3.64-12.91-6.72-1.27-1.28-2.18-3.38-1.3-5.12 2.84-7.01 7.48-13.08 11.33-19.54 2.57-4.39 5.7-8.4 8.5-12.63 2.31-3.15-3.32-4.68-3.01-7.94 2.26-24.67 12.38-49.17 30.56-66.35z" stroke="#000" stroke-width="1.7835" fill="#ccc"/>
    </g>
   </g>
   <g id="g5675" transform="matrix(-2.3564 0 0 2.3564 -1789.5 889.5)" stroke="#000" stroke-width=".42437" fill="#ff8080">
    <g id="#9ac036ff-3" stroke="#000" stroke-width=".42437" fill="#ff8080">
     <path id="path5667" d="m91.38 42.41c6.5-1.2 12.87 5.14 12.12 11.65-0.57 6.05-2.09 13.5-8.13 16.43-2.39 1.13-4.49 2.74-5.97 4.95-0.76 0.85-1.94 2.76-3.23 1.5-3.07-1.99-0.35-5.55 0.47-8.05 1.2-2.1-0.27-4.8-2.68-4.93-4.59-0.6-9.44 0.39-13.55 2.48-3.42 1.86-3.61 6.31-2.51 9.61 4.41 14.47 9.56 28.85 11.47 43.94-5.28 0.02-10.55 0.01-15.82 0.01-0.45-8.36 0.19-16.84-1.51-25.08-0.91-4.8-4.05-9.61-9.08-10.72-10-2.37-13.413 0.0099-23.513 0.06992-0.4 0.35 0.33788-0.5529-0.07212-0.1929-0.01-1.59-1.3528-0.95695-1.3728-2.537 4.93 1.72 3.1082-0.37008 8.0582-1.1501 5.57-1.24 11.13-2.59 16.83-3.1 1.32-0.23 3.53-0.41 3.56-2.17 0.61-4.69-4.42-7.72-8.45-8.33-4.77-0.05-9.11 2.8-13.93 2.41-3.36-0.26-6.7 0.01-10.05 0.18-2.21-0.31-2.56-3.09-0.95-4.37 4.37-4.81 7.75-11.31 14.33-13.38 4.4-1.44 9.01-3.06 13.7-2.49 5.84 0.98 5.19 9.27 10.57 11.17 4.71 1.32 9.77 0.71 14.53-0.04 4.49-0.7 8.41-4.09 9.47-8.56 1.18-3.39 1.43-8.37 5.71-9.3z" stroke="#000" stroke-width=".42437" fill="#ff8080"/>
    </g>
   </g>
  </g>
 </g>
</svg>
