<?xml version="1.0" encoding="UTF-8" standalone="no"?>
<svg id="svg12143" xmlns:rdf="http://www.w3.org/1999/02/22-rdf-syntax-ns#" xmlns="http://www.w3.org/2000/svg" viewBox="0 0 423.93029 423.93028" height="119.64mm" width="119.64mm" version="1.1" xmlns:cc="http://creativecommons.org/ns#" xmlns:dc="http://purl.org/dc/elements/1.1/">
 <metadata id="metadata12148">
  <rdf:RDF>
   <cc:Work rdf:about="">
    <dc:format>image/svg+xml</dc:format>
    <dc:type rdf:resource="http://purl.org/dc/dcmitype/StillImage"/>
    <dc:title/>
   </cc:Work>
  </rdf:RDF>
 </metadata>
 <g id="layer1" transform="translate(-228.03 -360.4)">
  <g id="g16234" transform="translate(3516.6 -1125.3)">
   <circle id="circle4992" stroke-width="7.6711" stroke-linecap="round" stroke="#4096c3" cy="1697.6" cx="-3076.6" r="208.13" fill="none"/>
   <g>
    <path id="path5760" d="m-3002.5 1571.1c-22.765-20.76-54.417-28.036-84.457-28.947-29.774-0.056-60.921 5.6071-85.438 23.494-23.438 16.667-38.647 43.581-42.642 71.883-3.9109 25.148 0.5046 51.655 13.345 73.733 6.5884 11.719 15.139 22.162 24.167 32.073 5.3126 5.5931 8.4666 12.854 10.443 20.228 7.2332 29.479 4.2894 61.846-11.2 88.298 49.665-0.3085 99.344-0.2804 149.01-0.014 3.0418-10.766 2.8456-22.078 4.8361-33.012 0.8131-4.1773 4.4857-7.6537 8.8733-7.4153 13.106-0.1543 25.905 5.4529 39.067 3.182 7.5135-0.757 15.167-5.551 17.032-13.233 2.1448-9.2798-2.0326-18.209-5.2566-26.662 2.1306-5.0324 11.032-6.0556 9.5741-12.602-2.6915-3.154-6.8547-4.4436-10.878-4.7661 4.2473-1.2756 9.4059-1.1354 12.742-4.3735 1.8784-5.4388-2.2428-10.668-2.7194-16.036 4.0792-5.9996 12.742-5.1025 18.097-9.4199 1.7803-1.7943 3.0559-4.7381 1.8223-7.1771-3.981-9.8264-10.485-18.335-15.882-27.391-3.6026-6.1538-7.9902-11.775-11.915-17.704-3.2381-4.4156 4.6539-6.5603 4.2193-11.13-3.1679-34.582-17.354-68.925-42.838-93.008z" stroke="#000" stroke-width="2.5" fill="#ccc"/>
    <path id="path5880" d="m-3022 1657.2c13.598-10.248 33.66-9.8352 47.491-0.2225 3.1583 2.2362 6.0304 5.0659 7.7261 8.5951 0.8373 1.8441-0.7312 3.4233-2.5117 3.5081-2.1409-0.9751-3.2855-3.2007-4.907-4.7904-2.7662-3.2961-6.6557-5.2674-10.46-7.1009 3.1159 4.1757 4.7268 9.6126 3.1901 14.742-2.1409 7.1008-9.867 12.368-17.296 10.757-7.1326-1.0598-12.994-7.6201-12.856-14.901-0.2331-4.6739 2.2045-8.8814 5.2885-12.199-6.4543 2.0984-13.364 4.7692-17.222 10.736-2.2151 2.9569-2.3846 6.7723-3.5928 10.143-1.2188 2.3845-4.7269 1.1022-4.4619-1.4202 0.064-7.0691 4.0697-13.651 9.6126-17.848z" fill="#fff"/>
    <path id="path4566" opacity="0.704" d="m-3000.9 1682c-3.163-0.9284-7.4348-4.7804-8.9146-8.0385-2.2817-5.0236-1.3728-12.406 1.984-16.115 4.1329-4.5668-7.8814 0.4665-12.973 5.4349-3.0016 2.9291-3.914 4.4306-5.1533 8.4815-0.8282 2.7073-1.8643 5.1439-2.3025 5.4147-3.3764 2.0866-3.7032-4.9068-0.5264-11.264 4.9138-9.8334 16.164-15.664 30.259-15.681 7.5821-0.01 13.328 1.273 19.374 4.3249 6.877 3.4715 13.316 10.324 12.268 13.055-0.7406 1.9298-2.9898 0.9564-6.8151-2.9495-3.1116-3.1772-10.582-8.2138-10.582-7.1343 0 0.1412 0.5192 1.2976 1.1538 2.5697 3.1009 6.2159 2.4561 12.512-1.7604 17.189-4.3092 4.7797-10.039 6.4666-16.01 4.7137z" stroke="#000" stroke-linecap="round" stroke-width="2"/>
   </g>
  </g>
 </g>
</svg>
