<?xml version="1.0" encoding="UTF-8" standalone="no"?>
<svg id="svg4433" xmlns:rdf="http://www.w3.org/1999/02/22-rdf-syntax-ns#" xmlns="http://www.w3.org/2000/svg" viewBox="0 0 423.93029 423.93028" height="119.64mm" width="119.64mm" version="1.1" xmlns:cc="http://creativecommons.org/ns#" xmlns:dc="http://purl.org/dc/elements/1.1/">
 <metadata id="metadata4438">
  <rdf:RDF>
   <cc:Work rdf:about="">
    <dc:format>image/svg+xml</dc:format>
    <dc:type rdf:resource="http://purl.org/dc/dcmitype/StillImage"/>
    <dc:title/>
   </cc:Work>
  </rdf:RDF>
 </metadata>
 <g id="layer1" transform="translate(643.39 -454.68)">
  <g id="g4981" transform="translate(2698.2 287.89)">
   <g id="g4568">
    <g fill-opacity=".85098" stroke="#000" stroke-width="2" fill="#b5ff96">
     <path id="path4601" d="m-3181 224.56c16.096-5.802 35.371 4.4304 39.689 20.95 5.3371 16.568-6.1013 35.819-23.144 39.109-16.388 4.1391-34.412-7.5863-37.336-24.203-3.3843-15.003 6.1255-31.365 20.791-35.856z"/>
     <path id="path4603" d="m-3099.8 224.46c14.24-4.8552 31.15 2.4276 37.481 16.059 5.8102 11.628 3.3357 26.789-6.0892 35.807-10.856 11.313-30.446 12.041-42.139 1.6022-11.123-9.1157-14.253-26.255-7.1323-38.745 3.8087-6.9308 10.322-12.357 17.879-14.723z"/>
     <path id="path4605" d="m-3216.3 314.06c9.5826-12.235 22.744-21.885 37.457-26.934 2.5352 2.6704 5.0582 5.3286 7.5933 7.9868 2.6322-2.6218 5.2523-5.2558 7.8602-7.9019 12.712 3.7385 23.338 12.017 32.751 21.084 9.6432-8.5816 20.099-16.957 32.508-21.06 2.5837 2.634 5.1795 5.2679 7.7874 7.8776 2.5351-2.6461 5.046-5.3043 7.5569-7.9747 7.6297 2.2455 14.447 6.4939 20.876 11.082 10.747 6.9915 19.675 16.872 25.182 28.476 4.0393 8.1446 6.1741 17.03 7.9208 25.903-8.3938-2.0392-17.321 0.37628-23.58 6.3118-1.2009-7.4042-2.9112-14.736-5.9558-21.606 0.2305 9.5527-0.7399 19.19 0.934 28.646-1.1402 5.013-2.5594 10.208-1.1402 15.343 1.0796 5.1708 4.3304 9.5041 7.9936 13.182-15.247 10.888-23.738 29.386-25.012 47.8-0.3397 4.8431-1.1766 10.427 2.1955 14.469 2.3411 3.3744 6.5501 4.2726 10.335 4.9523-1.4798 8.3874-2.9718 16.775-4.4516 25.174h7.4962c-0.073 7.8048 0.1699 15.622-0.073 23.426-0.061 4.9887-2.4745 10.014-6.8656 12.563-6.0285 3.9327-14.883 2.0999-18.923-3.8356-2.2197-2.8403-2.6321-6.5546-2.7777-10.026-0.1698-16.119 0.279-32.263-0.2183-48.37-2.6929 0.87394-1.5648 3.9085-1.8802 5.9477 0.061 14.202 0.061 28.403 0.024 42.605 0 4.9281-1.7346 10.184-5.9679 13.036-5.9315 4.6246-15.393 3.1559-19.723-2.9617-2.5109-3.1802-2.9233-7.3921-2.9718-11.301 0.024-16.508 0.036-33.016 0.012-49.523-6.7078-1.7964-14.01-3.253-19.238-8.1811-2.1228-2.0513-1.213-5.2072-0.9704-7.7684 2.6079-17.139 6.7442-34.011 10.213-50.992-0.655-0.2549-1.9408-0.7647-2.5958-1.0196-3.1537 1.9421-6.5137 3.5564-10.226 4.0905-0.1698 38.198 0 76.397-0.085 114.58 0.1092 5.1344-1.868 10.56-6.3803 13.364-5.8466 4.1876-14.726 2.7796-19.044-2.9617-2.7535-3.1923-3.1901-7.5863-3.2265-11.628 0.012-32.287 0.024-64.562 0-96.85-0.4973-0.0364-1.492-0.0971-1.9893-0.13352-0.1577 33.137 0.1213 66.286-0.097 99.423 0.085 6.8944-5.0702 13.485-12.008 14.396-4.5851 1.2745-8.8912-1.141-12.421-3.7992 0.5579-20.659 0.1334-41.342 0.2304-62.013 3.1053 1.141 6.441 2.5611 9.801 1.5173 5.0824-1.0196 9.0003-5.8141 9.1944-10.973 0.4246-20.076-7.2779-41.087-23.496-53.614-1.0432-5.4743 3.93-9.0429 4.9611-14.044 2.3896-8.3146-0.4731-17.418-6.4652-23.475-0.085-5.9355 0.036-11.871-0.1092-17.807-1.6133 4.928-2.5594 10.026-3.178 15.16-7.278-4.3697-16.436-4.9766-24.151-1.3352 1.5041-14.299 5.5191-28.731 14.338-40.311z"/>
    </g>
    <g stroke="#000" fill="#87e6ee">
     <path id="path4607" d="m-3224.6 358.17c9.898-4.1027 22.258 2.5733 24.236 13.097 2.3774 9.5162-4.3061 19.955-13.913 21.812-9.4491 2.3305-19.869-4.3454-21.688-13.91-2.0863-8.5816 3.0567-18.074 11.366-20.999z"/>
     <path id="path4609" d="m-3041.4 358.15c9.3037-3.7749 20.851 1.6265 23.944 11.167 3.5298 9.1278-1.7224 20.319-10.941 23.524-9.3522 3.8114-20.997-1.7236-24.017-11.337-3.3721-9.1157 1.868-20.149 11.014-23.354z"/>
     <path id="path4611" d="m-3246.7 418.18c4.9611-10.305 12.918-19.955 24.078-23.718 1.4799 1.578 2.9718 3.1559 4.4638 4.7338 1.5648-1.5537 3.1416-3.1195 4.7064-4.661 11.341 4.1027 19.917 13.692 25.024 24.373 4.4517 9.5284 6.538 20.161 6.162 30.649-0.4124 4.7945-6.8655 7.1372-10.371 3.957-3.0204-2.4155-2.2319-6.7124-2.705-10.099-0.2062-5.9841-2.2198-11.677-4.0271-17.309-0.1577 7.829 0.024 15.658-0.073 23.487-0.036 4.1148-1.8316 7.9868-1.7588 12.126 0.048 17.819 0.012 35.65 0.036 53.48 0.2183 3.7507-1.1039 8.0354-4.8399 9.6255-5.0339 2.634-11.875-1.3716-11.79-7.125-0.5458-17.151 0.376-34.363-0.4609-51.502-1.4799 4.0298-0.7642 8.3753-0.8855 12.575-0.085 12.915 0.1698 25.83-0.1092 38.745 0.024 4.8431-4.7792 8.9215-9.5583 7.9868-4.3546-0.49766-7.2779-4.7824-7.0839-8.9943-0.194-19.858 0.1335-39.728-0.1455-59.598-1.3586-9.4191-0.6065-18.935-0.8613-28.403-2.5351 6.7245-2.4017 13.935-3.4934 20.926-1.31 6.0084-10.82 6.0569-12.251 0.0971-0.7278-10.694 1.4556-21.618 5.9436-31.353z"/>
     <path id="path4613" d="m-3069.2 436.49c2.8384-17.188 12.554-35.237 29.718-41.5 1.5163 1.6022 3.0325 3.2044 4.5609 4.8188 1.5526-1.5901 3.1295-3.1559 4.7063-4.7338 12.045 4.3818 21.07 14.723 26.164 26.242 4.015 9.2978 5.8951 19.542 5.5555 29.653-0.4367 4.6246-6.6229 7.125-10.201 4.1998-3.4206-2.3426-2.6685-6.943-3.1052-10.499-0.1577-6.069-2.1955-11.835-4.112-17.527 0.1334 7.1129-0.6065 14.335 0.9097 21.363 1.9772 10.815 3.8573 21.654 5.786 32.481-2.8263-0.0121-5.6404 0-8.4546 0 0 11.81-0.012 23.633 0.024 35.443-0.085 2.9981 0.012 6.421-2.1713 8.7758-3.1537 3.872-9.7281 3.872-12.821-0.0728-2.1713-2.3912-2.0257-5.8263-2.1106-8.8244 0.048-10.111-0.024-20.21 0.073-30.321 0.061-1.9785-0.1092-3.9934-0.9826-5.8141-0.8005 13.582 0.2305 27.214-0.5094 40.796-0.5095 5.7413-7.7995 9.1278-12.579 5.9719-3.3478-1.8086-4.3546-5.8141-4.2091-9.3584-0.024-12.199 0.012-24.398-0.012-36.596-2.5594 0-5.1188-0.0121-7.6782-0.0121 1.9772-11.24 3.9543-22.48 5.98-33.72 1.1038-5.6928 0.8127-11.519 0.6429-17.272-2.6807 6.773-2.2562 14.129-3.5662 21.157-1.5041 5.4014-9.8858 5.802-12.009 0.6676-1.3828-4.9766-0.024-10.269 0.4003-15.318z"/>
    </g>
    <circle id="path4655" stroke-width="7.6711" stroke-linecap="round" stroke="#4096c3" cy="378.75" cx="-3129.6" r="208.13" fill="none"/>
   </g>
  </g>
 </g>
</svg>
