<?xml version="1.0" encoding="UTF-8" standalone="no"?>
<!-- Created with Inkscape (http://www.inkscape.org/) -->
<svg id="svg5640" xmlns:rdf="http://www.w3.org/1999/02/22-rdf-syntax-ns#" xmlns="http://www.w3.org/2000/svg" height="119.64mm" width="119.64mm" version="1.1" xmlns:cc="http://creativecommons.org/ns#" xmlns:dc="http://purl.org/dc/elements/1.1/" viewBox="0 0 423.93029 423.93028">
 <metadata id="metadata5645">
  <rdf:RDF>
   <cc:Work rdf:about="">
    <dc:format>image/svg+xml</dc:format>
    <dc:type rdf:resource="http://purl.org/dc/dcmitype/StillImage"/>
    <dc:title/>
   </cc:Work>
  </rdf:RDF>
 </metadata>
 <g id="layer1" transform="translate(-248.03 -403.25)">
  <g id="g5623" transform="translate(2432.3 236.47)">
   <path id="path4631" d="m-1994 221.77c17.158-3.896 35.977 5.3047 43.802 20.977 5.965 11.578 5.8109 26.061-0.4953 37.463-5.7559 10.576-16.431 18.39-28.35 20.338-17.499 3.3347-36.352-6.6254-43.428-22.969-6.9775-14.902-3.4447-33.853 8.4964-45.2 5.4478-5.3597 12.48-9.0906 19.975-10.609z" stroke="#000" stroke-width="2.5" fill="#87e6ee"/>
   <path id="path4633" d="m-1980.4 311.76c-5.7731-0.007-11.545 0.0115-17.318 0.0556-7.0414 0.077-13.099 4.568-16.297 10.093-3.0302 4.8755-3.6976 10.554-4.5841 16.002-10.668 63.994-21.518 127.97-32.116 191.97h145.44c-2.7179-14.902-5.5912-29.788-8.3598-44.682 18.156-4.7985 33.386-17.84 39.768-34.184 6.072-15.254 4.4682-32.973-4.6582-46.917-8.8732-14.164-24.967-24.201-42.534-26.644 5.103-4.9195 7.2319-12.283 4.7171-18.776-3.0773-8.8595-13.602-14.229-23.456-12.93-1.8082-7.9791-2.023-16.443-5.9987-23.872-3.125-5.9871-10.048-10.015-17.28-10.015-5.7767-0.0605-11.551-0.0925-17.324-0.0994zm-3.3295 28.187c5.3713 0.0768 10.728 2.2663 13.576 6.5916 3.1509 4.6224 1.7727 10.268 2.1792 15.408 0.6124 12.954 4.4211 26.633 14.455 36.208 8.3225 6.9556 20.034 9.4212 31.024 9.3551 5.1269 0.055 10.849-0.94567 15.305 2.0479 8.9085 5.4698 8.6458 19.226-0.2274 24.63-4.7179 3.1696-10.825 2.4882-16.309 2.4992-18.321-0.31917-37.374-4.8758-51.43-16.124-8.2161-6.5043-14.191-15.155-17.843-24.499-5.5302-13.878-8.1077-28.88-6.765-43.638 0.5031-5.5138 4.9931-10.356 10.753-11.853 1.7008-0.44297 3.4926-0.6521 5.283-0.62649z" stroke="#000" stroke-width="2.5" fill="#87e6ee"/>
   <circle id="circle4661" stroke-width="7.6711" stroke-linecap="round" cy="378.75" stroke="#4096c3" cx="-1972.3" r="208.13" fill="none"/>
  </g>
 </g>
</svg>
