<?xml version="1.0" encoding="UTF-8" standalone="no"?>
<svg id="svg9951" xmlns:rdf="http://www.w3.org/1999/02/22-rdf-syntax-ns#" xmlns="http://www.w3.org/2000/svg" viewBox="0 0 423.93029 423.93028" height="119.64mm" width="119.64mm" version="1.1" xmlns:cc="http://creativecommons.org/ns#" xmlns:dc="http://purl.org/dc/elements/1.1/">
 <metadata id="metadata9956">
  <rdf:RDF>
   <cc:Work rdf:about="">
    <dc:format>image/svg+xml</dc:format>
    <dc:type rdf:resource="http://purl.org/dc/dcmitype/StillImage"/>
    <dc:title/>
   </cc:Work>
  </rdf:RDF>
 </metadata>
 <g id="layer1" transform="translate(324.11 -320.4)">
  <g id="g4675" transform="translate(1282.3 -486.46)">
   <g fill="#666">
    <path id="path4443" d="m-1386.7 869.15h14.4c-1.9344 17.194-6.2329 34.087-6.7057 51.453 8.7689-9.5856 13.626-21.836 21.45-32.067 3.224-6.1469 15.776-2.2781 12.982 4.4276-4.7282 9.6286-11.133 18.312-16.506 27.51 3.9548 8.2102 7.3076 16.635 10.102 25.275-11.047 0.55881-22.997-2.3641-33.314 2.6652-12.251 7.2216-13.239 22.911-16.162 35.334-11.735 0.387-23.384 1.5906-34.99 3.181 0.043-7.8233-0.3008-15.69 0.6018-23.513 3.9976-13.325 19.472-16.248 28.413-25.017 2.966-13.326-6.6626-28.026-21.407-25.275-4.7282-10.488-9.1558-21.106-13.54-31.766 5.5021-2.9229 10.961-5.803 16.463-8.726 9.6286 16.034 16.979 33.271 24.888 50.207 8.5541-16.678 8.0382-35.979 13.325-53.688z"/>
    <path id="path4447" d="m-1484.7 890.08c0.9887-11.047 15.647-14.4 24.373-10.746 11.262 12.81 16.463 29.574 23.599 44.834 5.7171-2.0204 11.434-4.0407 17.28-5.5021 7.1356 2.751 6.4048 11.735 8.2961 17.753-11.391 4.8144-22.782 11.692-28.542 23.083-2.794 9.6288-2.0203 19.816-2.4072 29.746-11.95 3.9117-22.739 10.402-32.712 18.054-1.8482-20.676 4.2556-40.621 6.4909-60.953-1.5045-19.687-12.38-37.096-16.377-56.268z"/>
    <path id="path4465" d="m-1394.8 984.26c2.4502-11.004 2.837-24.716 13.583-31.164 10.058-3.8686 21.063-0.85967 31.465-0.77369 1.9342 7.0925 3.7826 14.185 5.545 21.321-10.23 2.6652-22.782 5.1582-22.094 18.441-9.2849-3.2669-18.828-5.76-28.499-7.8233z"/>
   </g>
   <path id="path4469" d="m-1470 1012.8c13.154-16.377 35.377-20.031 54.892-23.169-4.6425 17.366-11.391 35.893-26.737 46.639-10.703 7.2645-19.601 16.721-25.06 28.585l5.2013-0.042c0.6448 14.701 16.85 17.839 24.846 27.64 5.2872 7.5223 14.916 7.3934 23.126 7.9953-7.7373-7.6084-24.029-4.7715-23.384-19.859 4.9004 0.6879 14.701 2.1064 19.601 2.8371-7.9953-11.606-22.352-2.0632-33.099-5.9749-7.0494-6.2329-4.1694-16.119-5.0721-24.33 6.1038-5.3301 12.294-10.574 18.527-15.776-3.0949 15.991 12.208 21.88 24.931 18.527-3.9116-4.7714-10.488-3.1809-15.776-4.2556l0.258-4.7284c2.2781-1.5045 6.8776-4.5134 9.1558-5.975-3.6968 0.5589-11.09 1.7195-14.787 2.3213 4.5565-18.699 20.117-33.228 22.009-53.216 14.658-0.90274 29.015 2.3641 42.899 6.7486 6.5338 12.681 11.907 26.221 13.454 40.535-1.6335 14.099-12.982 24.244-17.323 37.397-4.0408 2.708-7.4365 6.018-10.188 9.9725 11.649-2.1061 18.011-11.95 19.215-23.169 8.597 7.5655 19.945 14.658 21.794 26.909 1.0316 14.486-3.224 28.628-7.2216 42.384 1.1176 0.086 3.3099 0.301 4.3845 0.387 1.2466-4.9864 3.7827-14.959 5.0723-19.902 5.459 9.1128 6.9206 22.782 17.022 28.413-3.7397-11.262-10.101-21.321-14.486-32.282-2.2352-9.0698 1.0316-19.085-3.138-27.811-3.3097-5.8891-8.9409-10.016-13.282-15.131-8.5541-7.6083 1.8913-18.699 3.1809-27.253 11.391 14.314 16.979 33.013 33.142 43.458-3.052-12.423-16.162-18.441-19.644-30.691-2.708-7.7804-8.4681-13.626-14.873-18.527-2.794-10.875-6.4048-21.536-10.402-32.024 56.354 28.929 80.468 101.19 60.738 159.82-3.6537 8.812-9.8006 18.613-20.289 19.601-18.871-0.1718-35.377-10.531-53.388-14.658-25.447-5.5881-52.485-4.1697-76.814-14.4-23.943-10.617-36.408-36.924-38.601-61.899-2.1921-26.135 3.1809-54.376 20.117-75.095m1.4616 73.032c4.7284 10.789 3.5248 22.868 7.1785 34.001 2.0204-7.5224 0.9027-15.389 1.0316-23.04 11.176 6.6197 16.979 18.699 26.909 26.522-4.7284-16.85-21.063-25.447-32.11-37.655 0.5588-5.0724 1.7195-15.303 2.2783-20.375-2.88 6.2758-7.6515 13.325-5.2872 20.547z" fill-opacity=".62745" stroke-width="2" fill="#ff0a00"/>
   <circle id="circle4998" stroke-width="7.6711" stroke-linecap="round" stroke="#4096c3" cy="1018.8" cx="-1394.4" r="208.13" fill="none"/>
  </g>
 </g>
</svg>
