<?xml version="1.0" encoding="UTF-8" standalone="no"?>
<svg id="svg14335" xmlns:rdf="http://www.w3.org/1999/02/22-rdf-syntax-ns#" xmlns="http://www.w3.org/2000/svg" viewBox="0 0 423.93029 423.93028" height="119.64mm" width="119.64mm" version="1.1" xmlns:cc="http://creativecommons.org/ns#" xmlns:dc="http://purl.org/dc/elements/1.1/">
 <metadata id="metadata14340">
  <rdf:RDF>
   <cc:Work rdf:about="">
    <dc:format>image/svg+xml</dc:format>
    <dc:type rdf:resource="http://purl.org/dc/dcmitype/StillImage"/>
    <dc:title/>
   </cc:Work>
  </rdf:RDF>
 </metadata>
 <g id="layer1" transform="translate(-188.03 -668.97)">
  <g id="g4659" transform="translate(2955.6 -995.89)">
   <circle id="circle4440" stroke-width="7.6711" stroke-linecap="round" stroke="#4096c3" cy="1876.8" cx="-2555.6" r="208.13" fill="none"/>
   <g id="#000000ff" transform="matrix(1.4621 0 0 1.4621 -2702.8 1729.5)" stroke="#000" stroke-width="1.7098" fill="#c8b7b7">
    <path id="path4445-6" d="m98.34 0h3.27c6.5 0.85 12.1 6.35 12.53 12.97 0.6 5.1-2.14 9.89-5.99 13.04-0.02 6.85-0.01 13.71 0 20.56 8.48 1.35 16.54 4.73 23.55 9.66 4.92-4.97 9.93-9.84 14.77-14.88-0.47-5.24 1.63-10.78 6.13-13.73 5.83-4.21 14.71-2.91 19.1 2.78 4.6 5.44 4.05 14.28-1.16 19.13-3.2 3.26-7.92 4.33-12.35 3.89-4.98 4.77-9.79 9.7-14.66 14.58 5.01 6.95 8.39 15 9.81 23.45 6.95 0.03 13.9 0.01 20.84 0.01 3.04-3.31 7.16-5.92 11.82-5.68 7.01-0.05 13.1 5.72 14 12.57v3.24c-0.86 6.5-6.36 12.12-13 12.53-5.1 0.61-9.89-2.12-13.03-5.96-6.85-0.03-13.7-0.02-20.55-0.01-1.36 8.47-4.74 16.53-9.67 23.54 4.96 4.92 9.83 9.93 14.87 14.78 5.25-0.47 10.8 1.63 13.74 6.15 4.2 5.82 2.91 14.67-2.76 19.07-5.42 4.59-14.22 4.08-19.09-1.09-3.3-3.2-4.41-7.96-3.95-12.41-4.75-4.99-9.71-9.79-14.57-14.66-6.95 4.98-14.99 8.39-23.44 9.8-0.06 6.96-0.03 13.92-0.02 20.88 4.86 4.03 7.22 11.03 4.6 16.98-1.89 4.79-6.52 8.01-11.53 8.81h-3.16c-6.52-0.85-12.17-6.34-12.59-13-0.61-5.11 2.13-9.9 5.98-13.05 0.02-6.85 0.02-13.7 0-20.55-8.42-1.38-16.51-4.63-23.43-9.64-5.07 4.78-9.89 9.83-14.85 14.73 0.36 5.28-1.59 10.92-6.2 13.87-5.98 4.32-15.12 2.81-19.4-3.2-4.42-5.65-3.51-14.52 1.97-19.16 3.17-2.97 7.67-3.84 11.89-3.45 4.96-4.77 9.77-9.69 14.64-14.56-4.99-6.95-8.4-14.99-9.8-23.44-6.94-0.07-13.88 0-20.81-0.04-3.08 3.29-7.21 5.94-11.89 5.69-6.99 0.03-13.08-5.73-13.95-12.57v-3.26c0.85-6.52 6.37-12.14 13.02-12.54 5.11-0.59 9.86 2.18 13.02 6.01 6.85 0.01 13.69 0.01 20.53-0.01 1.29-8.53 4.88-16.5 9.6-23.67-4.95-4.82-9.77-9.75-14.68-14.61-7.69 0.94-15.58-4.69-16.27-12.58-1.26-8.39 6.38-16.55 14.83-15.82 8.33 0.15 14.77 8.54 13.37 16.65 4.77 4.97 9.7 9.78 14.57 14.65 6.85-5 14.83-8.2 23.12-9.82 0.85-6.77 0.11-13.92 0.35-20.84-3.57-3.22-6.21-7.81-5.63-12.77 0.4-6.64 6.01-12.15 12.51-13.02m12.78 63.22c-3.57 1.25-5.06 6.3-2.47 9.16 2.39 2.65 4.29 5.98 4.05 9.67-0.02 6.56-6.07 12.37-12.66 11.95-9.05-0.38-18.04 4.71-22.28 12.73-5.27 9.41-3.21 22.4 5.09 29.4 3.4 2.56 8.81 0.1 9.24-4.09 0.77-3.78-3.12-5.81-4.31-8.93-2.58-5.67 0.01-12.97 5.58-15.74 2.88-1.7 6.32-1.31 9.53-1.54 6.74-0.61 13.07-4.33 17.05-9.78 6.76-8.86 6.09-22.34-1.47-30.51-1.67-2.21-4.69-3.46-7.35-2.32z" stroke="#000" stroke-width="1.7098" fill="#c8b7b7"/>
   </g>
  </g>
 </g>
</svg>
