<?xml version="1.0" encoding="UTF-8" standalone="no"?>
<svg id="svg8855" xmlns:rdf="http://www.w3.org/1999/02/22-rdf-syntax-ns#" xmlns="http://www.w3.org/2000/svg" viewBox="0 0 423.93029 423.93028" height="119.64mm" width="119.64mm" version="1.1" xmlns:cc="http://creativecommons.org/ns#" xmlns:dc="http://purl.org/dc/elements/1.1/">
 <metadata id="metadata8860">
  <rdf:RDF>
   <cc:Work rdf:about="">
    <dc:format>image/svg+xml</dc:format>
    <dc:type rdf:resource="http://purl.org/dc/dcmitype/StillImage"/>
    <dc:title/>
   </cc:Work>
  </rdf:RDF>
 </metadata>
 <g id="layer1" transform="translate(-30.892 -177.54)">
  <g id="g4774" transform="translate(756.44 -1487.3)">
   <circle id="circle4606" stroke-width="7.6711" stroke-linecap="round" stroke="#4096c3" cy="1876.8" cx="-513.58" r="208.13" fill="none"/>
   <g id="#010101ff-1" fill-opacity=".31373" transform="matrix(1.3932 0 0 1.3932 -691.08 1695.9)" stroke="#000" stroke-width="1.4355" fill="#ffc273">
    <path id="path4745" d="m111.46 0h32.69c-0.57 6.45 0.03 14 5.75 18.13 7.76 5.36 16.89 8.24 25.71 11.38 6.43 2.39 12.45 7.41 13.9 14.4 2.91 11.82-1.52 23.75-0.29 35.65 0.91 9.15 1.74 18.49 5.08 27.14 2.91 7.6 7.07 14.89 7.86 23.13 0.94 8.79 1.06 17.76 3.77 26.26 2.13 6.71 3.5 13.83 7.03 19.98 3.98 2.76 9.26 2.34 13.52 4.54 1.94 1.41 3.13 3.57 4.7 5.34 2.42 3.04 6.09 4.65 8.86 7.31-0.08 2.04-2.53 1.94-4.03 1.88-4.4-0.35-7.62-3.65-11.15-5.91-0.53 12.1 10.63 20.27 11.5 31.99-1.09 0.19-2.19 0.34-3.29 0.44l-0.6 3c-3.25 0.95-5.29-2.95-7.38-4.83 0.8 2.21 2.42 4.51 1.68 6.94-1.42 1.6-3.61 0.58-4.62-0.92-3.44-4.35-5.36-9.65-8.32-14.31 0.53 3.83 1.53 7.62 1.63 11.51 0.14 1.39-0.69 2.91-2.23 2.85-3.36-4.97-3.99-11.16-6.69-16.46-2.58-6.66-6.64-12.77-8-19.86-1.35-5.78-4.13-11.07-7.03-16.2-5.65-10.23-9.88-21.18-13.63-32.23-1.88-5.59-4.05-11.13-5.07-16.97-1.23-5.97-1.12-12.19-3.15-18-2.92 13.92-0.39 28.06 0.84 42.01 0.99 7.7 3.15 15.19 4.7 22.78 2.97 15.59 7.36 31.06 7.38 47.05 0.14 6.33-0.23 12.66-0.57 18.98h-48.04c-0.67-8.22-1.58-16.43-2.26-24.65-2.48 0.08-4.97 0.08-7.45 0-0.71 8.22-1.49 16.44-2.33 24.65h-48.01c-0.27-8.33-0.88-16.68-0.27-25.01 0.75-13.75 4.55-27.05 7.03-40.53 1.57-7.88 3.93-15.61 4.84-23.61 1.22-13.84 3.75-27.87 0.8-41.68-2.55 7.74-1.98 16.11-4.48 23.87-5.16 15.74-10.47 31.58-18.82 45.98-3.35 5.66-5.33 11.95-6.81 18.32-3.3 8-7.57 15.62-10.07 23.94-0.88 2.98-1.97 5.97-4.15 8.28-3.16-4.59-0.05-10.15 0.21-15.13-3.74 5.57-5.43 12.83-11.27 16.74-3.31-2.01-1.24-5.58-0.08-8.29-2.06 2.28-4.15 5.08-7.53 5.18-0.04-0.88-0.14-2.63-0.18-3.51-0.78 0.01-2.33 0.04-3.11 0.05-0.28-11.95 11.79-20.15 11.1-32.34-3.55 2.19-6.75 5.5-11.13 5.82-1.52 0.09-4.02 0.27-4.08-1.83 2.77-2.65 6.4-4.3 8.85-7.31 1.56-1.78 2.79-3.9 4.7-5.34 3.93-1.92 8.49-1.94 12.46-3.75 1.64-0.72 2.12-2.65 2.83-4.12 2.46-6.44 4.29-13.1 6.1-19.73 2.61-9.31 1.77-19.13 3.93-28.51 2.19-8.3 6.77-15.74 8.89-24.06 1.74-6.84 2.35-13.9 3.1-20.9 1.22-12.19-3.43-24.51-0.05-36.56 2-7.51 9.13-12.19 16.16-14.42 7.83-2.54 15.61-5.63 22.52-10.17 5.89-4.09 6.78-11.79 6.05-18.38z" fill-opacity=".31373" stroke="#000" stroke-width="1.4355" fill="#ffc273"/>
   </g>
   <ellipse id="path4772" stroke-linecap="round" fill-opacity=".25778" rx="46.352" ry="94.237" stroke="#000" cy="1844.3" cx="-511.24" stroke-width=".5" fill="#ffc273"/>
  </g>
 </g>
</svg>
