<?xml version="1.0" encoding="UTF-8" standalone="no"?>
<svg id="svg11047" xmlns:rdf="http://www.w3.org/1999/02/22-rdf-syntax-ns#" xmlns="http://www.w3.org/2000/svg" viewBox="0 0 423.93029 423.93028" height="119.64mm" width="119.64mm" version="1.1" xmlns:cc="http://creativecommons.org/ns#" xmlns:dc="http://purl.org/dc/elements/1.1/">
 <metadata id="metadata11052">
  <rdf:RDF>
   <cc:Work rdf:about="">
    <dc:format>image/svg+xml</dc:format>
    <dc:type rdf:resource="http://purl.org/dc/dcmitype/StillImage"/>
    <dc:title/>
   </cc:Work>
  </rdf:RDF>
 </metadata>
 <g id="layer1" transform="translate(-136.61 -626.11)">
  <g id="g4647" transform="translate(585.04 -180.75)">
   <g id="g4910" fill-opacity=".55111" fill="#a02c2c" transform="matrix(1.4817 0 0 1.4817 -4648.5 2436.4)">
    <path id="path4479" d="m2881.2-999.3c9.2475-14.253 25.582-25.661 43.234-23.632 15.175 1.6335 26.978 14.859 29.903 29.376 1.5281 13.463-8.1936 27.426-21.894 29.402 1.7652 10.591 1.7388 21.472-1.0275 31.932 5.0321 3.8202 11.039 7.3506 13.41 13.568 4.1627 12.567-3.2143 27.822-16.229 31.405-23.606 7.2715-50.295-9.2738-56.065-32.933-7.6667-25.977-6.6656-56.012 8.6679-79.118m11.724 21.815c1.4491 4.716 6.2704 7.4296 9.0104 11.382-4.6632-0.23712-9.4846-3.1879-14.042-1.5017-2.5819 3.4513-3.1088 8.141-1.1329 12.014 1.9497 5.8752 10.222 2.4502 14.517 5.6908-3.7939 2.819-11.171 3.0035-11.803 8.7996 0.6323 5.3483 3.6358 11.197 9.8798 10.433 2.6346-2.4765 5.4273-4.795 8.3254-6.929-0.4742 5.1638-1.1856 10.328-1.7389 15.518 4.1627 2.2658 8.826 4.6896 13.647 2.7664 7.9829-1.5281 1.4227-10.881 3.7675-15.992 4.2681-10.275 3.3724-21.34 1.4227-32.011-1.37-5.3483 6.9818-9.4319 3.1616-14.596-2.5293-3.6094-7.2716-3.2142-11.118-3.8465-2.055 3.9256-3.0562 8.826-7.0608 11.329-1.2909-3.9256-2.5819-7.8248-3.8465-11.75-5.0848 0.79038-12.435 2.5292-12.989 8.6942z"/>
    <path id="path4481" d="m3002.1-993.45c2.7663-14.728 14.991-28.085 30.377-29.508 17.388-1.7651 33.46 9.4056 42.602 23.474 16.335 24.66 16.782 57.198 6.9817 84.439-7.7721 21.446-33.67 34.935-55.511 27.374-12.672-4.1364-19.233-19.654-14.569-31.852 2.5292-5.7698 8.2727-9.0104 13.041-12.725-2.74-10.407-2.9771-21.314-0.8958-31.852-13.7-1.9496-23.58-15.86-22.025-29.35m26.636 11.566c-3.3723 5.2165 4.3735 9.1421 3.2933 14.411-1.37 9.669-3.2669 19.76 0.5533 29.165 2.8453 5.48-0.2108 11.513 0.9748 17.204 5.0321 3.5304 12.857 3.425 16.967-1.5281 0.079-4.9004-0.5269-9.7481-1.8179-14.517 4.5842 4.0837 14.385 10.512 17.204 1.1856 3.8202-8.0883-3.9255-11.856-10.301-13.753 3.8992-2.2921 8.6152-2.0287 12.91-3.0562 3.425-4.3735 2.8717-9.8798 1.0802-14.78-4.8477 0.65865-9.7217 1.1065-14.596 1.3436 2.7137-3.9783 7.4296-6.7183 8.9314-11.408-1.0012-6.0596-7.9039-7.7458-13.015-8.6415-1.2646 3.9519-2.5819 7.9038-3.8729 11.856-4.0046-2.5029-4.9794-7.4296-7.0081-11.355-3.8992 0.685-8.6942 0.23711-11.302 3.8729z"/>
    <path id="path4483" d="m2894.3-978.2c3.1352-2.4238 6.4022-4.9794 10.565-5.1902 0.7641 3.2142 1.5545 6.4548 2.3449 9.669 1.0011 0.52692 3.0034 1.5808 4.0046 2.1077 0.8167-0.63231 2.4765-1.8442 3.2932-2.4765 1.0275-3.0825 2.055-6.165 3.0562-9.2475 3.6621 0.42154 7.2715 1.1592 9.669 4.2681-10.38 9.6954 0.2108 23.422-3.9519 35.04-3.0035 7.2188-3.3196 14.886-2.0813 22.526-4.0047-0.57962-11.724 2.2921-12.883-3.7148 0.7904-5.2956 4.3471-12.014-2.3448-14.912-2.7664 2.5292-5.5064 5.0848-8.22 7.6404-3.3987-1.9496-7.4033-6.5075-5.1112-10.538 3.1089-1.8706 6.5339-3.1088 9.8535-4.5579-0.026-1.449-0.079-4.3735-0.1054-5.8225-4.3208-0.50057-8.6679-0.55326-12.989-1.0275-0.9485-3.8465-1.2647-7.7458-0.9749-11.698 4.6106 0.21077 10.776 4.6106 14.675 0.89577 0.9748-6.0596-5.7172-8.8523-8.7997-12.962z"/>
    <path id="path4485" d="m3029.6-978.94c2.2658-3.2406 5.9015-4.11 9.6163-4.2154 1.5018 4.1627 2.74 8.5888 5.9806 11.829 1.1066-0.60596 3.3196-1.8442 4.4525-2.4502 0.8431-3.3196 1.6598-6.6392 2.5029-9.9588 2.8981 1.0802 6.244 1.5281 8.4835 3.8992 3.0825 6.6392-9.5637 7.535-6.692 14.517 3.4777 3.8729 10.038-0.60596 14.596-0.42154 0.2108 3.8729-0.2108 7.6667-1.2646 11.382-4.3208 0.28981-8.6152 0.60596-12.91 0.97481 0 1.449 0.026 4.3471 0.053 5.8225 4.8213 1.8442 13.489 4.2944 8.984 11.171-3.0561 7.5086-9.2211-1.0275-12.699-3.6885-6.4812 3.1352-3.0562 9.3265-2.0814 14.728-1.1592 6.165-9.0631 3.3723-13.147 3.6885 1.5017-7.6404 0.8958-15.228-1.9496-22.447-4.0573-11.566 6.323-25.213-3.9256-34.83z"/>
    <path id="path4487" d="m2937.9-960.71c4.0836-2.134 8.0882-4.4525 12.014-6.9027 7.0871 1.6335 14.359 1.9233 21.604 2.1867 0.7377 3.3986 0.4215 6.6129-0.9748 9.6163-10.828 1.6598-21.841 1.37-32.748 1.37 0.026-1.5544 0.079-4.6896 0.1054-6.2704z"/>
    <path id="path4489" d="m2984.6-965.37c7.3769-0.31615 14.754-0.685 21.999-2.1604 3.8992 2.4502 7.8775 4.7686 11.988 6.8763 0.026 1.5281 0.053 4.5579 0.079 6.086-11.144 0-22.71 1.0012-33.591-1.8179-0.1054-2.2658-0.3425-6.7446-0.4742-8.984z"/>
    <path id="path4491" d="m2938.3-949.67c11.118-0.71135 22.737-1.2119 32.195 5.6644-1.2383 2.9771-2.4765 5.9542-3.6884 8.9577-9.3002-3.5304-19.022-6.086-29.06-5.2429 0.1318-2.3448 0.4216-7.0344 0.5533-9.3792z"/>
    <path id="path4493" d="m2985.9-944.11c9.5373-6.7183 21.05-6.2967 32.169-5.5854 0.1581 2.3448 0.5006 7.0608 0.6587 9.4056-10.038-0.81673-19.812 1.5281-29.007 5.3746-1.1066-3.1352-2.3975-6.1913-3.8202-9.1948z"/>
    <path id="path4497" d="m2935.4-935.86c7.535 0.42154 17.889-2.0023 22.763 5.5327 6.5075 14.332 9.6427 29.956 13.305 45.184-3.6094 0.89577-7.2979 1.0802-10.986 0.84308-5.5854-18.258-8.0356-39.835-25.082-51.559z"/>
    <path id="path4499" d="m2998.2-930.22c4.8741-7.5086 15.123-5.3746 22.71-5.6117-16.835 11.724-19.444 33.17-24.844 51.349-3.7939 0.63231-7.5614 0.28981-11.197-0.94846 3.9255-15.044 6.8236-30.588 13.331-44.788z"/>
   </g>
   <circle id="circle5002" cx="-236.46" stroke-linecap="round" stroke="#4096c3" cy="1018.8" r="208.13" stroke-width="7.6711" fill="none"/>
  </g>
 </g>
</svg>
