<?xml version="1.0" encoding="UTF-8" standalone="no"?>
<!-- Created with Inkscape (http://www.inkscape.org/) -->
<svg id="svg4421" xmlns:rdf="http://www.w3.org/1999/02/22-rdf-syntax-ns#" xmlns="http://www.w3.org/2000/svg" height="69.328mm" viewBox="0 0 499.62209 245.65008" width="141mm" version="1.1" xmlns:cc="http://creativecommons.org/ns#" xmlns:dc="http://purl.org/dc/elements/1.1/">
 <metadata id="metadata4426">
  <rdf:RDF>
   <cc:Work rdf:about="">
    <dc:format>image/svg+xml</dc:format>
    <dc:type rdf:resource="http://purl.org/dc/dcmitype/StillImage"/>
    <dc:title/>
   </cc:Work>
  </rdf:RDF>
 </metadata>
 <g id="g3431">
  <g id="g19" fill="#4d4d4d" transform="translate(-10.189,-12.394)">
   <path id="path4271" d="m214.36 125.68c5.6713-6.983 14.25-10.83 22.808-12.909 1.4907-0.48343 3.3054-0.0949 3.9651 1.4579 5.0821 9.325 35.772 0.31902 33.753 17.148 0.028 0.35276-12.248 17.525-12.228 17.872-1.1039 1.7923 5.9767-8.0075 4.7068-6.3174-5.2646-10.107-25.052-13.989-30.535-23.983-0.8556 0.2989-1.712 0.59134-2.562 0.88451-0.3364 4.1099-1.3226 8.2197-1.0159 12.353 1.7329 0.63948 3.4836 1.4516 4.5685 3.0288 2.4864 3.0047 1.7195 7.8315-1.364 10.125-3.2419 2.9394-8.7295 1.8101-10.906-1.8816-2.7661-3.9362-0.2475-9.898 4.3327-10.991 0.5965-3.7996 1.0028-7.6406 1.1422-11.488-5.1453 2.0911-9.9794 5.3407-13.133 9.988-2.8933 4.2533-3.9965 9.4747-3.946 14.558 0.042 7.7718-0.034 15.549-0.014 23.321h-5.9823c0.014-8.1658 0.082-16.326 0.089-24.492 0.076-6.6787 2.0296-13.477 6.3313-18.674m15.779 8.6196c-4.1429 1.1052-5.424 7.0313-2.1125 9.7494 3.0642 3.0047 8.8753 1.0513 9.4783-3.2084 0.9586-4.0616-3.4516-7.9684-7.3658-6.541z"/>
   <path id="path4273" d="m279.3 115.46c0.6703-1.2245 1.8399-2.6044 3.4201-2.1629 7.1254 1.8463 14.097 5.1619 19.281 10.496 5.222 5.2264 7.8735 12.604 8.0317 19.922 0.1205 8.3751-0.09 16.756 0.1461 25.137h-6.0405c0-7.7718-0.049-15.549-0.014-23.321 0.014-3.3632-0.4378-6.7561-1.6243-9.9099h0.1648c-3.2795-8.1247-11.014-13.494-19.198-15.884-7.4036 13.381-15.156 26.565-22.497 39.981-2.0364 2.9153-3.7428 6.01-5.4115 9.134h-7.2961c2.9817-4.5458 5.6908-9.259 8.489-13.918 7.5114-13.16 15.049-26.308 22.547-39.474z"/>
   <path id="path4275" d="m230.86 136.84c2.3339-0.80071 4.7136 1.9172 3.5903 4.1155-0.7428 2.3119-4.2628 2.5511-5.3802 0.43651-1.2181-1.6368-0.1269-4.1042 1.7899-4.552z"/>
  </g>
  <path id="path4277" fill="#f00" d="m264.63 139.53c5.691 0.0382 11.385 0.07 17.079-0.0188 0.062 1.8337 0.069 3.6676 0.09 5.5018-5.7165 0.125-11.439-0.0254-17.155 0.0762 0.01-1.852 0.01-3.7096 0-5.5615z"/>
  <path id="path4303" fill="#f00" d="m270.44 150.88c0.042-5.6928 0.082-11.386-0.021-17.079 1.8336-0.0513 3.6672-0.0569 5.5001-0.0759 0.1272 5.7169-0.028 11.44 0.09 17.156-1.8525-0.007-3.7112-0.007-5.5648 0z"/>
  <rect id="rect4372" transform="matrix(.77790 -.62838 .62838 .77790 0 0)" ry="5.8101" height="33.931" width="11.62" y="408.92" x="275.94" fill="#313131"/>
  <g id="g4374" fill="#f00" transform="matrix(.30712 0 0 .33426 25.869 49.951)">
   <path id="path4376" d="m60.15 31.38c9.73-2.53 19.9-2.02 29.84-1.36 11.72 1.02 23.45 3.74 33.96 9.16 11.13 5.7 20.89 14.94 25.25 26.87 4.56-12.01 14.74-21.13 26.15-26.58 15.37-7.39 32.81-9.08 49.66-8.46 17.27 0.72 33.81 8.83 45.77 21.17 14.52 14.76 22.75 35.02 24.22 55.55v9.45c-1.09 16.21-6.51 32-15.47 45.54-23.53 0.09-47.05 0.01-70.58 0.04-2.16-0.16-4.27 0.86-5.4 2.72-2.97 4.32-5.54 8.91-8.55 13.2-3.95-31.97-7.89-63.95-11.85-95.92-0.14-2.56-1.52-5.24-4.18-5.91-3.49-1.23-7.27 1.73-7.37 5.32-3.93 33.24-7.5 66.53-11.56 99.75-1.57-4.76 0.16-12.03-5.37-14.44-5.75-0.58-11.63-0.43-17.39-0.09-4.66 1.69-5.32 7.53-7.8 11.28-5.09-41.91-9.82-83.86-14.82-125.78-0.15-2.59-2.07-4.96-4.68-5.39-3.31-0.74-6.62 2.08-6.73 5.4-4.3 39.9-8.57 79.81-12.78 119.72-21.36 0.09-42.71 0.02-64.06 0.03-15.59-17.57-24.99-40.96-23.91-64.6 0.73-19.76 8.3-39.25 21.36-54.11 9.54-10.84 22.2-19.1 36.29-22.56z"/>
   <path id="path4378" d="m101.32 178.28c2.62-24.25 5.13-48.52 7.79-72.76 4.21 31.4 7.35 62.95 11.37 94.37 0.97 4.56 7.9 5.73 10.19 1.61 4.03-7.51 7.67-15.24 11.51-22.85 1.91-0.01 3.81-0.02 5.72-0.02 2.32 15.83 4.76 31.63 7.09 47.45 0.17 2.43 1.54 4.97 4.02 5.66 3.29 1.18 7.21-1.28 7.47-4.78 3.69-31.9 7.27-63.82 10.99-95.72 3.11 21.71 5.33 43.54 8.28 65.26 0.61 4.62 7.47 6.16 10.02 2.31 5.33-8.15 10.48-16.42 15.68-24.65 19.71-0.13 39.42-0.04 59.13-0.05-5.57 6.25-11.87 11.78-18.55 16.8-34.57 26.23-69.15 52.48-104.92 77.07-37.18-26.83-73.25-55.16-109.01-83.84 18.98-0.14 37.98 0.03 56.96-0.08 3.29 0.22 6.26-2.47 6.26-5.78z"/>
  </g>
  <g id="text4380" stroke-width="1.3057px" stroke="#313131" fill="none">
   <path id="path3429" d="m185.42 189.86c-0.42806 0-1.1494 0.36164-2.166 1.084l-7.584 5.3379c0.69559 10.273 1.043 19.958 1.043 29.055 0 11.825 3.7453 17.736 11.236 17.736h2.9688 3.7734 1.4844 2.207c4.3608 0 8.147-1.2975 11.357-3.8926 2.4346 2.5951 6.3004 3.8926 11.598 3.8926h1.4434 3.7324 2.7695 0.96289c1.4179 0 2.8236-0.5068 4.2148-1.5234s2.1922-1.8073 2.4062-2.3692c1.4982 2.5951 3.9869 3.8926 7.4648 3.8926 1.6587 0 3.2239-0.5068 4.6953-1.5234 1.4982-1.0166 2.3809-1.8462 2.6484-2.4883 1.1237 2.6754 3.451 4.0117 6.9824 4.0117 3.585 0 6.4087-1.8328 8.4688-5.498 1.1475-2.0169 1.7838-4.3272 2.1855-6.7734 0.99518 1.3014 2.8633 2.5342 5.7988 3.6836 3.478 1.3644 6.1138 2.0469 7.9062 2.0469 1.1236 0 2.2209-1.1892 3.291-3.5703 0.53507 2.3008 1.2032 4.1194 2.0059 5.457 1.8995 3.1034 4.7356 4.6543 8.5078 4.6543h1.4043 1.5254 1.123c4.7086 0 8.3477-2.1802 10.916-6.541 1.8359-3.1507 2.7298-6.7088 2.8633-10.596 0.14192 11.373 3.8373 17.137 11.184 17.137h2.9688 3.9727 1.2852 0.32031c3.7188 0 6.4343-2.1802 8.1465-6.541 2.3008 5.645 6.0461 8.4688 11.236 8.4688 2.9964 0 5.2706-1.3792 6.8223-4.1348 1.2307-2.1403 1.8457-4.7476 1.8457-7.8242 0-4.6551-1.0032-8.9092-3.0098-12.762-2.5148-4.8692-5.9659-7.3047-10.354-7.3047-2.9161 0-5.2843 1.0564-7.1035 3.1699s-2.7285 4.6288-2.7285 7.5449c0 2.0333-0.20027 3.4513-0.60157 4.2539-0.58857 1.1236-1.7266 1.6855-3.4121 1.6855h-1.3242-1.3242-3.7715-0.16015c-2.8091 0-4.2148-1.7123-4.2148-5.1367l0.041-32.023c0-1.739-0.38821-2.6094-1.1641-2.6094-0.42806 0-1.1494 0.36164-2.166 1.084l-7.5859 5.3379c0.60961 9.0034 0.83871 17.364 0.91407 25.463-0.20044-1.2194-0.49971-2.4808-0.91407-3.793-1.1236-3.585-2.8359-6.3128-5.1367-8.1856-0.77586-0.61532-1.444-0.49674-2.0059 0.35938l-6.0195 9.2305c4.8959 4.5214 7.3438 7.3717 7.3438 8.5488 0 1.1504-2.4478 1.7246-7.3438 1.7246h-0.39843l0.0371-0.0801h-1.3242c-1.6052-0.00001-2.8087-0.97668-3.6113-2.9297-0.45481-1.1237-0.86959-2.9688-1.2441-5.5371l-2.6094-18.701c-0.18727-1.3912-0.68176-2.0859-1.4844-2.0859-0.53507 0-1.1235 0.44135-1.7656 1.3242l-5.498 7.543 0.64257 4.2539c-5.7253 3.0232-9.2846 5.1113-10.676 6.2617-0.85611 0.7491-1.7388 2.1529-2.6484 4.2129-0.1654 0.37457-0.11273 0.53743-0.24805 0.88281-0.23521-3.5754-0.96645-7.1138-2.4805-10.594-0.29429-0.69559-0.70907-1.0449-1.2441-1.0449-0.50831 0-0.96197 0.28193-1.3633 0.84375l-4.7363 6.541c2.6486 3.0499 3.9727 5.2832 3.9727 6.7012 0 1.632-1.0706 2.4492-3.2109 2.4492-2.9964 0-5.0295-0.61504-6.0996-1.8457-0.50832-0.61534-0.89653-1.7534-1.1641-3.4121-0.26754-1.6855-1.0154-2.5274-2.2461-2.5274-1.0701 0-1.7934 0.82956-2.168 2.4883-0.4013 1.9263-0.73441 3.1032-1.002 3.5312-0.69559 1.1772-1.8725 1.7656-3.5312 1.7656-1.9798 0-3.3058-0.57616-3.9746-1.7266-0.26753-0.4013-0.56176-1.5782-0.88281-3.5312-0.29429-1.6587-1.0033-2.4883-2.127-2.4883-1.1236 0-1.8715 0.82956-2.2461 2.4883-0.4013 1.846-0.74867 3.0106-1.043 3.4922-0.66884 1.1504-1.9132 1.7246-3.7324 1.7246h-1.125-3.4902-2.8906-3.3301c1.4982-1.3644 2.248-4.1739 2.248-8.4277 0-3.478-1.2178-6.314-3.6523-8.5078-1.9263-1.739-3.8265-2.6074-5.6992-2.6074-3.4512 0-6.8757 1.8717-10.273 5.6172-3.1837 3.478-4.7754 6.5817-4.7754 9.3106 0 2.06 0.64357 3.5986 1.9277 4.6152h-3.2109-1.2852-3.8125-0.16015c-2.8091 0-4.2129-1.7123-4.2129-5.1367l0.0391-32.023c0-1.739-0.38821-2.6094-1.1641-2.6094zm185.56 0c-0.42806 0-1.1513 0.36164-2.168 1.084l-7.584 5.3379c0.69559 10.273 1.043 19.958 1.043 29.055 0 11.825 3.7453 17.736 11.236 17.736h2.9707 2.8086 2.4473 1.3242c1.4179 0 2.8237-0.5068 4.2148-1.5234 1.3912-1.0166 2.1922-1.8073 2.4062-2.3692 1.4982 2.5951 3.9869 3.8926 7.4648 3.8926 1.6587 0 3.2239-0.5068 4.6953-1.5234 1.4982-1.0166 2.3809-1.8462 2.6484-2.4883 1.1236 2.6754 3.451 4.0117 6.9824 4.0117 3.585 0 6.4087-1.8328 8.4688-5.498 1.7657-3.1034 2.6484-6.7139 2.6484-10.834 0-4.2538-0.89696-8.4405-2.6894-12.561-0.29429-0.69559-0.70907-1.0449-1.2441-1.0449-0.50832 0-0.96199 0.28193-1.3633 0.84375l-4.7363 6.541c2.6486 3.0499 3.9726 5.2832 3.9726 6.7012 0 1.632-1.0706 2.4492-3.2109 2.4492-2.9964 0-5.0295-0.61504-6.0996-1.8457-0.50832-0.61534-0.89653-1.7534-1.1641-3.4121-0.26753-1.6855-1.0154-2.5274-2.2461-2.5274-1.0701 0-1.7934 0.82956-2.168 2.4883-0.4013 1.9263-0.73441 3.1032-1.002 3.5312-0.69559 1.1772-1.8725 1.7656-3.5312 1.7656-1.9798 0-3.3058-0.57616-3.9746-1.7266-0.26754-0.4013-0.56177-1.5782-0.88281-3.5312-0.2943-1.6587-1.0033-2.4883-2.127-2.4883-1.1236 0-1.8715 0.82956-2.2461 2.4883-0.40131 1.846-0.74868 3.0106-1.043 3.4922-0.66884 1.1504-1.9132 1.7246-3.7324 1.7246h-1.5254-3.0508-2.0449-0.16211c-2.8091 0-4.2129-1.7123-4.2129-5.1367l0.0391-32.023c0-1.739-0.38626-2.6094-1.1621-2.6094zm-223.89 0.48242c-0.4013 0-0.8958 0.21453-1.4844 0.64258l-9.791 7.1055v-4.2578l-21.912 7.5449c-0.64209 0.21403-1.4185 1.7118-2.3281 4.4941-0.85612 2.5416-1.2832 4.2273-1.2832 5.0566 0 0.24079 0.0531 0.46957 0.16015 0.6836 6.7687 9.8721 10.152 15.289 10.152 16.252 0 1.2039-3.5308 1.8066-10.594 1.8066h-3.1309-0.35938-24.801-0.28125-7.5449v13.402h7.3047 0.52148 24.801 0.60157 3.8516c6.0196 0 10.474-1.9922 13.363-5.9785 2.2473-3.0767 3.3711-6.9037 3.3711-11.479 0-4.3341-2.2068-9.804-6.6211-16.412l14.025-4.8535 3.9941 34.107c0.4013 3.2639 1.3106 4.8965 2.7285 4.8965s2.2332-1.3364 2.4473-4.0117l3.8535-46.672c0.10701-1.5517-0.24232-2.3281-1.0449-2.3281zm38.324 0.72266c-0.0267 0-0.0391 0.46792-0.0391 1.4043l-0.041 32.023c0 4.2271 1.8062 6.3418 5.418 6.3418h0.16015 4.375 0.72266 6.7422c-2.8359-2.1938-4.2539-4.1348-4.2539-5.8203 0-2.4078 1.4835-5.2439 4.4531-8.5078 3.1837-3.478 6.314-5.2168 9.3906-5.2168 1.5517 0 3.1843 0.76216 4.8965 2.2871 2.167 1.9798 3.25 4.5216 3.25 7.625 0 3.8793-1.3629 7.0912-4.0918 9.6328h6.3789 4.0137 2.3672 1.125c2.2473 0 3.839-0.76411 4.7754-2.2891 0.3478-0.58858 0.74832-1.8861 1.2031-3.8926 0.21402-1.0166 0.5614-1.5234 1.043-1.5234 0.42806 0 0.73655 0.50681 0.92383 1.5234 0.37454 2.06 0.72192 3.3718 1.043 3.9336 0.93638 1.525 2.6098 2.2871 5.0176 2.2871 2.1403 0 3.6646-0.77641 4.5742-2.3281 0.32104-0.53507 0.70925-1.8449 1.1641-3.9316 0.21403-1.0166 0.53483-1.5254 0.96289-1.5254 0.53507 0 0.88245 0.49449 1.043 1.4844 0.32104 1.9263 0.81554 3.2788 1.4844 4.0547 1.2842 1.4982 3.6115 2.2461 6.9824 2.2461 2.9429 0 4.416-1.2178 4.416-3.6523-0.00001-1.739-1.2178-3.9989-3.6524-6.7812l4.1738-5.7383c0.18727-0.24078 0.32013-0.36133 0.40039-0.36133l0.12109 0.32031c1.739 3.9595 2.6074 7.9868 2.6074 12.08 0 3.906-0.82957 7.3306-2.4883 10.273-1.846 3.2372-4.3204 4.8555-7.4238 4.8555-2.9964 0-5.3237-1.9799-6.9824-5.9395-0.90962 2.1938-2.0192 3.7324-3.3301 4.6152-1.2842 0.88287-2.6225 1.3242-4.0137 1.3242-2.9964 0-5.5382-1.8062-7.625-5.418-0.7491 1.846-1.7258 3.2109-2.9297 4.0938-1.2039 0.88287-2.3808 1.3242-3.5312 1.3242h-0.96289-1.9668-4.5352-1.4434c-4.9762 0-8.8155-1.4323-11.518-4.2949-3.5315 2.8626-7.3442 4.2949-11.438 4.2949h-2.207-0.92382-4.334-2.9688c-6.6884 0-10.033-5.5107-10.033-16.533 0-9.0962-0.32081-18.595-0.96289-28.494l6.9824-4.9355c0.80261-0.56183 1.2971-0.8418 1.4844-0.8418zm137.89 0c-0.0267 0-0.0391 0.46792-0.0391 1.4043l-0.041 32.023c0 4.2271 1.8062 6.3418 5.418 6.3418h0.16015 4.334 0.76172 1.3242c2.167 0 3.6525-0.77642 4.4551-2.3281 0.50832-0.96314 0.76368-2.5691 0.76368-4.8164 0-2.5951 0.80103-4.8284 2.4062-6.7012s3.6791-2.8086 6.2207-2.8086c3.906 0 7.0097 2.2191 9.3106 6.6602 1.8995 3.692 2.8496 7.7601 2.8496 12.201 0 2.8626-0.5619 5.2839-1.6856 7.2637-1.3377 2.3276-3.2645 3.4902-5.7793 3.4902-4.6551 0-8.4004-3.5185-11.236-10.555-2.2473 5.752-4.9628 8.6289-8.1465 8.6289h-0.32031-1.0039-4.2539-2.9688c-6.6884 0-10.033-5.5107-10.033-16.533 0-9.0962-0.3208-18.595-0.96289-28.494l6.9824-4.9355c0.80261-0.56183 1.2971-0.8418 1.4844-0.8418zm47.676 0c-0.0267 0-0.041 0.46792-0.041 1.4043l-0.0391 32.023c0 4.2271 1.8043 6.3418 5.416 6.3418h0.16211 3.1289 1.9668 1.5254c2.2473 0 3.839-0.76411 4.7754-2.2891 0.34779-0.58858 0.74831-1.8861 1.2031-3.8926 0.21403-1.0166 0.56141-1.5234 1.043-1.5234 0.42806 0 0.73655 0.50681 0.92383 1.5234 0.37455 2.06 0.72192 3.3718 1.043 3.9336 0.93637 1.525 2.6098 2.2871 5.0176 2.2871 2.1403 0 3.6646-0.77641 4.5742-2.3281 0.32104-0.53507 0.70925-1.8449 1.1641-3.9316 0.21403-1.0166 0.53484-1.5254 0.96289-1.5254 0.53507 0 0.88245 0.49449 1.043 1.4844 0.32105 1.9263 0.81553 3.2788 1.4844 4.0547 1.2842 1.4982 3.6115 2.2461 6.9824 2.2461 2.9429 0 4.416-1.2178 4.416-3.6523 0-1.739-1.2178-3.9989-3.6523-6.7812l4.1738-5.7383c0.18727-0.24078 0.32013-0.36133 0.40039-0.36133l0.12109 0.32031c1.739 3.9595 2.6074 7.9868 2.6074 12.08 0 3.906-0.82955 7.3306-2.4883 10.273-1.846 3.2372-4.3204 4.8555-7.4238 4.8555-2.9964 0-5.3237-1.9799-6.9824-5.9395-0.90962 2.1938-2.0192 3.7324-3.3301 4.6152-1.2842 0.88287-2.6225 1.3242-4.0137 1.3242-2.9964 0-5.5382-1.8062-7.625-5.418-0.7491 1.846-1.7258 3.2109-2.9297 4.0938-1.2039 0.88287-2.3808 1.3242-3.5312 1.3242h-1.3242-2.127-3.1289-2.9707c-6.6884 0-10.033-5.5107-10.033-16.533 0-9.0962-0.32081-18.595-0.96289-28.494l7-4.93c0.80261-0.56183 1.299-0.8418 1.4863-0.8418zm-223.89 0.48047c-0.0535 0-0.10663 0.34933-0.16016 1.0449l-3.8516 46.67c-0.16053 1.9263-0.5753 2.8906-1.2441 2.8906-0.72235 0-1.2311-1.2852-1.5254-3.8535l-4.4941-38.336v-0.3789l10.514-7.6348c0.37454-0.26753 0.62795-0.40234 0.76172-0.40234zm63.287 1.1035c-0.3478 0-0.69713 0.16754-1.0449 0.50196l-4.6953 4.7754c-0.72237 0.7491-0.74892 1.4724-0.0801 2.168l5.0977 4.9355c0.64209 0.61534 1.2837 0.61534 1.9258 0l5.0156-5.0156c0.66884-0.66884 0.66884-1.3124 0-1.9277l-5.1758-4.9355c-0.34779-0.33442-0.69517-0.50196-1.043-0.50196zm34.471 1.9473c-0.33442 0-0.66753 0.15943-1.002 0.48047l-4.2949 4.375c-0.69562 0.72235-0.72216 1.4171-0.0801 2.0859l4.6953 4.4961c0.61533 0.58858 1.2304 0.58858 1.8457 0l4.6152-4.5762c0.6421-0.64209 0.62782-1.2694-0.041-1.8848l-4.7344-4.4961c-0.33442-0.32104-0.66949-0.48047-1.0039-0.48047zm-110.24 0.92187v3.4473l-0.11914 0.0859 0.11914 1.0176v3.1543l-15.369 5.3379c4.8424 7.3037 7.2637 12.99 7.2637 17.057 0 4.3073-1.0441 7.8913-3.1309 10.754-2.6754 3.6652-6.8089 5.498-12.4 5.498h-3.8516-0.60157-24.801-0.52148-6.1016v-10.996h6.3418 0.28125 24.801 0.35938 3.1309c7.8656 0 11.799-1.0032 11.799-3.0098 0-1.2307-3.4388-6.8619-10.314-16.895v-0.041c0-0.72235 0.40247-2.2732 1.2051-4.6543 0.80261-2.4078 1.3379-3.6645 1.6055-3.7715l20.305-6.9844zm164.4 0.41211c-0.35448 0.007-0.69878 0.19157-1.0332 0.55274l-4.6543 4.6953c-0.77588 0.77586-0.80242 1.4972-0.0801 2.166l5.0957 4.9355c0.64209 0.61534 1.2714 0.61534 1.8867 0l4.9766-4.9746c0.66882-0.66883 0.68115-1.3247 0.0391-1.9668l-5.1367-4.8965c-0.37455-0.3478-0.73926-0.5184-1.0938-0.51172zm-142.13 5.127c-0.66884 0-1.3247 0.33506-1.9668 1.0039-3.0232 6.8489-4.5352 10.754-4.5352 11.717 0.18728 1.3644 0.85546 2.0469 2.0059 2.0469l2.4082-0.68165h0.36133c0.77586 0.10702 1.7791 0.46866 3.0098 1.084 8.6682 5.4845 13.069 9.1747 13.203 11.074-0.4013 1.5785-4.2672 2.3691-11.598 2.3691h-3.7324c-2.3811 0-4.4816-0.3085-6.3008-0.92383h-0.80273v13.484c0 0.61533 0.72327 0.92187 2.168 0.92187h10.475c3.0767 0 5.8576-0.70901 8.3457-2.127 4.4143-2.3008 6.623-7.9321 6.623-16.895 0-3.3442-1.5263-7.0487-4.5762-11.115-6.0731-7.4107-10.848-11.397-14.326-11.959h-0.76172zm132.87 0.4414c0.10701 0 0.20099 0.34738 0.28125 1.043l2.6074 18.701c0.37455 2.6754 0.8159 4.6287 1.3242 5.8594 0.98347 2.3552 2.5197 3.513 4.5547 3.5898l0.0605 0.14258h1.8066c5.6985 0 8.5469-0.97667 8.5469-2.9297 0-1.5517-2.3273-4.4552-6.9824-8.709l5.459-8.4277c0.0803-0.10699 0.15998-0.11932 0.24024-0.0391 2.1135 1.7122 3.691 4.2541 4.7344 7.625 0.77585 2.3811 1.1641 4.6144 1.1641 6.7012 0 4.0398-0.93584 7.6503-2.8086 10.834-2.3276 3.9863-5.6192 5.9805-9.873 5.9805h-1.5644-0.68164-1.8066c-3.3442 0-5.8309-1.3649-7.4629-4.0938-0.7491-1.2307-1.6603-4.0667-2.7305-8.5078-1.8192 4.0398-3.0228 6.0606-3.6113 6.0606-1.632 0-4.133-0.65587-7.5039-1.9668-3.906-1.525-5.8594-3.0635-5.8594-4.6152 0-1.0166 0.41478-2.4736 1.2441-4.373 0.82936-1.8995 1.6181-3.1438 2.3672-3.7324 1.2842-1.0969 5.0029-3.2913 11.156-6.582l-0.64063-4.5742 5.1758-7.1445c0.42806-0.56183 0.69573-0.8418 0.80274-0.8418zm-132.87 0.76172h0.68165c3.1034 0.50832 7.5843 4.3353 13.443 11.479 2.8894 3.8525 4.334 7.3159 4.334 10.393 0 8.4809-1.9922 13.765-5.9785 15.852-2.3276 1.3109-4.9225 1.9668-7.7852 1.9668h-10.475c-0.64209 0-0.96289 0.094-0.96289 0.28125v-12.148c1.7047 0.50466 3.6452 0.79101 5.8984 0.79101h3.7324c7.9726 0 12.241-1.1361 12.803-3.4102v-0.24219c-0.18727-2.3276-4.803-6.3406-13.846-12.039-1.3377-0.66884-2.5023-1.0836-3.4922-1.2441h-0.60156l-2.4082 0.68359c-0.3478 0-0.56036-0.30849-0.64063-0.92383 0-0.7491 1.4569-4.4147 4.373-10.996 0.26753-0.29429 0.57603-0.44141 0.92382-0.44141zm83.12 1.23c-0.3478 0-0.69517 0.16754-1.043 0.50196l-4.334 4.4141c-0.74913 0.7491-0.77567 1.4438-0.0801 2.0859l4.6953 4.6152c0.64209 0.61533 1.2837 0.61533 1.9258 0l4.0137-4.1328 4.1328 4.1328c0.61533 0.58858 1.2304 0.58858 1.8457 0l4.6543-4.6543c0.61533-0.64208 0.61533-1.2714 0-1.8867l-4.8145-4.5742c-0.66884-0.64209-1.337-0.64209-2.0059 0l-3.9746 4.0117-3.9726-4.0117c-0.3478-0.33442-0.69517-0.50196-1.043-0.50196zm-139.25 2.3477c-9.6313 1.5785-14.447 4.294-14.447 8.1465 0 1.1504 1.0564 2.407 3.1699 3.7715 2.1403 1.3377 3.2109 1.9527 3.2109 1.8457 0 0.29429-1.0298 0.44336-3.0898 0.44336-1.3109 0-3.0109-0.10824-5.0977-0.32227-0.58858 0-1.2425 0.50876-1.9648 1.5254-0.69559 1.0166-1.0449 1.7788-1.0449 2.2871 0 0.80261 0.46988 1.2031 1.4062 1.2031h6.5801c2.1403 0 4.161-0.42709 6.0605-1.2832 2.5416-1.1504 3.8125-2.783 3.8125-4.8965 0-1.3912-1.2709-2.8624-3.8125-4.4141-2.5148-1.5785-3.371-2.1792-2.5684-1.8047l6.7012-1.1641c0.64209-0.13377 1.204-0.74881 1.6855-1.8457 0.37455-0.88287 0.5625-1.6327 0.5625-2.248 0-0.96313-0.38821-1.3779-1.1641-1.2441zm-0.041 1.2461c-0.00033 0.45462-0.15975 1.0421-0.48047 1.7637-0.32104 0.72237-0.5887 1.0963-0.80273 1.123l-7.666 1.3242c0.80261 1.7657 2.0612 3.1838 3.7734 4.2539 1.739 1.0434 2.6074 2.0466 2.6074 3.0098 0 1.5785-1.0298 2.8371-3.0898 3.7734-1.739 0.80261-3.5984 1.2031-5.5781 1.2031h-6.7812c0-0.24078 0.2534-0.73527 0.76172-1.4844 0.53507-0.7491 0.85588-1.123 0.96289-1.123 2.0868 0.21403 3.8133 0.32031 5.1777 0.32031 2.8626 0 4.293-0.54958 4.293-1.6465 0-0.32104-1.0687-1.1486-3.209-2.4863-2.1135-1.3644-3.1719-2.4085-3.1719-3.1309 0-3.1298 4.42-5.4272 13.203-6.9004zm144.47 2.2051 0.1211 0.12109-0.28321 0.2793-0.11914-0.11719 0.28125-0.2832zm39.969 8.9082c-4.3073 1.6855-7.5705 3.7328-9.791 6.1406 2.5951 1.739 6.367 2.9159 11.316 3.5312l-1.5254-9.6719zm64.852 0.72266c-2.1938 0-3.291 1.4323-3.291 4.2949 0 1.7925 0.44135 3.8113 1.3242 6.0586 1.7925 4.5214 4.2403 6.7832 7.3438 6.7832 1.8192 0 2.7285-1.2443 2.7285-3.7324 0-1.9798-0.64161-4.4276-1.9258-7.3438-1.7925-4.0398-3.8521-6.0606-6.1797-6.0606zm-140.58 1.2441c-1.3644 0-2.715 0.21452-4.0527 0.64258-2.0868 0.64208-3.1289 1.6045-3.1289 2.8887 0 1.2039 1.0156 2.4625 3.0488 3.7734 1.3644 0.88286 2.809 1.5653 4.334 2.0469 4.8692-0.96313 7.3047-2.4894 7.3047-4.5762 0-0.93637-0.76215-1.9396-2.2871-3.0098-1.6587-1.1772-3.3995-1.7656-5.2188-1.7656z" stroke="#313131" stroke-width="1.3698px" fill="none"/>
  </g>
  <g id="g4384" fill="#313131" transform="matrix(1.25,0,0,1.25,6e-5,-7.5615)">
   <path id="path4386" fill="#313131" d="m144.78 27.78c16.3-15.69 39.74-23.91 62.26-21.23 29.02 3.26 55.61 24.49 63.95 52.66-4.87-11.64-12.08-22.37-21.75-30.54-25.78-22.59-67.56-24.37-94.73-3.19-13.96 10.13-22.76 25.56-28.89 41.36-3.28 10.07-7.37 19.85-10.78 29.88-2.55 8.81-6.96 17.08-13.12 23.9-9.97 11.36-24.56 17.91-39.47 19.38h-6.55c-13.89-0.93-27.53-6.43-37.56-16.19-10.82-10.13-17.29-24.52-18.14-39.28v-6.82c1.02-18.37 11.27-35.96 26.83-45.79 14.74-9.33 33.84-11.06 50.16-5.04 11.76 4.43 22.37 12.65 28.54 23.71-3.47-4.22-7.02-8.45-11.36-11.84-12.39-10.13-29.36-14.61-45.08-11.28-11.87 2.33-22.74 8.81-30.86 17.72-11.73 12.97-16.58 31.89-12.26 48.87 3.32 14.1 12.75 26.22 24.65 34.24 14.68 8.83 33.66 9.58 49.21 2.52 14.94-6.42 26.16-20 30.76-35.47 4.74-12 8.82-24.25 13.67-36.21 4.68-11.67 11.26-22.74 20.52-31.36z"/>
  </g>
  <g id="g4388" fill="#313131" transform="matrix(-1.2498 -.019634 .019634 -1.2498 497.53 198.14)">
   <path id="path4390" fill="#313131" d="m144.78 27.78c16.3-15.69 39.74-23.91 62.26-21.23 29.02 3.26 55.61 24.49 63.95 52.66-4.87-11.64-12.08-22.37-21.75-30.54-25.78-22.59-67.56-24.37-94.73-3.19-13.96 10.13-22.76 25.56-28.89 41.36-3.28 10.07-7.37 19.85-10.78 29.88-2.55 8.81-6.96 17.08-13.12 23.9-9.97 11.36-24.56 17.91-39.47 19.38h-6.55c-13.89-0.93-27.53-6.43-37.56-16.19-10.82-10.13-17.29-24.52-18.14-39.28v-6.82c1.02-18.37 11.27-35.96 26.83-45.79 14.74-9.33 33.84-11.06 50.16-5.04 11.76 4.43 22.37 12.65 28.54 23.71-3.47-4.22-7.02-8.45-11.36-11.84-12.39-10.13-29.36-14.61-45.08-11.28-11.87 2.33-22.74 8.81-30.86 17.72-11.73 12.97-16.58 31.89-12.26 48.87 3.32 14.1 12.75 26.22 24.65 34.24 14.68 8.83 33.66 9.58 49.21 2.52 14.94-6.42 26.16-20 30.76-35.47 4.74-12 8.82-24.25 13.67-36.21 4.68-11.67 11.26-22.74 20.52-31.36z"/>
  </g>
  <g id="g48" fill="none" stroke="#4d4d4d" transform="translate(-10.189,-12.394)">
   <path id="path4281" stroke-width="3.7055" d="m237.89 116.9 7.7186-13.837"/>
   <path id="path4281-7" stroke-width="3.7055" d="m283.59 118.9-10.29-15"/>
   <g id="#3c3c3bff" stroke-width="7.2025" transform="matrix(.2554 0 0 .27453 194.45 34.883)">
    <path id="path4308" d="m170.64 34.68c19.66-18.46 46.9-26.54 73.31-28.33 27.28-1.61 55.79 2.98 79.38 17.37 14.6 8.7 25.62 22.83 31.05 38.88 7.93 23.21 7.01 48.33 3.9 72.33 2.66 1.53 5.22 3.23 7.71 5.02 0.36 14.26-0.21 29.28-6.85 42.24-2.89 5.5-7.28 10.15-12.63 13.32-4.84 15.24-13.52 29.06-24.15 40.92-13.72 15.06-31.24 27.5-51.34 32.09-9.34 1.82-19.36 2.47-28.4-1.01-15.21-5.53-30.35-11.98-43.36-21.78-11.36-8.43-20.51-19.72-26.61-32.47-2.92-5.62-4.75-11.69-7.05-17.57-7.27-3.74-12.41-10.64-15.28-18.17-4.63-11.92-5.08-24.96-4.74-37.59 1.89-1.28 3.77-2.57 5.68-3.82-2.7-20.88-4.92-42.23-1.21-63.13 2.52-14.55 9.64-28.33 20.59-38.3z" stroke="#4d4d4d" stroke-width="7.2025" fill="none"/>
   </g>
  </g>
  <path id="path4276" fill="#4d4d4d" d="m231.89 46.016c-2.4192-0.20859-3.1972 1.4532-6.0539 0.88572-0.4516 8.8179-1.5001 12.197-2.1288 13.138-1.1906 1.7807-2.0044-6.8483-2.341-15.711l0.1278-1.2302c0.5454-5.2807 3.0148-9.6678 7.5541-13.424 3.9728-3.2887 8.5462-5.2467 13.954-5.9752 2.3872-0.32158 10.906-0.30897 13.233 0.0196 5.7865 0.8169 11.351 3.4095 15.074 7.0233 0.7025 0.68252 1.7229 2.0917 2.5137 3.5597 3.9847 7.4028 2.6305 20.687 2.8522 24.461l-2.357-11.95 1.2223-2.4649c1.1413-2.3014 1.5093 12.923-0.7545 11.221-1.1626-0.87372-8.9966-16.398-9.8098-17.599-0.7061-1.0454-1.3173-1.4769-2.0803-1.4698-0.8348 0.009-1.224 0.24935-2.4318 1.5083-4.3792 4.5648-11.176 6.285-19.042 8.014-1.9578 0.42997-7.3754 0.17999-9.5309-0.007z"/>
  <g id="#333333ff" fill="#333" transform="matrix(.96597 0 0 .96597 384.39 54.191)">
   <path id="path4295" d="m24.04 7.74c0.73 0 2.18-0.01 2.91-0.01 0 1.69 0 3.38-0.01 5.07 6.56 0 13.11 0.01 19.67-0.01-0.01-1.68-0.01-3.37-0.02-5.06h2.82v5.06c6.62 0.01 13.24 0.01 19.86 0.01 0.01-1.69 0.01-3.38 0.02-5.07 0.67 0 2 0.01 2.67 0.01 0.01 1.66 0.03 3.33 0.05 4.99 5.33 0.01 10.66 0 15.98 0 0.01 24.16 0.01 48.31 0 72.47h-79.98c-0.01-24.13-0.01-48.27 0-72.4h15.98c0.01-1.69 0.03-3.38 0.05-5.06m-13.35 8.27c-0.07 22.17-0.01 44.34-0.03 66.52 24.89 0.01 49.78 0.01 74.67 0 0-22.18-0.02-44.35-0.02-66.52-4.44-0.01-8.87-0.01-13.3-0.01l-0.06 5.34c-0.67 0-2-0.01-2.66-0.01-0.01-1.78-0.01-3.55-0.02-5.32-6.59-0.01-13.19-0.01-19.79-0.01l0.15 5.34c-0.74 0-2.22-0.01-2.96-0.01-0.01-1.78-0.02-3.55-0.02-5.33h-19.71c0 1.78-0.01 3.56-0.01 5.34h-2.9c-0.02-1.78-0.03-3.56-0.04-5.34-4.43 0-8.87 0-13.3 0.01z"/>
   <path id="path4297" d="m24 34.65h10.66c0.01 2.66 0.01 5.32 0.01 7.99h-10.67v-7.99z"/>
   <path id="path4299" d="m42.67 34.65c3.55-0.01 7.11-0.01 10.66 0v7.98c-3.55 0.02-7.11 0.02-10.66 0v-7.98z"/>
   <path id="path4301" d="m61.33 42.64c0-2.67 0-5.33 0.01-7.99h10.66v7.99h-10.67z"/>
   <path id="path4303-0" d="m24 47.97c3.56-0.01 7.11-0.01 10.67 0v7.98c-3.56 0.01-7.11 0.01-10.67 0v-7.98z"/>
   <path id="path4305" d="m42.67 47.97c3.55-0.01 7.11-0.01 10.66 0v7.98c-3.55 0.01-7.11 0.01-10.66 0v-7.98z"/>
   <path id="path4307" d="m61.33 47.97c3.56-0.01 7.11-0.01 10.67 0v7.98c-3.56 0.01-7.11 0.01-10.67 0v-7.98z"/>
   <path id="path4309" d="m24 61.28c3.56 0 7.11 0 10.67 0.01 0 2.66 0 5.32-0.01 7.98h-10.66v-7.99z"/>
   <path id="path4311" d="m42.67 61.29c3.55-0.01 7.11-0.02 10.66 0v7.97c-3.55 0.01-7.11 0.01-10.66 0v-7.97z"/>
   <path id="path4313" d="m95.74 93c0.06-0.06 0.19-0.19 0.26-0.25v0.25h-0.26z"/>
  </g>
 </g>
</svg>
