<?xml version="1.0" encoding="UTF-8" standalone="no"?>
<svg id="svg2" xmlns:rdf="http://www.w3.org/1999/02/22-rdf-syntax-ns#" xmlns="http://www.w3.org/2000/svg" height="853pt" viewBox="0 0 1665 853" width="1665pt" version="1.1" xmlns:cc="http://creativecommons.org/ns#" xmlns:dc="http://purl.org/dc/elements/1.1/">
 <metadata id="metadata85">
  <rdf:RDF>
   <cc:Work rdf:about="">
    <dc:format>image/svg+xml</dc:format>
    <dc:type rdf:resource="http://purl.org/dc/dcmitype/StillImage"/>
    <dc:title/>
   </cc:Work>
  </rdf:RDF>
 </metadata>
 <g id="#3c3c3cff" fill="#3c3c3c">
  <path id="path5" d="m817.99 0h17.77c41.08 1.57 81.95 10.66 119.37 27.81 53.37 24.02 100.17 62.5 133.57 110.56 17.3 24.97 30.9 52.58 39.7 81.69-20.2-47.23-49.5-91.21-88.8-124.7-53-47-123.08-72.93-193.52-75.98-65.06-3.07-131.6 13.34-185.99 49.65-10.24 6.99-20.16 14.47-29.8 22.26-30.09 24.98-54.16 56.54-73.48 90.38-13.24 23.44-24.55 47.96-34.07 73.14-13.85 42.04-30.93 82.93-44.98 124.89-13.77 46.66-40.79 89.58-78.08 120.98-31.82 26.59-70.58 44.31-111.07 52.74-14.02 2.84-28.26 5.24-42.62 4.55-15.84 0.6-31.62-1.44-47.17-4.35-39.87-7.86-78.17-24.92-109.55-50.9-17.8-14.84-33.86-31.9-46.88-51.11-24.89-36.43-39.4-79.66-42.39-123.63v-30.62c3.04-46.87 20.14-92.6 48.18-130.23 26.19-35.42 62.27-63.78 103.6-79.31 42.15-16.17 88.87-19.74 133.12-11.09 31.78 6.17 62.04 19.38 88.71 37.66 26.71 18.38 49.84 42.36 65.69 70.75-4.51-5.32-8.91-10.74-13.46-16.03-17.48-20.67-38.21-38.67-61.55-52.42-35.59-21.05-76.93-32.34-118.3-31.99-17.91 0.13-35.72 2.83-53.09 7.1-41.01 10.47-78.68 32.72-108.6 62.53-55.67 54.67-78.98 139.92-58.7 215.29 14.65 57.9 53.94 107.79 103.37 140.44 60.09 35.57 137.26 38.77 200.96 10.86 28.69-12.04 54.61-30.39 75.84-53.11 25.46-27.14 44.23-60.34 55.02-95.92 13.64-35.05 26.27-70.49 39.43-105.73 14.09-37.49 28.19-75.34 49.51-109.46 34.05-56.25 85.75-101.54 145.81-128.21 38.46-17.37 80.32-26.84 122.45-28.49z"/>
  <path id="path7" d="m1399 74.03c11.7-1.59 23.4-0.45 35.1-0.44 31 2.16 61.6 10.35 89.8 23.41 28.8 13.35 54.7 32.63 76 56.09 27.2 29.51 46.4 66.05 56.2 104.87 5.1 20.25 8.1 41.15 7.3 62.04-0.2 7.98 0 15.99-1 23.93-4.7 45.73-23.1 89.75-51.5 125.84 1.5 1.59 3 3.19 4.4 4.88 14 17.34 28 34.64 42.1 51.96 3.7 4.26 7.2 9.13 7.6 14.98v3.01c-0.7 4.85-2.8 9.59-6.6 12.82-5.7 5.21-14.7 6.44-21.6 2.75-4.8-2.38-7.7-7.02-11-10.99-13.7-16.99-27.4-33.99-41.2-50.98-20.7 18.97-44.7 34.33-70.9 44.6-39.7 15.53-83.5 20.13-125.6 13.53-34.5-5.16-67.6-18.59-96.5-38.04-28.6-19.29-53.2-44.98-69.7-75.42 9.7 11.99 19.3 24.05 30.2 35.02 26 26.15 58.1 46.24 93.3 57.47 36.8 12.02 76.8 14.6 114.7 6.38 38.4-7.83 74.5-26.04 104.3-51.35 23.9-19.89 43.6-44.8 57.2-72.75 17.8-36.3 25.9-77.37 22.7-117.71-2.9-34.91-13.9-69.15-32.3-99-18.7-30.56-44.1-57-73.6-77.31-59.8-37.07-137.6-41.67-202.1-14.33-30.5 12.15-58 31.6-80.1 55.8-23.9 25.85-41.8 57.1-52.5 90.6-14.3 34.97-27.5 70.34-41.3 105.49-13.8 35.12-27.6 70.54-47.5 102.75-36.6 61.24-94.1 109.53-160.56 135.46-59.63 23.63-126.54 29.48-189.03 14.36-38.1-9.02-74.4-25.3-106.73-47.36-58.97-40.14-105.42-100.09-124.85-169.15 13.89 34.14 32.45 66.53 56.22 94.78 23.85 28.1 52.44 52.35 84.66 70.35 65.23 36.54 143.39 48.83 216.84 35.41 45.12-8.13 88.6-26.31 125.15-54.06 28.8-20.21 52.9-46.47 72.8-75.35 20.5-29.79 36.8-62.34 50.2-95.85 14.2-41.07 31.5-81 46.2-121.9 2.4-7.4 4.9-14.79 7.8-21.99 18.6-46.46 50.9-87.79 93.1-114.96 33.7-21.79 72.6-35.09 112.3-39.64z"/>
  <path id="path9" d="m775.99 89.94c15.76-8.9 34.02-12.35 51.96-12.74 18.33-0.07 37.09 2.19 53.82 10.1 7.84 3.7 15.25 8.44 21.6 14.37 8.55 8.39 13 19.9 15.87 31.3 5.84 20.66 5.55 42.47 3.04 63.61 2.13 1.53 4.24 3.09 6.34 4.68 0.26 15.96 0.08 33.39-9.32 47.06-2.44 4.29-8.04 6.14-9.02 11.28-5.7 16.14-15.52 30.72-27.79 42.6 7.59 11.22 15.36 22.32 22.96 33.54 27.15 6.21 53.59 19.3 71.87 40.77 14.51 17.32 21.75 40.03 21.93 62.47 0.31 27.48-0.18 54.96 0.5 82.43-6.73 0.01-13.45 0.01-20.16 0-0.05-18.47-0.1-36.95-0.07-55.42-0.25-16.98 1.39-34.45-3.93-50.88-2.21-10.18-8.21-19.04-14.88-26.84-13.16-14.87-31.1-24.97-50.02-30.56-24.1 43.45-49.13 86.38-73.09 129.92-2.39 4.51-5.5 8.57-8.11 12.95-4.21 6.78-7.99 13.8-11.77 20.83-8.12 0.01-16.23 0.02-24.34-0.01 20.11-31.37 38.28-63.91 56.73-96.27-9.97-10.87-22.88-18.4-35.58-25.65-15.5-8.91-31.79-16.82-45.58-28.37-5.42-4.52-10.16-9.87-13.72-15.97-2.82 0.96-5.64 1.93-8.45 2.91-1.19 13.71-4.35 27.33-3.4 41.16 9.62 2.93 18.59 10.44 19.9 20.89 2.44 14.2-9.85 28.83-24.29 28.53-10.8 0.08-20.91-7.42-24.14-17.68-3.98-12.7 4.36-27.59 17.25-30.88 2.02-12.64 3.27-25.4 3.84-38.18-16.67 6.83-32.4 17.24-42.93 32.1-9.84 13.91-13.88 31.19-13.96 48.05-0.03 26.43-0.03 52.87-0.05 79.3-6.66 0.01-13.33 0.02-19.99 0 0.11-27.15 0.17-54.29 0.33-81.43 0.17-18.79 4.8-37.76 14.83-53.77 8.45-13.24 20.31-24.12 33.67-32.29 15.96-9.69 33.75-16.08 51.93-20.11 6.36-11.28 12.65-22.61 18.97-33.91-12.98-11.37-21.23-27.1-26.18-43.43-7.48-4.87-12.25-12.93-14.58-21.4-3.25-10.96-3.31-22.52-3.03-33.85 1.51-1.11 3.04-2.22 4.56-3.33-1.44-12.55-2.76-25.17-2.44-37.83 0.37-10.82 0.71-21.91 4.67-32.13 6.02-16.45 19.16-29.47 34.25-37.92m91.35 37.39c-12.08 12.16-28.94 17.58-45.11 21.85-9 1.92-17.88 5.22-27.19 4.9-7.02 0.02-14.05-0.03-21.04-0.63-7.43-1.12-13.89 4.83-21.37 2.96-0.71 11.26-1.46 22.57-3.76 33.64-0.71 3.81-2.35 7.37-3.05 11.18-1.59 1.21-3.19 2.39-4.81 3.55-0.15 9.32 0.17 18.78 2.73 27.8 2.01 7.74 6.41 15.26 13.69 19.07 2.05 5.56 3.74 11.26 6.22 16.65 5.35 12.06 13.65 22.88 24.33 30.69 10.98 8.17 23.59 13.86 36.4 18.5 13.12 3.32 26.92-1.15 38.17-7.97 20.86-12.96 36.46-33.89 43.73-57.28 2.61-2.93 6.43-4.89 8.47-8.46 7.45-11.49 7.85-25.82 7.74-39.08-2.24-1.56-4.51-3.06-6.8-4.53 0.45-4.68 1.13-9.34 1.37-14.05-1.95-1.48-3.45-3.42-4.62-5.55-10.15-17.16-18.91-35.08-28.55-52.52-1.76-2.92-4.06-6.56-7.95-6.36-3.77-0.04-6.11 3.33-8.6 5.64m-97.06 212.98c5.86 8.84 16.93 11.48 26.68 13.49 17.07 3.16 34.55 3.54 51.59 6.94 10.95 2.21 22.72 5.92 29.64 15.32 6.01-10.64 12.22-21.16 18.1-31.88-7.79-11.26-15.5-22.59-23.27-33.87-8.42 6.13-17.78 11.28-28.01 13.56-7.92 1.68-16.43 2.18-24.17-0.6-11.18-4.26-22.2-9.17-32.18-15.83-6.12 10.96-12.17 21.96-18.38 32.87m-34.84 65.32c-8.86 1.27-15.53 9.58-15.66 18.39-0.85 10.1 8.14 19.66 18.25 19.51 8.99 0.24 18.2-6.26 19.53-15.44 3.01-12.45-9.72-25.03-22.12-22.46z"/>
  <path id="path11" d="m1343.5 192.04c3.2-0.01 6.5-0.01 9.7-0.07 1.7 5.45 0.3 11.31 0.8 16.94 21.5 0.04 43.1 0.01 64.7 0.02 0.1-5.64 0-11.27-0.1-16.89 3.1-0.01 6.3 0 9.4-0.11 2 5.35 0.4 11.37 0.9 17h65.3v-16.88c3-0.02 6-0.02 9-0.1 1.8 5.42 0.5 11.29 0.9 16.91 17-0.01 34 0.05 51-0.06 1.8-0.37 2.5 1.8 2.3 3.21 0 79.79 0.1 159.58 0 239.38-88.2 0.04-176.3 0.01-264.5 0.01-1.6 0.36-3.2-0.64-2.9-2.39v-240.08c17.8 0.04 35.6-0.11 53.3-0.07 0-5.61 0-11.21 0.2-16.82m-43.5 28.38c-0.3 15.86-0.2 31.71-0.2 47.57 0 57.91 0 115.81 0.1 173.73 82.6 0 165.2 0 247.9-0.01 0-73.73 0-147.46-0.1-221.19-14.5-0.28-29.1-0.21-43.5-0.15-0.2 5.95 0.1 11.9-0.3 17.83-3.3 0.07-6.5 0.16-9.7-0.68v-17.17c-21.7-0.02-43.4-0.06-65.1 0.02-0.1 5.94 0.2 11.88 0.5 17.81-3.2-0.02-6.4 0.18-9.6-0.09-0.2-0.3-0.7-0.92-1-1.23-0.3-5.5 0-11.02-0.1-16.53-21.7 0.02-43.3-0.04-64.9 0.03-0.2 5.94 0 11.89-0.1 17.83-3.5 0.01-7.1 0.33-10.5-0.72v-17.12c-14.5-0.09-29 0.1-43.4 0.07z"/>
  <path id="path13" d="m1343.3 308.5c0.1-8.9-0.1-17.8 0.1-26.7 11.8 0.01 23.6 0.11 35.4-0.05 1.4 2.17 1 4.78 1 7.22 0 6.75 0.1 13.5 0 20.25-8.6 0.01-17.2 0-25.8 0.01-3.6-0.03-7.2 0.33-10.7-0.73z"/>
  <path id="path15" d="m1405.6 281.83c11.8-0.06 23.6 0.1 35.4-0.08 1.3 2.2 0.9 4.82 1 7.28-0.1 6.73 0 13.47-0.1 20.2-10.7-0.01-21.3-0.01-31.9 0.02-1.6 0.04-3-0.37-4.5-0.82 0.1-8.87 0-17.73 0.1-26.6z"/>
  <path id="path17" d="m1467.8 281.83c11.8-0.06 23.6 0.09 35.4-0.07 1.4 2.49 0.8 5.45 0.9 8.21-0.1 6.43 0.3 12.88-0.2 19.3-11.5-0.07-22.9-0.07-34.4-0.01-0.4-0.28-1.3-0.84-1.7-1.12v-26.31z"/>
  <path id="path19" d="m1343.4 326.25c11.9-0.06 23.8 0.01 35.7-0.04 1.1 3.15 0.7 6.54 0.7 9.83v17.75c-10.6 0.04-21.2-0.03-31.8 0.04-1.6 0.11-3.2-0.36-4.7-0.88 0.1-8.9 0-17.8 0.1-26.7z"/>
  <path id="path21" d="m1405.6 326.23c11.9-0.03 23.7 0.04 35.6-0.04 1.1 3.16 0.7 6.52 0.7 9.8 0 5.93 0.1 11.87 0 17.8-11 0.02-21.9 0.01-32.9 0.02-1.4 0.13-2.5-0.65-3.6-1.23 0.4-8.78 0-17.57 0.2-26.35z"/>
  <path id="path23" d="m1467.8 326.24c11.9 0 23.8-0.08 35.7 0.04 1.3 9.08 0.3 18.32 0.6 27.47-10.7 0.13-21.5-0.02-32.2 0.08-1.5 0.14-2.9-0.36-4.2-1.01 0.2-8.86 0-17.73 0.1-26.58z"/>
  <path id="path25" d="m1343.3 397.43c0.1-8.91 0-17.83 0.1-26.74 11.8-0.06 23.6 0.1 35.4-0.08 0.6 1.37 1.2 2.82 1 4.36 0 7.72 0.1 15.43 0 23.15h-24.8c-3.9-0.05-7.9 0.37-11.7-0.69z"/>
  <path id="path27" d="m1405.6 370.7c11.8-0.07 23.6 0.09 35.4-0.09 1.3 2.25 0.9 4.9 1 7.4-0.1 6.7 0 13.41-0.1 20.11-10.3 0.01-20.7-0.04-30.9 0.03-1.9 0.07-3.7-0.29-5.5-0.81 0.1-8.88 0-17.76 0.1-26.64z"/>
  <path id="path29" d="m735.44 414.66c5.32-1.78 11.17 2.14 12.54 7.35 1.53 5.72-2.84 12.5-8.96 12.67-6.01 0.89-11.72-4.71-11.25-10.67 0.21-4.34 3.48-8.26 7.67-9.35z"/>
  <path id="path31" d="m420.37 656.4c2.13-1.32 4.74-3.27 7.33-1.97 2.57 1.55 2.64 4.94 2.8 7.61 0.05 27.35-0.12 54.71-0.04 82.06-0.07 4.16 1.54 9.4 6.24 10.21 6.65 0.59 13.36 0.03 20.04 0.27-2.9-5.24-3.2-11.63-1.21-17.23 2.78-8.02 8.42-14.64 14.33-20.57 6.43-6.39 14.84-11.57 24.16-11.62 6.97-0.05 13.08 4.21 17.71 9.06 5.02 5.27 7.63 12.51 7.74 19.74 0.11 7-0.43 14.3-3.73 20.62 8.13-0.1 16.25 0.02 24.38-0.04 2.67 0.01 5.68-0.78 7.21-3.15 2.22-4.23 2.06-9.36 4.63-13.44 2.07-3.28 7.3-3.83 9.92-0.94 3.83 4.33 2 11.11 5.63 15.48 4.01 3 10.88 3.37 14.42-0.57 2.81-4.43 2.05-10.35 5.28-14.6 2.3-2.99 7.22-3.07 9.72-0.28 3.77 4.12 1.74 11.15 6.32 14.74 4.6 2.89 10.41 3.25 15.68 2.65 2.59-0.2 4.27-2.92 3.47-5.36-1.77-6.16-6.48-10.81-10.39-15.68 4.43-6.06 8.7-12.25 13.28-18.21 1.9-2.93 6.8-3.15 8.42 0.18 4.52 9.03 6.73 19.1 7.54 29.13 1.89-4.36 3.67-9.51 8.21-11.79 3.56-1.81 8.56 0.22 9.17 4.35 1.44 10.48-4.71 20.46-3.18 30.93 1.61 8.06 9.58 12.47 16.77 14.77 17.19 5.39 35.85 4.3 53.14-0.1 7.46-2.1 15.62-4.34 20.95-10.35 3.61-3.98 1.3-9.6-1.04-13.58-6.18-10.29-14.76-18.84-23.2-27.27 4.91-8.23 9.84-16.45 14.77-24.67 1.36-2.14 3.09-4.82 6-4.62 2.71 0.52 4.56 2.81 6.3 4.77 6.74 8.24 10.81 18.3 13.64 28.47-0.13-21.46-1.23-42.89-2.58-64.3 6.85-4.78 13.65-9.65 20.53-14.39 2.16-1.34 4.51-3.24 7.24-2.56 3.05 1.26 3.22 5.04 3.36 7.86 0.04 27.02-0.07 54.04-0.06 81.06 0.06 3.56 0.4 7.81 3.55 10.08 3.3 2.18 7.47 1.18 11.19 1.4 10.64-0.29 21.7 0.91 31.96-2.56-5.16-10.94-12.49-20.68-19.05-30.8-2.09-3.5-5.79-6.74-5-11.22 0.69-6.42 1.99-12.77 3.63-19.01 1.02-3.07 1.88-7.25 5.56-8.11 22.05-7.28 44.12-14.48 66.19-21.72 0.01 9.8-0.02 19.6 0.01 29.4-15.28 5.06-30.6 10.02-45.88 15.08 7.26 11.39 14.24 22.97 21.75 34.2 5.29 7.59 13.3 14.3 22.94 14.68 9.97 0.15 19.94 0 29.91 0.07 3.01 0.08 6.57-0.38 8.39-3.09 2.29-4.23 2.07-9.42 4.67-13.51 2.19-3.51 7.92-3.84 10.36-0.44 3.03 4.22 2 10 4.63 14.37 3.78 3.69 11.13 4.05 14.89 0.15 2.92-4.4 2.14-10.35 5.31-14.65 2.29-3.06 7.27-3.16 9.8-0.34 3.73 4.11 1.74 11.07 6.24 14.68 4.55 2.91 10.3 3.27 15.54 2.74 2.64-0.13 4.44-2.78 3.74-5.28-1.75-6.22-6.53-10.9-10.45-15.8 4.39-6.02 8.64-12.14 13.15-18.06 1.6-2.42 5.3-3.43 7.6-1.23 1.8 2.03 2.6 4.79 3.6 7.3 5.5 15.41 7.1 32.86 1.5 48.47-3.2 8.53-8.7 17.18-17.57 20.55-9.1 3.33-21.17 1.8-26.81-6.84-3.78 3.39-8.05 6.49-13.03 7.8-8.65 2.02-18.69-0.46-24.23-7.71-4.96 4.74-11.21 8.89-18.38 8.4-13.98-0.36-28.36 1.32-41.91-2.91-9.22-2.73-16.89-9.28-22.22-17.14-3.23 7.55-9.4 13.84-17.15 16.71-12.34 4.78-25.8 2.96-38.7 3.35-6.97 0.26-14.37-0.62-20.12-4.9-6.34-4.65-9.85-12.16-11.61-19.63-1.21 13.83-5.34 28.26-15.57 38.2-11.31 11.27-27.42 15.81-42.88 17.51-15.83 1.48-32.59 1.36-47.14-5.86-9.15-4.32-17.26-11.51-21.19-20.98-2.78-6.22-3.63-13.1-3.68-19.85-3.59 6.56-9.13 12.6-16.6 14.53-8.68 2.32-19.54 0.53-24.72-7.52-4.07 3.63-8.71 6.95-14.15 8.05-8.37 1.52-17.82-1-23.12-7.96-4.29 3.88-9.19 7.81-15.2 8.23-6.35 0.39-12.71 0.05-19.05 0.17-12.04 0.33-25.26-0.85-34.66-9.22-7.07 5.11-15.48 8.43-24.22 8.99-7.68 0.47-15.38 0.11-23.06 0.22-7.57 0.11-15.71 0.41-22.36-3.81-8.99-5.47-12.74-16.18-14.41-26.04-1.77 8.51-5.45 17.2-12.68 22.46-6.89 4.83-15.27 7.36-23.66 7.55-8.31 0.12-16.62-0.03-24.94 0.06-3.84 0.07-10.91 0.46-10.3-5.26-0.01-11.59 0.01-23.17 0.01-34.75 5.54-0.1 10.74 2.36 16.29 2.33 9.68 0.11 19.4 0.32 29.04-0.67 4.1-0.49 8.46-1.02 11.81-3.67-2.69-4.55-6.83-7.94-10.91-11.18-6.24-4.93-12.88-9.32-19.53-13.65-2.93-1.82-6.06-3.52-9.5-4.05-2.68 0.37-5.2 1.71-7.93 1.64-4.17-0.5-6.5-5.44-5.19-9.21 2.83-9.09 6.88-17.76 10.58-26.52 1.11-3.11 4.41-5.02 7.63-5.01 3.47-0.09 6.73 1.38 9.71 3.03 6.4 3.65 11.85 8.71 17 13.93 8.25 8.58 16.43 17.61 21.22 28.67-0.43-18.95-1.31-37.89-2.55-56.81 7.02-4.88 13.95-9.88 21.01-14.7m5.59 1.92c-1.44 3.05 3.32 0.04 0 0m361.08 1.97c1.36-0.9 1.35-1.81 0-2.73-1.36 0.87-1.36 1.78 0 2.73m-380.86 13.89c1.42 23.26 2.32 46.55 2.36 69.85 0.11 10.69 0.58 22 5.94 31.55 3.07 5.66 9.05 9.53 15.5 9.88 6 0.22 12.01 0.02 18.02 0.09 7.3-0.11 14.77 0.58 21.87-1.54 6.69-1.81 12.67-5.54 17.96-9.93 3.35 3.52 7.23 6.65 11.8 8.44 9.93 4.16 20.89 2.79 31.36 3.03 4.9-0.23 10.3 0.93 14.69-1.88 5.31-2.9 7.76-8.7 9.87-14.04 2.83 4.87 5.78 9.99 10.61 13.16 4.97 3.45 11.94 3.69 17.06 0.42 5.71-3.24 8.04-9.72 10.53-15.4 2.38 5.4 4.54 11.35 9.46 15.01 5.87 4.46 14.61 3.12 19.92-1.61 5.44-4.83 8.42-11.81 10.18-18.73 3.21-13.87 1.16-28.58-4.19-41.65-2.97 4.04-5.92 8.11-8.87 12.18 4.48 5.59 9.8 12.09 8.54 19.78-0.66 4.72-5.15 7.9-9.71 8.17-6.97 0.51-14.8 0-20.44-4.59-4.48-3.75-4.86-9.94-6.47-15.14-2.23 5.84-2.04 13.39-7.74 17.28-6 3.9-14.57 3.54-20.42-0.49-5.34-3.79-4.81-11.01-6.76-16.59-1.53 4.22-2.02 8.8-4.05 12.84-2.56 4.69-8.07 6.83-13.2 6.76-13.33 0.08-26.66 0.02-39.98 0.03 4.17-3.92 8.5-7.98 10.59-13.45 3.68-9.24 3.59-21.01-3.38-28.72-3.87-4.13-9.19-8.02-15.17-7.14-8.58 1.03-15.52 7-21.09 13.2-4.93 5.65-10.1 12.22-10.22 20.07 1.42 7.45 8.68 11.49 14.03 16.03-11.6 0.02-23.2 0.01-34.8 0.02-3.79 0.01-7.81-0.68-10.77-3.21-4.32-3.58-5.23-9.6-5.27-14.89-0.04-27.12 0.12-54.23 0.11-81.35-5.97 4.17-11.91 8.39-17.87 12.56m360.83 0.02c1.55 24.58 2.34 49.21 2.42 73.84 0.36 10.7 1.35 22.42 8.37 31.05 4.6 5.68 12.35 6.97 19.25 6.47 12.84-0.53 26.55 1.84 38.55-3.95 9.44-4.63 12.36-15.6 15.06-24.87 5.95 8.65 11.31 18.5 20.73 23.87 11.89 6.2 25.71 4.78 38.65 4.94 5.13-0.2 10.85 0.98 15.34-2.22 4.98-2.99 7.24-8.57 9.31-13.7 2.71 4.66 5.49 9.52 9.97 12.72 4.98 3.81 12.27 4.29 17.61 0.92 5.76-3.22 8.13-9.75 10.62-15.46 2.45 5.59 4.73 11.79 10 15.39 6.29 4.28 15.25 2.36 20.41-2.9 5.5-5.68 8.4-13.47 9.8-21.17 2.1-12.9 0.1-26.27-4.8-38.3-3 4.05-6 8.11-8.91 12.18 4.51 5.65 10.01 12.34 8.41 20.11-0.7 4.67-5.3 7.65-9.82 7.87-6.94 0.45-14.72-0.07-20.29-4.7-4.39-3.77-4.8-9.9-6.35-15.08-2.3 5.86-2.06 13.44-7.8 17.33-6.26 3.99-15.29 3.53-21.1-1.09-4.67-3.98-4.12-10.67-6.09-15.99-2.09 5.63-2.07 12.74-7.36 16.61-6.37 4.59-14.66 2.53-21.96 2.99-10.55-0.49-21.94 1.79-31.66-3.48-9.6-4.77-15.76-13.89-21.19-22.75-6.93-10.91-13.79-21.86-20.69-32.79 16.43-5.39 32.86-10.81 49.3-16.19 0.01-5.23 0.01-10.46 0-15.69-19.4 6.4-38.9 12.53-58.24 19.1-1.48 7.45-3.93 14.88-4.02 22.49 6.9 10.69 14.32 21.08 20.59 32.18 1.34 2.53 2.86 5.11 3.2 8.02-0.1 3.95-4.25 5.89-7.54 6.83-10.35 2.76-21.18 2.15-31.79 2.3-4.85 0-10.23 0.35-14.33-2.74-4.8-3.43-5.86-9.81-5.89-15.32 0-27.13 0.07-54.26 0.08-81.39-5.94 4.2-11.9 8.37-17.84 12.57m-425.35 42.35c3.06-0.7 6.21-2.28 9.4-1.32 6.55 1.43 11.95 5.57 17.45 9.16 7.44 5.12 14.94 10.31 21.28 16.8 2.47 2.76 5.39 5.92 5.17 9.89-0.71 3.45-3.97 5.62-7.07 6.77-7.65 2.8-15.91 3.02-23.95 3.26-8.59-0.05-17.28 0.52-25.75-1.28-0.01 8.64 0.03 17.29-0.02 25.94 10.25-0.15 20.52 0.16 30.77-0.15 9.12-0.83 19.18-4.47 23.76-12.98 5.11-9.29 5.77-20.23 5.86-30.61-0.5-11.76-7.75-21.81-15.22-30.36-5.6-6.41-11.48-12.65-18.25-17.83-3.6-2.62-7.6-5.14-12.19-5.24-3.91 9.25-8.41 18.3-11.24 27.95m388.61 13.89c8.71 9.1 17.96 18.3 23.03 30.04 2.82 6.05 1.29 13.65-3.88 17.95-8.73 7.48-20.36 10.06-31.32 12.44-16.59 2.99-34.19 3-50.21-2.71-8.06-2.95-16.08-8.56-18.42-17.25-3.06-11.02 3.36-21.7 2.85-32.72-1.5 1.62-2.82 3.42-3.66 5.47-5.65 12.55-8.33 26.58-6.88 40.32 1.11 10.32 7.26 19.87 16.22 25.13 14.54 9.12 32.54 9.4 49.08 7.59 14.6-1.66 30.03-6.2 39.98-17.67 10.15-11.72 12.17-28.01 12.04-42.95-0.58-16.6-5.36-33.76-16.26-46.62-4.15 7.02-8.35 14-12.57 20.98m-215.16 15.07c-1.33 3.58-3.05 6.98-4.93 10.3 2.92-2.67 4.43-6.43 4.93-10.3m-56.54 4.95c-0.04 1.66 1.23 3.13 2.42 4.2 0.91 0.39 1.11 0.08 0.62-0.94-0.82-1.14-1.51-3.13-3.04-3.26m136.7 28.83c1.63 4.46 5.57 7.31 9.89 8.89-3.89-2.25-7.25-5.25-9.89-8.89m379.04-0.01c1.77 4.37 5.59 7.31 9.93 8.87-3.91-2.24-7.18-5.33-9.93-8.87m-637.98 8.85c0.33 3.31 2.88-1.71 0 0z"/>
  <path id="path33" d="m1267.2 656.23c2.1-1.29 4.8-3.15 7.3-1.69 2.6 1.92 2.4 5.59 2.6 8.49 0 26.33-0.1 52.65-0.1 78.97 0.1 3.54 0 7.6 2.6 10.36 2.2 2.32 5.5 2.19 8.4 2.22 5.4-0.11 10.7 0.12 16-0.12 2.4-0.05 5-1.2 5.8-3.54 1.4-3.83 1-8 1.4-11.99 0.3-7.65 3.9-15.09 9.5-20.23 9.2-8.43 24.5-8.1 34-0.45 7.2 5.75 11.6 14.23 14.7 22.72-0.1-23.3-1.1-46.6-2.7-69.85 6.8-4.74 13.5-9.51 20.3-14.23 2.3-1.42 4.8-3.55 7.8-2.64 3.1 1.6 2.9 5.7 3.1 8.72-0.1 26.34-0.1 52.69-0.1 79.03 0.1 3.59 0.1 7.74 2.8 10.48 2.1 2.23 5.5 2.06 8.3 2.1 5.1-0.08 10.1 0.03 15.2-0.03 2.7-0.02 5.8-0.57 7.5-2.94 2.4-4.34 2.1-9.83 5-13.98 2.3-3.18 7.6-3.4 10-0.21 3.3 4.34 1.9 10.56 5.1 14.89 3.9 3.18 10.8 3.54 14.5-0.19 2.9-4.39 2.2-10.36 5.3-14.69 2.2-3 7-3.23 9.6-0.59 3.9 4.03 2 10.98 6.3 14.76 4.7 3.1 10.7 3.5 16.1 2.77 2.9-0.28 4.1-3.53 3.1-5.97-2-5.84-6.4-10.33-10.2-15.03 3.9-5.41 7.8-10.83 11.7-16.27 1.5-1.93 3.2-4.34 6-4.23 2.5-0.08 4 2.15 4.9 4.19 2.5 5.74 4.3 11.82 5.4 17.99 3.1 16.69 1.1 35.69-10.4 48.91-8.9 10.44-27.9 11.34-36.2-0.3-4.9 4.38-10.9 8.35-17.8 8.36-7.3 0.38-14.8-2.5-19.4-8.29-4.4 3.91-9.4 7.91-15.6 8.2-7.6 0.35-15.3 0.02-23 0.15-6.2 0.15-12.6-0.85-17.8-4.35-5.7-3.7-9.1-9.86-11.3-16.11-1.2 8-4.3 16.33-10.9 21.38-6.8 5.08-16.2 4.72-23.9 1.84-7.7-2.91-13.3-9.53-17-16.74-2.5 4.54-5.7 9.05-10.5 11.48-6 3.32-13.1 2.34-19.6 2.48-8.9-0.2-18.5 1.21-26.4-3.61-9.1-5.27-13-15.93-14.7-25.76-2.7 8.62-7.2 17.01-14.4 22.74-5.8 4.6-13.2 6.64-20.5 6.62-7.7-0.02-15.9 0.81-22.9-3.1-7.4-3.84-11.7-11.55-14-19.3-1.9 2.35-3.8 5.43-7.1 5.73-4.2 0.21-8.3-0.87-12.2-2.02-7.9-2.47-15.9-5.33-22.5-10.46-2.8 8.4-7.1 16.66-14.1 22.33-5.6 4.61-13 6.74-20.2 6.8-8.7 0.13-17.5-0.07-26.3 0.09-0.1 2.95-0.3 5.91-0.5 8.87 3.2-2.61 5.9-8.03 10.7-6.95 4.3 2.75 7.4 7.08 11.2 10.51 3.1-3.02 6-6.32 9.3-9.22 1.3-1.32 3.5-2.07 5.2-0.96 3 1.87 5.3 4.72 7.9 7.12 2.4 2.54 5.4 4.67 7.1 7.82 1.2 2.87-1.4 5.18-3.2 7.08-3.9 3.81-7.4 8.09-11.9 11.32 1.5 2.02 4.2 4.38 2.5 7.1-2.8 4.19-6.9 7.28-10.2 11.01-1.9 1.81-4.2 4.84-7.2 3.53-3.1-1.72-5.4-4.54-8.1-6.88-2.5-2.53-5.5-4.64-7.4-7.65-1.5-2.72 1.1-5.08 2.6-7.04-4.5-3.13-8.2-7.22-12.2-10.9-4.3 11.8-11.4 22.52-20.3 31.36-2.6 3.01-6.5 4.49-10.4 4.76h-11.7c-9.6-0.97-19.5-1.42-28.8-4.32-3.28-1.1-7.53-3.58-6.74-7.65 1.02-4.67 5.84-6.85 9.84-8.56 16-6.38 31.7-14.03 45.3-24.69 4.2-3.55 8.7-7.37 10.4-12.77 1.2-3.93-1.5-7.49-3.8-10.4-7.1-8.3-16-14.75-24.7-21.19 5.7-8.29 11.3-16.57 16.9-24.88 1.4-1.88 2.9-4.37 5.5-4.5 2.3-0.09 4 1.87 5.5 3.38 4.9 5.46 9.7 11.08 15.9 15.11 4.6 3.21 10.4 1.7 15.6 2.02 9.3-0.37 19.1 1.2 28-2.34-4.7-8.63-12.5-14.82-19.4-21.64 5-7.65 10-15.28 15-22.94 1.4-2.16 3.4-5.05 6.4-4.12 2.6 1.06 4.5 3.15 6.3 5.17 6.6 7.44 10 17.09 11.7 26.73 1.9-2.84 4-5.6 7-7.45 7.6-5.03 15.6-9.33 23.7-13.6-0.5-3.43-1-6.85-1.5-10.27 4.6-6.36 9.3-12.74 13.9-19.11 1.7-2.2 3.8-4.79 6.9-4.57 3.3 0.34 4.4 3.96 4.8 6.77 2.6 17.66 4.8 35.4 7.6 53.03 1.2 5.04 2.1 11.79 7.6 13.86 7.9 0.57 16.2 1.15 23.6-1.85-4.7-8.63-12.6-14.8-19.5-21.59 5.4-8.16 10.6-16.42 16.1-24.53 1.2-2.35 4.3-3.65 6.6-1.95 6.6 4.57 10.7 11.77 13.5 19.05-0.3-17.4-1.3-34.77-2.3-52.14 7-4.91 14-9.98 21.2-14.83m5 2.09c-1.4 3.05 3.3-0.01 0 0m120.9-0.06c-1.6 2.97 3.3 0.27 0 0m-140.4 15.95c1.5 22.91 2.3 45.86 2.4 68.82 0 9.27 0.4 18.76 3.6 27.56 1.9 5.31 5.3 10.52 10.7 12.97 6.7 3.24 14.4 1.59 21.6 1.98 5.4-0.34 11.6 1.28 16.4-2.25 7.3-5.43 10.4-14.38 13.7-22.47 4.3 10.38 9 22.04 19.5 27.53 5.7 2.84 13.4 3.16 18.4-1.25 5-4.55 7-11.49 7.6-18.03 0.9-13.07-2-26.56-8.9-37.74-3.3-5.32-8.2-10.05-14.4-11.67-5.4-1.35-11.6-0.9-16.3 2.39-6.1 4.21-9.5 11.6-9.4 18.91-0.2 5.78-0.2 12.6-4.9 16.77-4.2 3.94-10.3 3.31-15.7 3.34-6.1-0.36-12.7 1.02-18.6-1.52-5.9-2.61-7.9-9.64-7.9-15.61 0-27.45 0.1-54.9 0.1-82.35-6 4.24-11.9 8.41-17.9 12.62m120.8-0.01c1.1 16.57 1.9 33.16 2.2 49.76 0.4 11.36-0.3 22.76 0.9 34.08 1 7.76 3 15.98 8.5 21.86 4 4.28 10.1 5.93 15.8 5.67 8.2-0.17 16.5 0.24 24.7-0.2 7.8-1.37 11.9-8.91 14.3-15.7 2.7 4.58 5.5 9.41 9.9 12.59 4.9 3.85 12.2 4.41 17.6 1.08 5.8-3.19 8.2-9.78 10.7-15.54 2.5 5.72 4.9 12.15 10.4 15.66 6.5 4.07 15.5 1.85 20.5-3.6 5.3-5.72 8.1-13.36 9.4-20.95 2.1-12.83 0-26.1-4.9-38.07-3 4.03-5.9 8.11-8.9 12.16 4.4 5.41 9.4 11.57 8.7 18.96-0.3 4.79-4.5 8.5-9.2 8.91-7 0.7-14.9 0.18-20.7-4.19-4.8-3.7-5.3-10.08-6.8-15.45-2.4 5.66-2 12.99-7.4 16.99-6.1 4.29-15.1 3.92-21-0.39-5.2-3.86-4.6-10.89-6.6-16.39-2.1 5.45-2 12.28-6.9 16.25-5.2 4.4-12.4 3.21-18.7 3.37-6.2-0.28-13.1 1.15-18.5-2.53-5-3.39-6.2-9.92-6.2-15.54 0-27.13 0.1-54.25 0.1-81.37-6 4.19-11.9 8.39-17.9 12.58m-199.3 31.81c0.2 3.98 1 7.9 1.5 11.87-8.5 4.66-17.2 9.17-25.4 14.43-7.1 3.93-10 12.31-11.9 19.73-1.3 4.14 2.8 6.82 5.9 8.57 8.1 4.17 16.8 7.38 25.8 8.51 3.5-4.83 5.8-10.35 8.3-15.7-10.5-1.43-21.3-3.95-30.2-10.18 7.6-8.74 18.1-14.24 28.9-18.24 1.3 8.67 2.8 17.31 4 26 0.2 7.52 2.8 14.71 5.2 21.75 2.6 7.37 9.8 12.83 17.7 12.76 6.5-0.09 13.2 0.65 19.5-1.07 7.8-2.28 13.6-8.77 17-15.85 6-11.79 7-25.89 3.1-38.49-2-7.14-5.2-14.31-10.9-19.33-4 6.32-8.1 12.56-12.2 18.84 5.9 5.72 12.3 11.3 16.2 18.66 1.8 3.09 1 7.43-2.2 9.2-6.8 3.95-15 3.4-22.5 3.62-5.5 0.26-11.1-2.29-13.8-7.2-4.2-7.19-4.6-15.7-5.9-23.71-2-13.84-3.9-27.69-5.8-41.53-4 5.85-8.7 11.31-12.3 17.36m-54.9 4.69c-4.1 6.31-8.2 12.63-12.3 18.97 6 6.04 13 11.68 16.6 19.64 1.8 3.94-1.1 8.1-4.9 9.34-8.8 3.29-18.5 2.18-27.7 2.41-6.3-0.29-13.1 1.17-18.7-2.34-7.5-4.41-13.4-10.97-19-17.51-4.5 6.92-9.1 13.73-13.7 20.61 7.5 5.51 14.9 11.46 20.8 18.72 3.4 4.27 6.6 9.67 5.2 15.34-1.8 7.09-7.4 12.34-12.8 16.85-11.9 9.49-25.5 16.68-39.4 22.56-4.7 2-9.7 3.43-13.65 6.66 7.45 2.65 15.35 3.23 23.15 3.96 6.7 0.46 13.5 1.18 20.1 0.23 4.5-2.29 7.4-6.77 10.6-10.58 12.4-16 16.4-36.81 15.6-56.64 2.9 2.51 5.3 7.06 9.7 6.65 8.1-0.07 16.1 0.06 24.2-0.08 9.2 0.09 17.5-5.69 21.9-13.5 7.3-11.82 9.1-26.63 5.6-39.97-1.9-7.88-5.4-15.59-11.3-21.32m38.9 31.32c4.9 2.35 10.2 3.56 15.6 4.39-0.6-4.12-1.3-8.23-1.9-12.34-4.9 2.03-9.6 4.64-13.7 7.95m166 34.43c3 6.37 7.9 11.95 14.3 14.95-6-3.67-10.5-9.14-14.3-14.95m155.4 2.92c1.8 4.28 5.5 7.2 9.8 8.75-3.8-2.22-7.1-5.28-9.8-8.75m-406.8 8.47c-0.3 3.3 3.2-1.13 0 0m11.6 13.13c-3.4 3.26-6.6 6.53-9.9 9.81 3.4 3.26 6.8 6.53 10.3 9.8 3.2-3.2 6.3-6.4 9.5-9.58-3.3-3.34-6.6-6.7-9.9-10.03m15.9 9.69c3.3 3.24 6.6 6.58 9.9 9.88 3.2-3.23 6.4-6.46 9.6-9.7-3.4-3.29-6.7-6.57-10.1-9.84-3.2 3.21-6.4 6.37-9.4 9.66m-12.4 22.35c3.4 3.14 6.7 6.3 10.1 9.44 3.1-3.17 6.3-6.33 9.4-9.49-3.2-3.19-6.5-6.36-9.8-9.54-3.2 3.19-6.4 6.38-9.7 9.59z"/>
  <path id="path35" d="m324.03 657.1c1.97-1.41 4.84-2.83 7.08-1.15 2.39 1.87 1.97 5.35 1.89 8.05-3.24 39.05-6.45 78.1-9.69 117.14-0.4 3.41-0.9 7.18-3.4 9.76-2.45 2.61-7.1 2.35-9.27-0.48-2.82-3.55-3.38-8.23-3.98-12.56-3.22-27.74-6.52-55.46-9.74-83.19-10.5 3.61-21 7.22-31.49 10.86 7.01 10.83 13.5 22.52 15.47 35.44 1.7 14.54-2.39 30.44-13.27 40.69-8.18 7.64-19.7 10.43-30.64 10.39-31.83 0.02-63.65 0.02-95.48 0.01 0-12.47-0.01-24.93 0.01-37.38 30.17 0 60.33-0.01 90.5 0 9.35-0.17 19.07 0.52 28.02-2.67-7.17-14.56-17.4-27.35-25.89-41.12-1.02-5.88 2.03-11.62 3.62-17.19 1.72-4.06 2.84-9.67 7.7-11.01 18.8-6.45 37.6-12.9 56.39-19.38v9.8c7.41-5.31 14.74-10.74 22.17-16.01m-22.16 24.07c3.76 31.95 7.51 63.89 11.25 95.84 0.34 3.18 0.97 6.34 2.05 9.36 1.54-2.14 1.52-4.85 1.81-7.35 3.17-38.58 6.38-77.16 9.55-115.74-8.21 5.97-16.45 11.92-24.66 17.89m-55.46 8.07c-2.5 6.27-4.8 12.66-6.21 19.28 7.34 10.83 14.72 21.65 21.47 32.87 1.84 3.38 4.12 6.7 4.69 10.58-0.05 3.38-3.29 5.46-6.16 6.43-6.49 2.15-13.41 2.43-20.18 2.72-30.68 0.03-61.36-0.01-92.04 0.02 0.01 8.14-0.05 16.27 0.04 24.41 29.98-0.02 59.97 0.02 89.96-0.01 9.16-0.04 18.81-2.49 25.54-9.03 9.34-8.94 12.45-22.85 10.83-35.33-2.86-14.39-11.02-26.93-18.86-39.07 13.3-4.64 26.62-9.24 39.92-13.88-0.04-5.28-0.28-10.56 0.02-15.84-16.35 5.61-32.7 11.18-49.02 16.85z"/>
  <path id="path37" d="m487.31 661.41c3.16-1.46 5.75 1.49 7.83 3.43 3.82 3.87 8.08 7.32 11.68 11.4 1.65 1.72 1.12 4.49-0.51 6.03-4.03 4.3-8.3 8.38-12.48 12.54-1.66 1.88-4.66 2.88-6.79 1.17-4.17-3.46-7.81-7.51-11.82-11.14-2.04-1.97-4.93-4.63-3.38-7.74 2.01-3.3 5.14-5.7 7.73-8.53 2.54-2.41 4.68-5.37 7.74-7.16m-8.68 17.49c3.67 3.59 7.32 7.2 11 10.78 3.61-3.62 7.23-7.22 10.86-10.83-3.74-3.57-7.5-7.13-11.26-10.68-3.54 3.57-7.07 7.15-10.6 10.73z"/>
  <path id="path39" d="m569.69 670.71c1.89-1.77 3.56-4.26 6.31-4.66 2.41-0.31 4.18 1.65 5.82 3.1 3.37 3.3 6.87 6.45 10.22 9.77 1.37 1.27 2.44 3.11 1.78 5.04-0.82 1.76-2.37 3.04-3.69 4.42 3.8 1.79 6.44 5.14 9.5 7.9 2.31 2.34 5.05 4.32 6.92 7.07 1.2 2.27-0.09 4.82-1.84 6.37-3.89 3.79-7.59 7.79-11.61 11.44-1.69 1.6-4.46 1.53-6.11-0.09-3.39-3.01-6.41-6.41-9.68-9.54-3.13 3.09-6.02 6.43-9.28 9.4-1.68 1.65-4.53 1.94-6.32 0.32-3.42-2.88-6.39-6.25-9.67-9.28-1.61-1.69-3.64-3.18-4.54-5.39-0.85-3.34 2.37-5.6 4.31-7.77 3.89-3.52 6.94-8.09 11.66-10.58-2.03-1.89-4.73-4.68-2.97-7.63 2.62-3.69 6.19-6.54 9.19-9.89m-2.49 11.97c3.26 3.16 6.52 6.31 9.79 9.47 3.21-3.17 6.4-6.35 9.61-9.51-3.32-3.19-6.66-6.35-9.99-9.52-3.16 3.17-6.29 6.36-9.41 9.56m-12.58 22.73c3.33 3.22 6.66 6.45 9.97 9.7 3.23-3.13 6.38-6.36 9.54-9.56-3.32-3.29-6.64-6.57-9.94-9.86-3.19 3.24-6.39 6.47-9.57 9.72m25.43-0.26c3.31 3.31 6.63 6.63 9.95 9.94 3.27-3.25 6.54-6.51 9.8-9.77-3.39-3.22-6.78-6.42-10.16-9.65-3.22 3.14-6.4 6.31-9.59 9.48z"/>
  <path id="path41" d="m949.75 669.77c1.95-2.09 4.69-4.87 7.81-3.29 3.19 2.01 5.62 4.99 8.44 7.49 2.27 2.34 5.08 4.28 6.81 7.1 1.43 3.04-1.7 5.39-3.53 7.3 4.97 2.58 8.33 7.25 12.56 10.8 2.06 2.02 5.39 4.42 4.05 7.75-1.28 2.54-3.65 4.28-5.56 6.31-2.95 2.74-5.51 5.92-8.71 8.38-1.75 1.27-4.19 0.77-5.65-0.66-3.31-3-6.31-6.31-9.51-9.41-3.03 3-5.86 6.18-8.95 9.12-1.56 1.59-4.21 2.34-6.14 0.96-2.87-2.11-5.15-4.89-7.75-7.29-2.34-2.41-5.1-4.49-6.88-7.38-1.19-3.43 2.14-5.88 4.16-8.09 3.9-3.52 6.94-8.13 11.71-10.6-2.03-1.9-4.72-4.67-2.98-7.64 2.89-4.03 6.82-7.17 10.12-10.85m-3.41 12.91c3.26 3.14 6.51 6.3 9.77 9.45 3.21-3.17 6.41-6.33 9.63-9.49-3.33-3.18-6.66-6.35-10-9.52-3.14 3.18-6.28 6.37-9.4 9.56m-3.04 13.03c-3.16 3.22-6.31 6.45-9.52 9.62 3.25 3.34 6.65 6.55 10.01 9.79 3.16-3.19 6.32-6.38 9.49-9.56-3.33-3.29-6.63-6.59-9.98-9.85m15.89 9.43c3.28 3.32 6.63 6.58 9.87 9.94 3.36-3.18 6.56-6.52 9.85-9.78-3.37-3.22-6.77-6.41-10.13-9.64-3.21 3.15-6.4 6.31-9.59 9.48z"/>
  <path id="path43" d="m1209.4 669.56c3.1-1.08 5.5 1.66 7.5 3.52 3.8 3.86 8.1 7.31 11.6 11.37 1.8 1.84 1 4.7-0.7 6.29-4.1 4.27-8.3 8.44-12.6 12.59-1.7 2.03-5 2.35-6.9 0.42-3.9-3.43-7.5-7.24-11.3-10.77-1.8-1.87-4.6-3.96-3.6-6.93 1.5-3.41 4.7-5.67 7.2-8.38 3-2.7 5.4-6.08 8.8-8.11m-9 17.66c3.7 3.59 7.4 7.15 11 10.73 3.7-3.56 7.2-7.18 10.8-10.74-3.7-3.59-7.5-7.19-11.2-10.77-3.6 3.58-7.1 7.19-10.6 10.78z"/>
  <path id="path45" d="m1050.3 682.11c2.4-1.33 4.9 0.33 6.5 2.04 3.8 3.63 7.6 7.12 11.3 10.83 1.6 1.42 2.1 4.02 0.7 5.77-2.6 3.35-6 6.06-8.9 9.17-1.9 1.72-3.5 3.98-6 4.9-3.5 0.91-5.8-2.58-8.1-4.59-3.2-3.5-7.3-6.3-9.9-10.32-1.3-3.35 2.1-5.8 4-7.98 3.5-3.2 6.4-7.15 10.4-9.82m2.1 6.68c-3.2 3.2-6.4 6.4-9.5 9.6 3.2 3.15 6.5 6.28 9.7 9.41 3.2-3.18 6.4-6.35 9.7-9.51-3.3-3.18-6.6-6.34-9.9-9.5z"/>
  <path id="path47" d="m180.41 704.36c9.11-5.98 20.09-8.09 30.66-9.9 3.34-0.96 5.37 2.77 4.79 5.63-0.62 4.01-2.06 8.72-5.9 10.74-4.62 1.44-9.51 1.73-14.23 2.76 4.65 3.06 10.03 5.8 12.74 10.93 2.44 5.11-0.21 11.33-4.5 14.57-5.18 3.9-11.65 5.89-18.06 6.38-5.97 0.25-11.94 0.03-17.91 0.14-2.26-0.05-5.23 0.21-6.51-2.11-1.74-2.8 0.05-6.05 1.58-8.49 1.77-2.67 4.28-5.81 7.88-5.4 5.03 0.36 10.06 0.81 15.11 0.69-4.63-2.94-10.05-5.64-12.53-10.81-2.05-5.95 2.03-11.97 6.88-15.13m30.86-6.25c0.24 3.34 2.89-1.64 0 0m-24.51 9.88c-3.45 1.83-7.45 4.64-7.32 9.02 4.13 5.7 11.65 7.55 15.99 13.02 0.83 3.28-2.43 5.6-5.27 6.1-6.56 1.34-13.3 0.34-19.91-0.02-0.52 0.76-1.57 2.28-2.09 3.04 9.35-0.31 19.29 1.34 28.01-2.95 3.52-1.45 7.59-4.68 6.55-8.96-1.87-3.43-5.79-4.87-8.63-7.34-3.77-2.89-6.13-7.11-8.11-11.32 6.67-1.19 13.36-2.22 20.01-3.48 2.09 0.02 2.25-2.39 3.15-3.71-7.66 1.34-15.38 3.12-22.38 6.6m2.74 22.06c0.08 3.29 3.05-1.48 0 0z"/>
  <path id="path49" d="m695.38 721.48c2.55-1.3 5.09 0.55 6.82 2.31 4.05 3.96 8.3 7.71 12.25 11.76 1.84 1.6 2.11 4.58 0.34 6.36-3.4 3.89-7.31 7.3-10.86 11.06-1.88 1.76-3.88 4.37-6.8 3.83-2.86-0.72-4.61-3.39-6.73-5.23-3.41-3.62-7.53-6.61-10.43-10.66-1.73-3.34 1.68-6.07 3.72-8.24 3.98-3.64 7.23-8.12 11.69-11.19m2.02 6.7c-3.54 3.63-7.12 7.23-10.68 10.86 3.69 3.56 7.37 7.14 11.07 10.72 3.61-3.63 7.23-7.25 10.85-10.88-3.75-3.57-7.47-7.17-11.24-10.7z"/>
  <path id="path51" d="m1335.4 728.5c3.9-1.89 8.8-0.93 12.3 1.72 4.4 3.39 7.2 8.47 9.5 13.48 2.9 6.7 5.4 13.88 5 21.28-0.2 3.53-1.8 7.53-5.4 8.76-4.2 1.27-8.7 0.05-12.3-2.23-5.1-3.43-8.3-8.96-10.6-14.5-2.7-6.35-4.5-13.27-3.7-20.18 0.4-3.34 2-6.85 5.2-8.33m2.9 5.88c-2 1.45-1.8 4.37-1.8 6.59 0.5 7.04 3 13.9 6.7 19.89 2.4 3.83 6.6 7.59 11.4 6.73 1.8-2.29 1.1-5.51 0.9-8.17-1.5-7.23-4.3-14.26-8.3-20.4-2-2.73-5.3-6.18-8.9-4.64z"/>
  <path id="path53" d="m478.42 731.62c7.01-1.8 14.85-1.21 20.99 2.87 3.4 2.31 7.42 5.07 7.98 9.49 0.25 4.32-3.22 7.72-6.81 9.52-4.22 2.08-8.81 3.51-13.47 4.16-5.76-1.46-11.08-4.55-15.7-8.25-3.18-2.56-5.95-6.95-4.01-11.06 2.01-4.16 6.89-5.61 11.02-6.73m-4.95 9.01c-0.76 1.38 0.8 2.4 1.59 3.34 3.71 3.18 8.14 5.44 12.64 7.3 4.74-1.58 11.12-1.95 13.52-7.05-3.8-3.77-8.63-6.97-14.16-7.06-4.68-0.03-9.7 0.69-13.59 3.47z"/>
 </g>
 <g id="#ff0000ff" fill="#f00">
  <path id="path56" d="m148.1 201.36c9.38-2.63 19.24-2.19 28.86-1.54 14.84 1.16 29.8 5.34 42.02 14.08 9.07 6.42 16.28 15.56 19.93 26.1 4.42-12.39 13.95-22.49 25.37-28.78 12.39-6.89 26.65-9.76 40.71-10.22 7.55-0.15 15.21-0.28 22.58 1.6 17.2 4.11 32.04 15.53 42.09 29.89 13.08 18.64 19.46 41.79 18.42 64.49-1.04 17.86-6.59 35.4-15.79 50.74-23.76 0.03-47.52-0.01-71.28 0.02-2.15-0.05-4.63 0.35-5.88 2.32-3.31 4.99-6.14 10.29-9.33 15.37-4.08-35.54-8.07-71.09-12.13-106.63-0.21-2.86-1.55-6.24-4.7-6.83-3.58-1.04-7 2.37-7.1 5.84-3.99 37.06-7.74 74.16-11.94 111.21-1.46-5.2 0.23-12.54-5.1-15.83-5.94-0.86-12.03-0.72-17.99-0.19-5.05 2.03-5.66 8.29-8.07 12.55-5.03-45.53-9.93-91.06-14.8-136.61-0.38-2.84-0.24-6.23-2.62-8.29-3.39-3.32-9.28-0.19-9.37 4.27-4.49 44.6-8.77 89.21-13.18 133.82-21.86-0.01-43.72-0.01-65.58 0-15.6-19.26-24.75-43.89-24.52-68.75 0.13-22.5 7.42-45.17 21.48-62.85 9.62-12.17 22.84-21.76 37.92-25.78z"/>
  <path id="path58" d="m197.88 284.17c4.28 34.87 7.52 69.85 11.65 104.73 0.43 4.89 8.14 6.72 10.31 2.09 4.15-8.42 7.97-17 11.9-25.52 1.95-0.01 3.89-0.01 5.84-0.01 2.35 17.16 4.74 34.31 7.06 51.47 0.3 2.97 1.14 6.78 4.43 7.73 3.57 1.2 7.42-1.87 7.53-5.52 3.79-35.48 7.48-70.98 11.24-106.46 3.14 24.11 5.47 48.31 8.47 72.44 0.17 4.75 7.18 7.2 9.95 3.14 5.64-9.15 10.95-18.51 16.36-27.79 20.17-0.08 40.34-0.07 60.51-0.08-5.95 7.29-12.86 13.73-20.15 19.65-34.91 28.92-70 57.64-106.2 84.92-38.08-30.08-75.03-61.56-111.6-93.44 19.29 0.08 38.58-0.11 57.86-0.05 3.65 0.44 6.85-2.75 6.85-6.32 2.68-26.99 5.29-53.99 7.99-80.98z"/>
  <path id="path60" d="m901.19 445.88c6.1-0.04 12.21-0.19 18.32-0.23 0.07 6.45 0.18 12.9 0.17 19.35 6.38 0.04 12.75-0.11 19.13-0.06 0.15 6.1 0.24 12.2 0.29 18.31-6.48 0.06-12.96 0.2-19.44 0.15-0.03 6.47 0.09 12.93 0.15 19.4h-18.55c0.03-6.47 0.06-12.93 0.1-19.39-6.48-0.06-12.95 0.05-19.42 0.06v-18.47c6.48-0.02 12.95 0.01 19.43 0.08-0.01-6.4-0.12-12.8-0.18-19.2z"/>
 </g>
 <g id="#392b2b48" fill="#392b2b">
  <path id="path63" opacity=".28" d="m425.96 658.32c3.32 0.04-1.44 3.05 0 0z"/>
  <path id="path65" opacity=".28" d="m787.04 660.29c-1.36-0.95-1.36-1.86 0-2.73 1.35 0.92 1.36 1.83 0 2.73z"/>
  <path id="path67" opacity=".28" d="m1272.2 658.32c3.3-0.01-1.4 3.05 0 0z"/>
  <path id="path69" opacity=".28" d="m1393.1 658.26c3.3 0.27-1.6 2.97 0 0z"/>
  <path id="path71" opacity=".28" d="m211.27 698.11c2.89-1.64 0.24 3.34 0 0z"/>
  <path id="path73" opacity=".28" d="m189.5 730.05c3.05-1.48 0.08 3.29 0 0z"/>
  <path id="path75" opacity=".28" d="m458.57 750.46c1.53 0.13 2.22 2.12 3.04 3.26 0.49 1.02 0.29 1.33-0.62 0.94-1.19-1.07-2.46-2.54-2.42-4.2z"/>
  <path id="path77" opacity=".28" d="m336.33 788.13c2.88-1.71 0.33 3.31 0 0z"/>
  <path id="path79" opacity=".28" d="m1072.8 787.84c3.2-1.13-0.3 3.3 0 0z"/>
 </g>
</svg>
