<?xml version="1.0" encoding="UTF-8" standalone="no"?>
<svg id="svg10499" xmlns:rdf="http://www.w3.org/1999/02/22-rdf-syntax-ns#" xmlns="http://www.w3.org/2000/svg" viewBox="0 0 423.93029 423.93028" height="119.64mm" width="119.64mm" version="1.1" xmlns:cc="http://creativecommons.org/ns#" xmlns:dc="http://purl.org/dc/elements/1.1/">
 <metadata id="metadata10504">
  <rdf:RDF>
   <cc:Work rdf:about="">
    <dc:format>image/svg+xml</dc:format>
    <dc:type rdf:resource="http://purl.org/dc/dcmitype/StillImage"/>
    <dc:title/>
   </cc:Work>
  </rdf:RDF>
 </metadata>
 <g id="layer1" transform="translate(11.965 -634.68)">
  <g id="g4661" transform="translate(1023.5 -172.17)">
   <g id="g4898" fill="#de8787" transform="matrix(1.5328 0 0 1.5328 -5386.7 2939.2)">
    <path id="path4445" d="m2971.7-1341.5h13.621c0.527 1.2383 1.5281 3.6885 2.055 4.9004-6.0596-0.026-12.093-0.1317-18.126-0.3425 0.606-1.1329 1.8442-3.425 2.4502-4.5579z"/>
    <path id="path4451" d="m2968.7-1334.4c6.2968 0.5006 12.646 0.606 18.996 0.3162-0.1581 1.8179-0.5006 5.4273-0.685 7.2452-5.8752 0.8957-11.935 0.8167-17.757-0.527-0.1317-1.7652-0.4215-5.2692-0.5533-7.0344z"/>
    <path id="path4453" d="m2925-1311.8c6.7182-6.3231 16.361-13.226 25.977-9.3265 8.8523 4.7686 7.7194 16.176 6.9553 24.634-1.5544 13.858 3.5568 27.11 6.3495 40.468-6.4285 0.685-12.91 1.0802-19.391 0.5533-0.9748-1.5808-2.8981-4.7423-3.8729-6.3231 0.3689-7.3242 3.425-14.675 1.5544-21.999-1.0011 5.638-1.6334 11.329-2.5292 16.967-4.0836-3.9256-5.4273-9.4056-7.456-14.464-0.053 9.8271 6.85 17.573 10.38 26.32-8.0092 0.8694-18.469 2.4502-23.553-5.5327-6.6129-6.5075-5.48-15.992-3.2933-24.133-7.6667 10.064-1.8442 22.737 6.3494 30.324-9.1421 2.74-15.808-5.4009-24.581-5.1638 4.874 1.9496 9.7217 3.9782 14.069 7.008l-5.6908 0.9485 0.2108 1.8179c11.882-4.031 24.502-3.346 36.858-3.1352 1.3436 0.764 4.0573 2.2658 5.4009 3.0035-1.9496 0.4478-5.8488 1.3436-7.8248 1.7915l0.1581 1.6598c-4.3208 1.5017-8.5888 3.1089-12.91 4.5579 0.1317 0.4742 0.3688 1.37 0.4742 1.8442 5.1902-2.055 10.275-4.2681 15.254-6.7973-1.1065 2.2921-3.2932 6.9027-4.3998 9.1948l-0.9221 0.9485c0.2371-0.2371 0.685-0.7114 0.9221-0.9485 3.0825-1.9496 4.3208-5.3482 5.5591-8.5625 3.7675-0.9748 11.329-2.9771 15.123-3.9519-6.4548 6.6656-12.383 14.438-20.866 18.706-5.7171 2.898-12.251 0.5269-17.942-1.1593-2.2394-4.3734-5.6381-7.9828-10.38-9.6163 2.74 3.0561 5.6381 5.9279 8.5625 8.7996-8.4308 1.0275-17.441 0.5269-25.161 4.6369 8.3781-1.0802 16.704-2.7663 25.213-2.9244-4.4525 4.0837-9.4056 8.0356-11.592 13.884 4.0309-4.3734 8.0356-8.8786 13.068-12.146 5.0848 0.6586 10.196 1.1855 15.307 1.6334-1.6335 4.0046-1.3173 10.222-6.7183 11.25-6.9817 2.5293-15.228 4.0837-18.732 11.54 6.2967-6.0069 14.438-8.9313 22.737-11.039-2.7927 5.6381-4.3207 11.908-3.4513 18.205 1.2383-4.9531 1.9233-10.038 3.504-14.912 4.4789 4.7159 8.905 9.59 14.411 13.12-3.5831-5.4274-9.8271-8.7997-12.462-14.807 0-4.5052 0.9749-8.905 1.6862-13.331 11.54-3.4777 17.626-14.57 27.4-20.708 0.3162 17.441 0.3688 35.541-5.7698 52.086-7.4823 11.645-23 11.566-35.093 14.174-10.591 1.528-18.1 10.618-28.638 12.225-13.278-19.997-12.62-45.658-7.8511-68.263 6.0333-26.926 17.915-53.351 37.596-73.058z"/>
    <path id="path4455" d="m2968.5-1324.2c6.3757 0.6587 12.804 0.7904 19.233 0.4216-0.3688 1.8442-1.0801 5.5327-1.449 7.3505-6.771 0.1581-20.234 3.2933-17.784-7.7721z"/>
    <path id="path4457" d="m3007.1-1321.8c11.487-2.5556 21.13 6.5075 28.375 14.148 22.184 25.45 34.619 58.884 36.674 92.422 0.2108 14.78-1.5281 30.72-10.196 43.155-6.0859 3.2406-11.592-3.3986-16.888-5.6644-14.438-9.6427-36.648-3.2406-47.476-18.917-6.4548-16.73-6.165-35.225-5.8225-52.903 6.929 5.4536 12.514 12.488 19.68 17.705 6.9818 5.0321 15.808 2.3184 23.712 2.3975 5.7434 2.0023 9.1158 7.7194 13.489 11.645-2.4765-5.6117-7.2979-9.6164-11.408-13.99 8.4045 0.1581 16.624 2.0813 24.95 2.9507-7.8775-3.8992-16.888-3.6884-25.398-4.5578 2.9245-2.8454 6.007-5.5591 8.747-8.6152-7.5087 1.9232-9.9589 12.014-18.39 11.54-13.805 2.1604-22.236-11.092-30.957-19.312 2.4766 0.4742 7.4033 1.4226 9.8798 1.8969 0.3162-1.1856 0.9485-3.5568 1.2383-4.7423 14.648 0.1844 29.587-1.7652 43.787 3.0561-1.3436-1.1065-4.0046-3.2669-5.3483-4.3734 3.7412-1.8443 7.7458-3.3723 10.986-6.0597-4.9004 1.0275-9.3266 3.4777-13.542 6.086-2.3975-0.1581-7.1662-0.4742-9.5637-0.606 8.9314-7.1134 13.542-19.443 7.5877-29.956 0.7377 8.1673 2.6083 17.757-4.2944 24.001-5.4273 7.9039-15.755 6.1387-24.001 6.4021 3.6885-9.1948 11.118-17.23 11.329-27.479-2.2658 4.874-3.0298 10.881-7.8512 14.095-0.8431-4.9531-1.449-9.9325-1.8969-14.938-0.4742-0.026-1.3963-0.1054-1.8706-0.1317 0.079 8.6942 6.4021 19.391-1.1856 26.346-5.7698 2.2658-12.172 0.7904-18.1 0.026-0.3952-2.3448-1.1855-7.0081-1.5807-9.3266-0.527 4.2945-1.2383 8.5625-1.8179 12.857-5.1112-2.4239-12.067-1.1329-15.755-5.7698-2.1077 2.7136-4.2154 5.48-6.85 7.7721-1.1856-5.9806-2.1867-11.988-3.0298-18.021 1.6334 4.9531 4.6896 8.6679 9.1684 11.118-2.4765-5.6117-5.8752-10.723-9.1948-15.86 8.5362 1.1856 17.178 1.3437 25.793 0.8694-2.2131 4.795-5.0584 9.2739-8.7206 13.094 0.7904 0.4478 2.3448 1.3436 3.1352 1.7915 2.4766-3.0035 4.1891-6.4812 6.1387-9.8271 1.0011 0.5533 2.9771 1.6071 3.9519 2.134 2.6873-11.065 5.2956-22.421 3.7148-33.855-1.2119-8.1409-0.3161-19.47 8.7996-22.605m-1.1329 74.691 6.4285 1.3173c-0.053 4.6105 3.2669 7.7721 6.5075 10.538-2.1867-3.6621-4.0573-7.4559-5.6381-11.408 5.1112 2.1341 10.091 6.5339 16.018 5.6645-8.0092-1.1856-15.175-11.592-23.316-6.1123m12.699 18.232c0.8431 4.6106 1.4227 9.2738 1.7125 13.99-2.2921 6.165-9.3265 8.8787-11.882 14.965 5.3746-3.5831 9.9325-8.1409 14.359-12.804 1.0275 4.9794 1.7389 10.143 4.1627 14.701 0.1844-6.0332-1.37-11.908-2.9244-17.678 8.1146 1.5281 15.334 5.2429 21.762 10.328-3.7675-8.3254-13.278-9.4846-20.787-12.62-3.1352-2.8718-4.189-7.3506-6.4021-10.881z"/>
    <path id="path4459" d="m2968.5-1313.9c6.4548 0.6323 12.936 0.6587 19.417 0.4742-0.2898 1.7652-0.8167 5.2693-1.0802 7.0345-5.8488 0.9484-11.856 0.8167-17.626-0.4479-0.1845-1.7652-0.527-5.2956-0.7114-7.0608z"/>
    <path id="path4461" d="m2968.4-1303.6c6.3757 0.5796 12.778 0.7114 19.18 0.4479-0.1844 1.7915-0.5796 5.4273-0.7641 7.2452-6.7446-0.2108-21.13 3.8465-18.416-7.6931z"/>
    <path id="path4463" d="m2968.5-1293.4c6.3231 0.6323 12.699 0.7904 19.075 0.5269-0.158 1.7915-0.5269 5.4273-0.7113 7.2188-6.086 0.6587-12.225 0.2108-18.311-0.3161-0.026-1.8706-0.053-5.5854-0.053-7.4296z"/>
    <path id="path4467" d="m2968.3-1283.3c6.4021 1.0011 12.91 1.0011 19.391 0.764-0.079 1.8442-0.2635 5.5063-0.3425 7.3506-6.5339 0.3688-13.094 0.1844-19.575-0.7641 0.1317-1.8442 0.3952-5.5063 0.5269-7.3505z"/>
    <path id="path4556" d="m2938.6-1236.6 0.9221-0.9485c-0.2371 0.2371-0.685 0.7114-0.9221 0.9485z"/>
   </g>
   <circle id="circle5000" stroke-width="7.6711" stroke-linecap="round" stroke="#4096c3" cy="1018.8" cx="-823.45" r="208.13" fill="none"/>
  </g>
 </g>
</svg>
