<?xml version="1.0" encoding="UTF-8" standalone="no"?>
<svg id="svg7544" xmlns:rdf="http://www.w3.org/1999/02/22-rdf-syntax-ns#" xmlns="http://www.w3.org/2000/svg" viewBox="0 0 423.93029 423.93028" height="119.64mm" width="119.64mm" version="1.1" xmlns:cc="http://creativecommons.org/ns#" xmlns:dc="http://purl.org/dc/elements/1.1/">
 <metadata id="metadata7549">
  <rdf:RDF>
   <cc:Work rdf:about="">
    <dc:format>image/svg+xml</dc:format>
    <dc:type rdf:resource="http://purl.org/dc/dcmitype/StillImage"/>
    <dc:title/>
   </cc:Work>
  </rdf:RDF>
 </metadata>
 <g id="layer1" transform="translate(40.537 -148.97)">
  <g id="g8120">
   <g id="g4725" transform="translate(407.89 -17.819)">
    <circle id="circle4361" cx="-236.46" stroke-linecap="round" stroke="#4096c3" cy="378.75" r="208.13" stroke-width="7.6711" fill="none"/>
    <g id="g4714" transform="translate(-22,-16)">
     <g id="g4432" transform="matrix(.45344 0 0 .45344 -381.77 232.39)">
      <g id="#020202ff" fill="#020202">
       <path id="path4422" d="m495.44 15.54c28.4-6.95 58.19-7.14 86.98-2.52-2.85 26.61-10.37 52.9-22.76 76.67-9.67 17.17-22.22 33.15-38.57 44.41-16.31 11.87-36.16 18.09-56.12 19.86-18.58 2.28-37.2-1.48-55.15-6.01-2.63-23.42-0.09-47.42 8.67-69.36 12.59-32.56 43.43-55.45 76.95-63.05m28.01 1.97c-23.26 1.32-46.74 7.54-66.05 20.91-24.97 18.25-38.37 48.9-41.04 79.11-0.28 8.18-1.61 17.4 3.75 24.38 12.14 6.56 26.64 4.84 39.9 5.21 28.8 1.08 57.19-12.58 75.6-34.48 18.18-21.48 29.33-48.14 35.89-75.28 1.43-5.97 3.12-14.91-3.75-18.11-14.43-3.72-29.58-2.2-44.3-1.74z"/>
       <path id="path4424" d="m324.23 65.86c18.71 17.09 33.91 37.81 45.78 60.14 13.36 27.73 20.78 58.25 21.84 89.01 0.59 5.66-0.77 14.69 6.08 17.1 9.12 2.44 18.1-2.25 26.1-6.04 8.86-3.93 16.58-10.1 25.72-13.41 17.54-6.91 36.54-8.87 55.24-9.61 18.19-1.03 36.96 3.49 51.97 14.02 20.08 13.21 34.71 33.04 45.94 53.98 15.53 30.57 23.32 64.54 26.5 98.53 1.9 29.35 0.9 59.08-6 87.77-8.25 36.18-21.97 71.76-44.38 101.64-18.27 25.64-42.05 48.28-71.3 60.77-18.1 7.24-38.24 11.28-57.58 6.98-19.87-3.16-37.24-15.2-57.58-16.27-16.59-1.93-32.1 5.18-47.25 10.85-19.81 6.98-41.92 10.07-62.31 3.67-26.13-6.54-48.54-22.88-67.21-41.77-21.78-23.35-39.23-50.91-50.03-81.01-4.15-10.27-6.36-21.19-10.49-31.46-1.35-3.35-3.94-6.02-6.64-8.31-27.59-19.07-55.16-38.18-82.65-57.41-17.37-11.4-35.13-23.85-46.02-42.04-8.07-12.6-12.81-28.61-8.37-43.32 3.84-15.01 14.34-26.83 22.46-39.63 21.84-32.39 40.76-66.97 66.34-96.68 4.03-4.3 7.8-9.55 13.87-11.03 12.84-4.24 26.86-5.57 40.17-2.82 25.77 5.05 50.29 15.56 72.31 29.77 5.46 3.25 11.05 7.61 17.88 6.18 26.16-4.73 53.37-2.54 78.75 5.15 18.02 5.65 32.05 21.72 51.69 22.41 6.2 0.1 10.99-5.94 9.76-12.03 0.51-55.58-22.74-111.66-64.21-149.03 1.18-2.05 2.4-4.08 3.62-6.1m-220.69 123.73c-6.72 8.5-6.92 20.2-5.77 30.48 4.43 21.92 18.83 40.38 35.17 54.99 6.32 5.45 12.38 11.66 20.28 14.8 6.3 1.66 11.79-3.32 13.89-8.79 10.48-22.52 24.94-43.9 44.96-58.98 5.83-4.31 11.14-9.45 14.83-15.74-28.52-14.89-58.39-32.99-91.92-30.43-11.8-0.71-24.6 3.57-31.44 13.67m112.42 36.4c-22.16 16.5-36.23 41.44-46.17 66.73-2.92 6.85 2.51 13.2 8.03 16.51 69.32 47.25 137.62 95.98 207.12 142.97-27.1 39.27-54.32 78.45-81.21 117.87-22.86-15.28-45.04-31.54-67.83-46.93-22.37-15.3-43.78-32.47-68.5-43.91 0 3.07 0.18 6.17 1.1 9.13 5.13 18.12 13.41 35.2 22.56 51.6 18.05 32.26 44.87 61.59 80.11 74.87 17.67 7.19 37.39 7.91 56 4.4 13.7-3.74 26.33-10.69 40.23-13.86 17.91-4.64 37.09-2.3 54.3 4.02 12.9 4.42 25.31 11.5 39.32 11.49 27.32 2.45 54.17-7.96 75.83-24.02 17.63-13.69 32.52-30.84 44.25-49.8 16.15-26.65 27.92-55.98 34.44-86.48 7.52-29.87 8.41-60.92 7.18-91.56-2.11-34.92-9.75-70.13-26.85-100.93-9.34-17.36-21.96-33.56-38.9-44.03-11.42-7.1-24.19-13.09-37.94-13.08-21.44-0.33-43.68-0.8-64.06 6.95-12.09 4.59-22.08 13.31-34.29 17.6-10.69 4.15-22.25 5.94-33.69 5.42-14-0.42-28.84-2.19-40.72-10.25-10.1-6.39-20.48-12.98-32.27-15.68-14.91-4.36-30.62-4.18-45.99-4.78-18.51-0.51-37.07 4.69-52.05 15.75m-141.76 5.16c-12.3 17.56-22.98 36.22-35.22 53.84-8.63 13.67-20.75 26.87-21.09 43.99-1.39 23.86 15.12 44.46 33.52 57.56 74.44 51.94 149.23 103.37 223.57 155.46 6.68 4.32 12.8 9.68 20.22 12.76 5.37 1.77 11.08-0.94 14.29-5.27 15.67-22.38 30.76-45.16 46.6-67.42 4.52-6.54 9.4-12.91 12.85-20.1 2.55-4.95 0.96-12-4.12-14.73-10.46-7.62-20.92-15.26-31.81-22.26-4.51-2.63-9.25-6.25-14.86-5.02-3.7 1.4-6.49 4.36-8.71 7.53-6.74 9.69-13.85 19.11-20.72 28.71-1.92-1.09-3.82-2.21-5.73-3.31 7.63-10.99 15.92-21.54 22.95-32.92 3.68-4.88 2.42-12.79-3.11-15.74-9.18-6.51-18.06-13.58-27.95-19.01-4.76-3.05-11.05-0.85-14.59 3.04-8.61 10.35-14.86 22.42-23.49 32.74-1.56-0.61-4.66-1.83-6.22-2.44 7.27-11.56 16.2-22 23.27-33.66 3.76-5.09 2.79-12.6-2.41-16.32-9.6-6.81-19.06-13.99-29.46-19.53-4.88-2.93-10.84-0.2-14.04 3.85-7.91 10.61-14.71 21.99-22.04 33-1.48-0.98-4.45-2.94-5.93-3.91 7.1-11.15 15.3-21.61 22-33 3.57-5.22 2.7-13.54-3.11-16.8-9.01-6.75-18.09-13.56-27.95-19.03-4.63-2.84-11.08-0.5-13.82 3.91-8.52 10.4-15.49 21.97-23.33 32.89-1.73-1.39-3.47-2.76-5.21-4.12 6.7-10.01 13.69-19.82 20.63-29.66 2.36-3.9 4.9-8.22 3.84-13.02-2.63-7.03-9.65-10.53-14.92-15.29-6.84-5.17-12.52-11.99-20.27-15.87-5.96-1.35-11.17 3.09-14.01 7.84-6.66 9.52-13.33 19.04-20.26 28.37-1.95-1.07-3.88-2.16-5.8-3.28 8.92-14.55 21.32-26.85 28.99-42.15 1.3-7.75-5.04-13.75-8.09-20.29-3.76-5.73-5.11-14.56-12.79-16.42-4.42-0.64-9.48 0.88-11.67 5.08z"/>
      </g>
     </g>
     <g>
      <path id="path4464" d="m-253.98 512.43c-5.3068-1.5205-14.509-6.208-19.295-9.8284-9.0833-6.8717-16.588-16.29-23.566-29.576-6.6737-12.706-10.205-23.301-7.4092-22.228 3.2574 1.25 12.982 7.6427 34.603 22.747 13.223 9.2374 24.519 16.909 25.102 17.048 0.71839 0.17131 6.8792-8.215 19.092-25.989 9.9172-14.433 18.128-26.501 18.247-26.818 0.11856-0.31689-3.8589-3.3766-8.8388-6.7995-48.784-33.53-85.707-59.324-87.013-60.785-0.87504-0.97921-1.591-2.5481-1.591-3.4864s1.9065-5.4549 4.2368-10.037c6.9506-13.667 15.321-22.206 25.928-26.451 3.7381-1.4959 5.2358-1.6538 15.797-1.6656 14.364-0.0161 19.355 0.90771 27.075 5.0115 14.848 7.8929 14.059 7.634 24.19 7.9362 8.3883 0.25019 9.6567 0.11726 14.496-1.5191 2.9167-0.98632 8.0834-3.3589 11.482-5.2724 8.856-4.9867 14.276-6.142 28.887-6.1571l11.731-0.0121 6.9798 3.4634c5.5994 2.7785 7.9642 4.4674 11.957 8.54 14.198 14.48 22.302 39.305 22.302 68.317 0 22.637-4.6332 43.337-13.804 61.672-5.2107 10.418-9.5178 16.717-16.235 23.744-6.9939 7.3164-11.488 10.694-18.968 14.255-7.8246 3.7253-12.921 4.9164-21.035 4.9164-6.4355 0-7.3752-0.20359-16.999-3.6828l-10.187-3.6828-9.1924-0.0117-9.1924-0.0117-8.8388 3.4308c-8.6304 3.3499-9.0472 3.4365-17.678 3.6714-6.08 0.16551-9.9079-0.0657-12.264-0.7407v0.00003z" fill-opacity=".62667" fill="#ff0a00"/>
      <path id="path4466" d="m-188.26 297.45c-1.5168-0.54053-3.0235-1.4016-3.3484-1.9135-3.0609-4.8236 0.0639-22.04 5.8554-32.262 3.5676-6.2967 11.298-13.599 17.575-16.602 9.6812-4.6316 15.537-5.749 30.289-5.7797 12.955-0.0269 12.966-0.0255 14.384 1.7227 1.7288 2.1322 1.4873 4.2172-1.6233 14.019-6.8958 21.728-20.134 36.511-36.491 40.75-5.5815 1.4463-22.649 1.4888-26.641 0.0663z" fill-opacity=".84889" fill="#b5ff97"/>
      <path id="path4468" d="m-256.74 477.86c-4.7677-3.2465-18.215-12.564-29.882-20.705-11.667-8.1415-33.077-23.039-47.577-33.105-14.92-10.357-28.056-20.008-30.262-22.231-2.2136-2.2313-4.8765-5.919-6.163-8.5347-2.0165-4.0999-2.2638-5.2671-2.2521-10.627 0.01-4.4637 0.3502-6.661 1.3163-8.4958 0.71675-1.3612 6.563-10.515 12.992-20.341 11.917-18.215 12.905-19.318 16.344-18.226 1.5044 0.47748 8.5789 12.782 8.5789 14.921 0 1.2609-2.9102 5.8104-9.1262 14.267-3.7469 5.0975-4.251 7.2721-1.6794 7.2443 0.78753-0.009 3.2396-2.8132 6.5425-7.4834 5.1183-7.2372 6.6324-8.7664 8.6792-8.7664 1.2507 0 15.095 11.576 16.108 13.469 1.1156 2.0845 0.38705 3.7061-5.4778 12.192-4.3174 6.2468-5.1179 7.8168-4.4164 8.662 1.4756 1.778 2.3458 1.1417 6.1162-4.4716 5.2994-7.8897 8.5435-11.467 10.4-11.467 1.398 0 12.174 6.774 15.457 9.7167 2.4674 2.2115 1.5675 5.1708-4.1512 13.652-5.0187 7.443-5.3007 8.056-4.1075 8.9285 0.70464 0.51525 1.4894 0.93681 1.744 0.93681 0.25457 0 2.8954-3.6524 5.8686-8.1166 3.7345-5.6073 5.9308-8.2484 7.104-8.5428 1.9853-0.49828 4.408 0.64503 11.526 5.4393 5.2285 3.5217 7.2952 5.7178 7.2952 7.7522 0 0.64198-2.5399 4.7873-5.6442 9.2118s-5.6499 8.4083-5.6569 8.8528c-0.0187 1.1924 2.1439 1.8106 3.2173 0.91972 0.51116-0.42423 2.8609-3.5914 5.2217-7.0382 4.4676-6.5229 7.1432-9.1854 9.2307-9.1854 1.4341 0 10.514 5.7954 14.332 9.1474 1.5656 1.3746 2.6342 2.9541 2.6342 3.8936 0 0.86941-2.5785 5.3317-5.7299 9.9161-4.4185 6.4277-5.5109 8.4765-4.773 8.9517 1.7825 1.148 2.7983 0.27775 7.9443-6.8065 2.825-3.8891 5.9668-7.538 6.9818-8.1086 2.3945-1.3463 3.813-0.6722 14.854 7.0594 9.2684 6.4901 9.9824 7.5828 7.7514 11.863-2.1745 4.1719-25.515 37.776-27.482 39.567-0.96107 0.87505-2.5222 1.591-3.4692 1.591-0.99456 0-5.3832-2.4932-10.39-5.9028z" fill-opacity=".84889" fill="#87e6ee"/>
      <path id="path4470" d="m-315 361.96c-8.8776-6.6177-16.292-15.15-19.816-22.804-1.666-3.6186-1.9577-5.1859-1.983-10.655-0.0271-5.8727 0.138-6.6664 1.9604-9.4228 3.0639-4.6341 7.5425-6.4226 16.105-6.4313 4.5032-0.005 8.6601 0.47251 12.374 1.4202 6.2007 1.5822 26.453 11.066 26.453 12.387 0 0.46164-3.2178 3.8086-7.1506 7.4376-8.4468 7.7942-12.773 13.298-17.219 21.906-4.2076 8.1467-6.3844 9.3976-10.724 6.1627z" fill-opacity=".31373" fill="#ffc273"/>
     </g>
    </g>
   </g>
  </g>
 </g>
</svg>
