<?xml version="1.0" encoding="UTF-8" standalone="no"?>
<svg id="svg11595" xmlns:rdf="http://www.w3.org/1999/02/22-rdf-syntax-ns#" xmlns="http://www.w3.org/2000/svg" viewBox="0 0 423.93029 423.93028" height="119.64mm" width="119.64mm" version="1.1" xmlns:cc="http://creativecommons.org/ns#" xmlns:dc="http://purl.org/dc/elements/1.1/">
 <metadata id="metadata11600">
  <rdf:RDF>
   <cc:Work rdf:about="">
    <dc:format>image/svg+xml</dc:format>
    <dc:type rdf:resource="http://purl.org/dc/dcmitype/StillImage"/>
    <dc:title/>
   </cc:Work>
  </rdf:RDF>
 </metadata>
 <g id="layer1" transform="translate(-165.18 -591.83)">
  <g id="g4676" transform="translate(1892.7 -1073)">
   <circle id="circle4530" stroke-width="7.6711" stroke-linecap="round" stroke="#4096c3" cy="1876.8" cx="-1515.6" r="208.13" fill="none"/>
   <g id="g4546" fill-opacity=".32549" transform="matrix(2.0414 0 0 2.0414 -1757.6 1638.1)" stroke="#000" stroke-width="1.2246" fill="#ffff5d">
    <g id="#ffffffff-3" fill-opacity=".32549" stroke="#000" stroke-width="1.2246" fill="#ffff5d">
     <path id="path4536" d="m93.5 36.39c0.59-2.99 3.6-4.86 6.54-4.81 5.98-0.26 11.97 0.02 17.95-0.12 2.92 0.09 6.25-0.17 8.63 1.85 2.6 2.09 3.01 5.64 3.54 8.71 1.16 7.82 2.41 15.79 5.91 22.97 4.61 9.87 13.45 17 18.08 26.85 3.22 8 1.62 17.14-1.42 24.96-3.34 8.55-16.68 9.67-21.84 2.3-3.3-5.29-3.26-12.05-6.94-17.15-2.32-3.07-7.57-2.94-9.73 0.25-3.38 4.96-3.52 11.32-6.48 16.49-4.82 7.63-18.21 6.91-21.91-1.43-3.16-7.65-4.66-16.52-2.01-24.53 3.31-8.71 12.43-13.09 16.95-20.99 5.81-9.57 6.35-21.31 4.71-32.12-0.83 9.22-1.48 19-6.7 26.99-0.89-6.43-1.57-12.9-3.43-19.15-0.77-3.64-2.38-7.28-1.85-11.07z"/>
     <path id="path4538" d="m112.8 121.33c4.22-0.37 8.45-0.37 12.66-0.06 4.66 7.23 14.03 9.84 22.07 7.37 2.07 2.31 4.05 5.1 3.41 8.4-1.11 9.72-6.06 19.02-13.49 25.4-4.31 3.95-7.92 8.89-9.4 14.62-1.36 4.51-1 9.27-0.64 13.89 1.2-6.42 2.36-13.33 7.07-18.24 0.14 6.09-0.29 12.16-0.38 18.25-0.19 2.71 0.14 6.02-2.19 7.96-2.14 1.97-5.27 1.48-7.93 1.62-4.67-0.13-9.35 0.18-14.01-0.17-2.62-0.09-5-2.21-5.34-4.81-0.91-7.67-0.04-15.47-1.32-23.1-2.12-9.87-10.23-16.85-13.61-26.19-2.23-5.63-4.08-12.98 1.06-17.62 8.01 2.41 17.43-0.05 22.04-7.32z"/>
    </g>
   </g>
  </g>
 </g>
</svg>
