<?xml version="1.0" encoding="UTF-8" standalone="no"?>
<svg id="svg6231" xmlns:rdf="http://www.w3.org/1999/02/22-rdf-syntax-ns#" xmlns="http://www.w3.org/2000/svg" viewBox="0 0 423.93029 423.93028" height="119.64mm" width="119.64mm" version="1.1" xmlns:cc="http://creativecommons.org/ns#" xmlns:dc="http://purl.org/dc/elements/1.1/">
 <metadata id="metadata6236">
  <rdf:RDF>
   <cc:Work rdf:about="">
    <dc:format>image/svg+xml</dc:format>
    <dc:type rdf:resource="http://purl.org/dc/dcmitype/StillImage"/>
    <dc:title/>
   </cc:Work>
  </rdf:RDF>
 </metadata>
 <g id="layer1" transform="translate(324.11 -320.4)">
  <g id="g6200" transform="translate(1281.6 153.61)">
   <g id="g4591">
    <g id="g4615" fill-opacity=".31373" transform="matrix(3.1405 0 0 3.1405 -1646.1 125.37)" stroke="#000" stroke-width=".79606" fill="#ffc273">
     <g id="g4619" fill-opacity=".31373" stroke="#000" stroke-width=".79606" fill="#ffc273">
      <path id="path4621" d="m74.35 28.49c5.8-1.69 13.35-1.45 17.48 3.66 5.63 6.05 4.87 16.79-1.77 21.81-5.05 4.37-13.21 4.56-18.43 0.37-5.55-3.85-7.42-11.57-5.05-17.75 1.53-3.51 4.25-6.51 7.77-8.09z"/>
      <path id="path4623" d="m65.83 61.75c1.82-1.93 4.68-2.04 7.16-2.07 5 0.02 10.01 0.02 15.01 0 2.75-0.02 5.87 0.26 7.78 2.49 6.88 6.82 13.68 13.72 20.49 20.62 2.64 2.1 2.34 7.26-1.13 8.36-2.24 1.32-5.01 0.16-6.61-1.62-4.03-4.13-8.16-8.15-12.16-12.31-0.01 3.9 0.01 7.8 0 11.7h-31.72c-0.01-3.87 0.01-7.75 0-11.63-4.33 4.39-8.58 8.88-13.03 13.14-2.95 2.61-8.58 0.71-8.58-3.44-0.26-2.44 1.82-4.04 3.26-5.67 6.54-6.49 12.95-13.12 19.53-19.57z"/>
      <path id="path4625" d="m53.52 106.39c3.48-4.06 7.44-7.7 11.22-11.49 3.86 4.09 7.98 7.92 11.83 12.01-2.82 3.04-5.86 5.86-8.71 8.87 3.41 3.69 7.47 6.84 10.42 10.93 2.33 4.49-3.46 9.27-7.61 6.64-5.37-4.95-10.18-10.5-15.3-15.72-3-2.76-3.82-7.7-1.85-11.24z"/>
      <path id="path4627" d="m96.23 94.88c3.77 3.83 7.8 7.44 11.29 11.53 1.89 3.51 1.11 8.4-1.85 11.14-5.12 5.23-9.92 10.8-15.28 15.77-4.13 2.68-9.97-2.04-7.68-6.56 2.94-4.12 7.03-7.27 10.45-10.98-2.85-3.02-5.91-5.83-8.76-8.86 3.85-4.1 7.99-7.93 11.83-12.04z"/>
     </g>
    </g>
    <circle id="circle4663" stroke-width="7.6711" stroke-linecap="round" stroke="#4096c3" cy="378.75" cx="-1393.7" r="208.13" fill="none"/>
    <path id="path4482" d="m-1443.2 404.42 0.1882 19 37.453 37.812 24.404-0.125 37.391-37.75 0.1882-18.812z" fill-rule="evenodd" stroke="#000" stroke-width="2.5" fill="#87e6ee"/>
   </g>
  </g>
 </g>
</svg>
