<?xml version="1.0" encoding="UTF-8" standalone="no"?>
<svg id="svg13787" xmlns:rdf="http://www.w3.org/1999/02/22-rdf-syntax-ns#" xmlns="http://www.w3.org/2000/svg" viewBox="0 0 423.93029 423.93028" height="119.64mm" width="119.64mm" version="1.1" xmlns:cc="http://creativecommons.org/ns#" xmlns:dc="http://purl.org/dc/elements/1.1/">
 <metadata id="metadata13792">
  <rdf:RDF>
   <cc:Work rdf:about="">
    <dc:format>image/svg+xml</dc:format>
    <dc:type rdf:resource="http://purl.org/dc/dcmitype/StillImage"/>
    <dc:title/>
   </cc:Work>
  </rdf:RDF>
 </metadata>
 <g id="layer1" transform="translate(-273.75 -531.83)">
  <g id="g16378" transform="translate(1850.3 -981.85)">
   <circle id="circle4379" cx="-1364.6" stroke-linecap="round" stroke="#4096c3" cy="1725.6" r="208.13" stroke-width="7.6711" fill="none"/>
   <path id="path4382" d="m-1290.5 1599.1c-22.765-20.76-54.417-28.036-84.457-28.947-29.774-0.056-60.921 5.6071-85.438 23.494-23.438 16.667-38.647 43.581-42.642 71.883-3.9109 25.148 0.5046 51.655 13.345 73.733 6.5884 11.719 15.139 22.162 24.167 32.073 5.3126 5.5931 8.4666 12.854 10.443 20.228 7.2332 29.479 4.2894 61.846-11.2 88.298 49.665-0.3085 99.344-0.2804 149.01-0.014 3.0418-10.766 2.8456-22.078 4.8361-33.012 0.8131-4.1773 4.4857-7.6537 8.8733-7.4153 13.106-0.1543 25.905 5.4529 39.067 3.182 7.5135-0.757 15.167-5.551 17.032-13.233 2.1448-9.2798-2.0326-18.209-5.2566-26.662 2.1306-5.0324 11.032-6.0556 9.5741-12.602-2.6915-3.154-6.8547-4.4436-10.878-4.7661 4.2473-1.2756 9.4059-1.1354 12.742-4.3735 1.8784-5.4388-2.2428-10.668-2.7194-16.036 4.0792-5.9996 12.742-5.1025 18.097-9.4199 1.7803-1.7943 3.0559-4.7381 1.8223-7.1771-3.981-9.8264-10.485-18.335-15.882-27.391-3.6026-6.1538-7.9902-11.775-11.915-17.704-3.2381-4.4155 4.6539-6.5603 4.2193-11.13-3.1679-34.582-17.354-68.925-42.838-93.008z" stroke="#000" stroke-width="2.5" fill="#ccc"/>
   <g id="#0d6cb5ff" transform="matrix(1.1898 0 0 1.1898 -1560.9 1562.1)" stroke="#000" stroke-width="0.8" fill="#ffff92">
    <path id="path4391-6" d="m153.56 13.69c2.74-1.54 6.85 0.06 7.2 3.36 0.32 5.63-0.01 11.27 0.14 16.91-0.08 2.43 0.47 5.48-1.78 7.16-2.68 2.54-7.7 0.58-7.92-3.09-0.2-6.35-0.02-12.72-0.09-19.07-0.16-2.04 0.55-4.24 2.45-5.27z"/>
    <path id="path4393-4" d="m95.26 33.24c2.32-1.71 5.36-0.61 7.1 1.37 4.31 4.39 8.81 8.61 12.98 13.13 2.87 2.77 0.57 8.27-3.42 8.12-2.43 0.32-4.04-1.73-5.59-3.22-3.93-4.1-8.11-7.96-11.99-12.11-1.96-2.02-1.5-5.81 0.92-7.29z"/>
    <path id="path4395-2" d="m211.35 33.21c2.86-2.18 7.57 0.21 7.51 3.8 0.34 2.45-1.7 4.09-3.21 5.65-4.08 3.93-7.94 8.08-12.07 11.96-2.54 2.58-7.6 1-8.1-2.66-0.75-3.18 2.24-5.33 4.15-7.36 3.98-3.71 7.5-7.94 11.72-11.39z"/>
    <path id="path4397" d="m120.71 67.7c6.63-8.6 16.49-14.63 27.19-16.53 13.26-2.48 27.56 1.37 37.63 10.39 11.55 10.01 17.28 26.26 14.41 41.29-1.46 9.13-6.53 17.02-11.25 24.77-3.72 6.13-8.64 11.95-9.51 19.33-0.81 4.15-1.41 9.77-6.17 11.19-4.9 1-9.96 0.29-14.92 0.47 0.13-12.53-0.1-25.07 0.12-37.61 6.94-0.46 14.63-3.27 17.98-9.8 2.53-5.07-3-10.85-8.19-9.87-6.08 0.96-9.86 6.69-12 11.98-2.14-5.29-5.91-11.01-11.98-11.98-5.18-1-10.74 4.78-8.22 9.85 3.34 6.55 11.04 9.35 18 9.82 0.2 12.53-0.02 25.07 0.12 37.61-4.98-0.18-10.04 0.53-14.94-0.47-4.76-1.44-5.34-7.04-6.16-11.18-0.91-7.61-6.07-13.55-9.85-19.9-4.03-6.7-8.4-13.42-10.24-21.12-3.45-13.07-0.36-27.63 7.98-38.24z"/>
    <path id="path4399-1" d="m77.38 90.58c5.53-0.44 11.09-0.01 16.63-0.19 2.66 0.11 5.96-0.57 7.87 1.82 2.49 2.97 0.21 8.2-3.81 8-6.7 0.04-13.41 0.11-20.11-0.04-5.03-0.33-5.49-8.67-0.58-9.59z"/>
    <path id="path4401-3" d="m212.46 90.65c6.51-0.57 13.08-0.08 19.61-0.25 2.24-0.21 4.75 0.56 5.7 2.78 0.52 2.08 0.5 4.8-1.53 6.08-1.75 1.45-4.17 0.86-6.24 1.01-5.68-0.17-11.37 0.2-17.04-0.17-4.77-0.66-5.19-8.3-0.5-9.45z"/>
    <path id="path4403-8" d="m140.23 106.27c1.71-1.74 4.55-1.17 6.29 0.21 3.49 2.47 5.26 6.54 6.57 10.47-4.84-0.38-9.86-2.16-12.97-6.05-1.13-1.3-1.45-3.51 0.11-4.63z"/>
    <path id="path4405-3" d="m167.35 105.48c2.52-1.27 6.58 1.19 5.24 4.14-2.61 4.86-8.48 6.89-13.69 7.33 1.52-4.52 3.77-9.52 8.45-11.47z"/>
    <path id="path4407-1" d="m109.4 135.29c2.82-1.73 7 0.45 7.18 3.76 0.46 2.89-2.17 4.72-3.9 6.58-4.11 3.84-7.79 8.16-12.09 11.8-3.72 2.81-9.12-1.91-7.12-6.03 1.83-3.03 4.76-5.19 7.14-7.76 2.96-2.75 5.48-6 8.79-8.35z"/>
    <path id="path4409" d="m198.22 135.18c2.39-1.31 5.01 0.11 6.65 1.93 4.13 4.2 8.4 8.28 12.46 12.56 2.3 2.08 2 6.26-0.78 7.8-2.18 1.59-5.05 0.54-6.68-1.32-4.31-4.35-8.7-8.62-12.96-13.01-2.54-2.17-1.77-6.74 1.31-7.96z"/>
    <path id="path4411" d="m140.28 162.39c9.22-0.43 18.47-0.02 27.7-0.2 1.97 0.14 4.95-0.48 5.82 1.92 1.21 1.89-0.36 4.93-2.69 4.78-10.07 0.06-20.15 0.07-30.23 0-3.69 0.19-4.12-5.97-0.6-6.5z"/>
    <path id="path4413" d="m139.32 172.51c1.74-0.88 3.79-0.58 5.68-0.66 8.68 0.16 17.37-0.18 26.03 0.15 2.72-0.02 4.17 3.57 2.39 5.55-0.93 1.44-2.85 1.17-4.31 1.25-9.34-0.08-18.68 0.07-28.01-0.07-3.25 0.26-4.5-4.66-1.78-6.22z"/>
    <path id="path4415" d="m139.27 182.3c1.39-0.94 3.19-0.44 4.77-0.59 9.01 0.11 18.03-0.07 27.05 0.07 3.54-0.02 4.19 5.47 0.92 6.56-10.34 0.27-20.71 0.09-31.07 0.09-3.13 0.14-4.28-4.58-1.67-6.13z"/>
    <path id="path4417" d="m145.09 191.77c7.27-0.11 14.55-0.11 21.83 0-1.96 2.67-4.3 5.68-7.83 6.13-3.19 0.19-6.82 0.63-9.57-1.38-1.84-1.2-3.1-3.05-4.43-4.75z"/>
   </g>
  </g>
 </g>
</svg>
