<?xml version="1.0" encoding="UTF-8" standalone="no"?>
<svg id="svg14883" xmlns:rdf="http://www.w3.org/1999/02/22-rdf-syntax-ns#" xmlns="http://www.w3.org/2000/svg" viewBox="0 0 423.93026 423.93025" height="119.64mm" width="119.64mm" version="1.1" xmlns:cc="http://creativecommons.org/ns#" xmlns:dc="http://purl.org/dc/elements/1.1/">
 <metadata id="metadata14888">
  <rdf:RDF>
   <cc:Work rdf:about="">
    <dc:format>image/svg+xml</dc:format>
    <dc:type rdf:resource="http://purl.org/dc/dcmitype/StillImage"/>
    <dc:title/>
   </cc:Work>
  </rdf:RDF>
 </metadata>
 <g id="layer1" transform="translate(-282.32 -591.83)">
  <g id="g4664" transform="translate(2549.9 -1073)">
   <circle id="circle4461" cx="-2055.6" stroke-linecap="round" stroke="#4096c3" cy="1876.8" r="208.13" stroke-width="7.6711" fill="none"/>
   <g id="g4477" fill-opacity=".70588" transform="matrix(-.44570 0 0 .44570 -1889.4 1731.4)" stroke="#000" stroke-width="4.4873" fill="#e5e5e5">
    <g id="#000000ff-42" fill-opacity=".70588" stroke="#000" stroke-width="4.4873" fill="#e5e5e5">
     <path id="path4467-3" d="m90.14 32.19c7.33-7.08 17.8-10.95 27.98-9.73 8.71 0.78 16.93 5.19 22.63 11.78 129.13 144.16 258.35 288.23 387.43 432.43-18.07 16.26-36.11 32.57-54.17 48.84-129.05-144.1-258.18-288.11-387.24-432.2-8.35-8.84-11.57-22.13-8.05-33.78 1.88-6.81 6.12-12.75 11.42-17.34z"/>
     <path id="path4469-0" d="m490.75 534.16c18.03-16.3 36.08-32.58 54.11-48.87 41.86 46.82 83.81 93.57 125.66 140.39-53.56-23.46-107.19-46.79-160.71-70.33-6.56-6.84-12.69-14.14-19.06-21.19m24.54 1.34c1.91 1.86 3.27 4.41 5.65 5.73 27.67 12.11 55.36 24.18 83.03 36.3-20.02-22.61-40.37-44.93-60.37-67.56-9.52 8.41-18.89 17.01-28.31 25.53z"/>
    </g>
   </g>
   <g id="#000000ff-6" transform="matrix(1.6308 0 0 1.6308 -2218.8 1712)" stroke="#000" stroke-width="1.2264" fill="#e5e5e5">
    <path id="path4486" d="m36.09 11.53c10.19-1.17 21.07-1.64 30.59 2.82 6.14 2.81 10.95 8.28 12.96 14.73 2.93 9.07 1.62 18.87-1.04 27.84 8.81 12.37 17.68 24.7 26.49 37.07 2.33 3.26 4.43 6.89 8.01 8.95 6.95 4.35 14.39 9.34 22.93 9.17 5.43 0.08 8.56-4.91 12.98-7.16 8.66-4.76 20.21-3.2 27.33 3.66 7.98 7.29 9.6 20.35 3.74 29.42-4.43 7.04-12.69 11.62-21.06 11.13-8.43-0.3-16.42-5.59-19.99-13.23-2.27-5.39-7.06-8.99-10.57-13.49-3.19-3.99-7.87-8-13.34-7.15-2.68 0.78-6.13 1.96-6.66 5.11-0.84 4.39 1.36 8.72 4.13 11.98 2.8 3.22 5.55 6.47 8.26 9.75 2.23 2.88 5.83 4.13 8.31 6.74 5.08 4.88 7.87 12.05 7.14 19.08-0.66 7.86-5.63 15.13-12.6 18.75-6.34 3.35-14.26 3.47-20.72 0.37-6.78-3.18-11.89-9.74-13.15-17.14-1.5-7.87 1.48-16.38 7.57-21.6 3.88-2.84 6.18-7.53 5.65-12.38-0.79-8.33-4.22-16.36-8.74-23.32-11.27-11.1-23.05-21.69-34.51-32.6 1.31-1.67 2.62-3.34 3.89-5.04 1.78-2.31 3.31-4.86 5.66-6.66-11.24-18.85-22.16-37.88-33.26-56.8m62.61 97.46c0.16 3.23 3.5 4.28 6.05 5.12-0.94-3.56-2.08-7.08-2.7-10.71 2.86 2.66 2.74 6.97 3.71 10.51 2.79-2.2 4.64-6.46 1.74-9.36-3.21-3.67-9.7-0.23-8.8 4.44m56.7 1.53c-7.26 2.24-12.3 10.02-10.99 17.57 1.05 8.59 10.04 15.08 18.53 13.23 9.15-1.39 15.2-11.81 12.22-20.5-2.3-8.12-11.76-13.13-19.76-10.3m-46.97 40.03c-7.45 2.01-12.43 10.01-11.17 17.58 1.05 8.28 9.44 14.68 17.71 13.42 9.16-0.94 16.07-10.95 13.36-19.83-2.04-8.42-11.63-13.87-19.9-11.17z"/>
    <path id="path4488" d="m16.45 35.97c-0.62-2.14 1.16-3.77 2.25-5.38 16.45 12.61 32.82 25.34 49.38 37.81-2.01 1.92-3.8 4.04-5.51 6.23l1.12 0.36c-2.47 0.32-3.36 2.9-4.41 4.76-11.96-11.74-24.45-22.93-36.53-34.54-2.57-2.69-5.36-5.52-6.3-9.24z"/>
   </g>
  </g>
 </g>
</svg>
